<?xml version="1.0" standalone="no"?>
<!DOCTYPE svg PUBLIC "-//W3C//DTD SVG 20010904//EN"
 "http://www.w3.org/TR/2001/REC-SVG-20010904/DTD/svg10.dtd">
<svg version="1.0" xmlns="http://www.w3.org/2000/svg"
 width="700.000000pt" height="700.000000pt" viewBox="0 0 700.000000 700.000000"
 preserveAspectRatio="xMidYMid meet">
<metadata>
Created by potrace 1.14, written by Peter Selinger 2001-2017
</metadata>
<g transform="translate(0.000000,700.000000) scale(0.100000,-0.100000)"
fill="#000000" stroke="none">
<path d="M203 6986 c-87 -28 -157 -99 -187 -191 -15 -46 -16 -335 -14 -3315
l3 -3265 23 -47 c27 -54 97 -122 150 -146 34 -16 274 -17 3303 -20 2889 -2
3271 0 3316 13 64 19 139 85 173 151 l25 49 3 3255 c2 2227 -1 3270 -8 3304
-21 99 -106 187 -203 213 -75 19 -6521 18 -6584 -1z"/>
</g>
</svg>
