<?xml version="1.0" standalone="no"?>
<!DOCTYPE svg PUBLIC "-//W3C//DTD SVG 20010904//EN"
 "http://www.w3.org/TR/2001/REC-SVG-20010904/DTD/svg10.dtd">
<svg version="1.0" xmlns="http://www.w3.org/2000/svg"
 width="380.000000pt" height="380.000000pt" viewBox="0 0 380.000000 380.000000"
 preserveAspectRatio="xMidYMid meet">
<metadata>
Created by potrace 1.14, written by Peter Selinger 2001-2017
</metadata>
<g transform="translate(0.000000,380.000000) scale(0.100000,-0.100000)"
fill="#000000" stroke="none">
<path d="M1243 3253 c-13 -2 -43 -24 -67 -48 -49 -48 -33 -44 -266 -60 -41 -3
-104 -7 -140 -10 -36 -3 -99 -7 -140 -10 -41 -3 -101 -8 -133 -11 -53 -4 -61
-2 -84 21 -31 30 -30 30 -122 5 -196 -55 -258 -197 -143 -330 51 -61 78 -71
148 -59 33 5 73 12 89 14 17 3 39 6 50 9 11 2 54 9 95 16 41 6 86 14 100 16
71 13 198 36 220 39 14 2 92 15 173 29 81 14 150 26 153 26 4 0 -24 -24 -62
-52 l-68 -53 -88 -350 c-48 -192 -90 -359 -92 -370 -5 -21 -233 -925 -288
-1140 -17 -66 -34 -136 -39 -155 -33 -140 -38 -167 -39 -181 0 -30 25 -50 72
-55 42 -5 48 -3 66 23 25 36 76 147 137 298 26 66 53 134 60 150 15 36 114
304 186 505 82 231 241 697 366 1070 63 190 118 348 121 352 4 3 27 9 52 13
25 3 88 12 140 20 52 8 115 16 140 20 25 3 56 8 70 10 14 3 39 7 55 10 17 2
76 14 130 25 117 23 146 25 140 8 -4 -13 -9 -35 -21 -108 -4 -19 -8 -42 -9
-50 -2 -8 -4 -20 -4 -26 -1 -5 -76 -61 -168 -123 -245 -165 -277 -189 -290
-220 -30 -70 26 -143 139 -180 96 -31 118 -33 160 -11 l36 19 -18 -67 c-10
-37 -52 -200 -94 -362 -210 -822 -192 -760 -212 -760 -36 0 -78 -156 -78 -295
-1 -87 2 -107 25 -155 43 -91 126 -155 219 -167 37 -5 44 -2 79 34 21 23 43
58 49 79 5 22 17 64 25 94 15 53 70 304 81 365 3 17 8 39 10 50 2 11 7 40 11
65 4 25 9 53 11 63 3 18 41 247 49 297 8 47 34 215 39 253 3 20 9 54 12 75 3
20 7 48 9 62 37 248 77 498 81 509 3 11 -8 12 -63 8 l-67 -6 29 25 c73 61 380
288 475 351 232 155 400 231 488 220 149 -17 194 -159 146 -462 -59 -374 -262
-712 -564 -938 -86 -65 -176 -117 -326 -187 -134 -64 -142 -69 -173 -121 -52
-84 -5 -195 144 -344 203 -202 653 -455 809 -455 24 0 56 23 56 40 0 19 -41
46 -86 58 -95 26 -293 180 -474 369 -163 170 -252 297 -227 322 6 6 15 11 20
11 5 0 63 27 128 60 383 193 741 524 901 835 84 163 119 306 114 465 -8 231
-96 399 -248 470 -80 37 -129 48 -220 48 -185 1 -411 -69 -700 -214 l-71 -36
7 44 c20 117 18 142 -9 168 -25 24 -32 25 -153 25 -114 -1 -213 -6 -367 -20
-105 -10 -163 -14 -260 -20 -55 -4 -113 -8 -128 -11 -18 -3 -38 3 -55 15 -57
40 -178 61 -259 44z"/>
</g>
</svg>
