<svg width="80" height="85" viewBox="0 0 80 85" fill="none" xmlns="http://www.w3.org/2000/svg">
<path d="M20.7998 53.245C21.2778 53.964 21.7418 54.65 22.1908 55.313C25.2409 59.8214 27.6679 63.4082 28.915 68.9988C28.9506 69.1582 28.9852 75.3193 29.0188 75.482C29.1818 76.27 29.8948 76.842 30.7138 76.842H48.8618C49.7028 76.842 50.4118 76.28 50.5468 75.506C50.5766 75.3349 50.6076 69.1658 50.6398 68.9988C51.7195 63.397 54.1584 60.0587 57.4968 55.488L58.6318 53.93C61.8898 49.422 63.2938 43.009 62.2988 37.193C60.7558 28.178 53.4438 21.054 44.1038 19.465C42.7288 19.231 41.3528 19.116 39.9898 19.116C34.4728 19.116 29.1678 21.001 24.9918 24.526C20.0988 28.657 17.2938 34.61 17.2938 40.859C17.2928 45.249 18.6358 49.995 20.7998 53.245Z" fill="#4464AD"/>
<path d="M47.7929 79.4252H31.7889C30.4869 79.4252 29.4219 80.4902 29.4219 81.7922C29.4219 83.0942 30.4869 84.1592 31.7889 84.1592H47.7929C49.0949 84.1592 50.1599 83.0942 50.1599 81.7922C50.1599 80.4902 49.0949 79.4252 47.7929 79.4252Z" fill="#4464AD"/>
<path d="M69.9848 56.074L74.7408 57.9C75.0888 58.034 75.4518 58.101 75.8228 58.101C77.0658 58.101 78.1998 57.322 78.6428 56.163C78.9328 55.41 78.9118 54.589 78.5828 53.851C78.2538 53.113 77.6588 52.548 76.9058 52.259L72.1488 50.434C71.3948 50.146 70.5768 50.165 69.8378 50.494C69.1008 50.822 68.5348 51.419 68.2458 52.172C67.9558 52.925 67.9768 53.745 68.3058 54.483C68.6358 55.221 69.2318 55.786 69.9848 56.074Z" fill="#4464AD"/>
<path d="M71.9848 35.207C72.2638 35.207 72.5448 35.167 72.8188 35.089L77.7158 33.685C78.4908 33.463 79.1338 32.953 79.5258 32.247C79.9168 31.541 80.0088 30.725 79.7868 29.949C79.5638 29.172 79.0518 28.528 78.3428 28.136C77.6378 27.746 76.8238 27.654 76.0508 27.878L71.1548 29.281C69.5528 29.74 68.6248 31.417 69.0838 33.017C69.4518 34.307 70.6448 35.207 71.9848 35.207Z" fill="#4464AD"/>
<path d="M58.2238 17.219C58.7498 17.616 59.3778 17.826 60.0388 17.826C60.9968 17.826 61.8768 17.388 62.4538 16.623L65.5188 12.555C66.0038 11.911 66.2098 11.117 66.0978 10.317C65.9858 9.518 65.5688 8.81 64.9238 8.325C63.5928 7.322 61.6948 7.592 60.6928 8.92L57.6278 12.989C56.6278 14.318 56.8938 16.216 58.2238 17.219Z" fill="#4464AD"/>
<path d="M7.75683 50.435L2.99983 52.26H2.99883C2.24583 52.549 1.64983 53.114 1.32183 53.852C0.993831 54.59 0.971831 55.411 1.26183 56.163C1.70483 57.323 2.83883 58.102 4.08183 58.102C4.45283 58.102 4.81583 58.035 5.16383 57.901L9.91883 56.075C10.6728 55.787 11.2698 55.221 11.5978 54.483C11.9258 53.746 11.9478 52.925 11.6578 52.173C11.3688 51.419 10.8038 50.822 10.0658 50.494C9.32783 50.165 8.50883 50.144 7.75683 50.435Z" fill="#4464AD"/>
<path d="M2.18883 33.685L7.08583 35.089C7.35983 35.167 7.64083 35.207 7.91983 35.207C9.25983 35.207 10.4528 34.307 10.8218 33.018C11.2808 31.417 10.3518 29.741 8.75083 29.282L3.85483 27.879C3.08183 27.655 2.26683 27.747 1.56283 28.137C0.85383 28.529 0.340831 29.172 0.118831 29.95C-0.104169 30.725 -0.0111696 31.542 0.37983 32.248C0.77083 32.952 1.41383 33.463 2.18883 33.685Z" fill="#4464AD"/>
<path d="M17.4508 16.623C18.0278 17.388 18.9078 17.826 19.8658 17.826C20.5268 17.826 21.1548 17.616 21.6808 17.219C23.0108 16.216 23.2778 14.319 22.2768 12.989L19.2118 8.92C18.2078 7.591 16.3098 7.324 14.9808 8.325C14.3358 8.81 13.9188 9.518 13.8068 10.317C13.6948 11.117 13.9008 11.912 14.3858 12.555L17.4508 16.623Z" fill="#4464AD"/>
<path d="M39.9528 11.136C41.6178 11.136 42.9738 9.781 42.9738 8.115V3.021C42.9738 1.356 41.6188 0 39.9528 0C38.2868 0 36.9318 1.355 36.9318 3.021V8.115C36.9318 9.78 38.2878 11.136 39.9528 11.136Z" fill="#4464AD"/>
</svg>
