<?xml version="1.0" encoding="UTF-8"?>
<svg width="327px" height="180px" viewBox="0 0 327 180" version="1.1" xmlns="http://www.w3.org/2000/svg" xmlns:xlink="http://www.w3.org/1999/xlink">
    <title>Group 2</title>
    <defs>
        <path d="M76.832244,7.10542736e-15 C78.8387189,7.10542736e-15 80.8451937,1.00813008 82.8516686,3.02439024 C90.3759493,13.6097561 117.671167,55.8291238 140.244009,80.0242457 C139.376803,83.5099836 138.3442,87.3824951 137.241512,91.3103712 L136.849573,92.6984397 C134.219317,101.96036 131.263133,111.312939 129.22265,116.439024 C127.424971,121.219318 121.977928,124 118.968216,124 L34.6962719,124 C31.6865596,124 26.2395172,121.219318 24.4418379,116.439024 C21.4321256,108.878049 16.4301916,92.1218067 13.4204793,80.0242457 C35.9933215,55.8291238 63.2885387,13.6097561 70.8128194,3.02439024 C72.8192943,1.00813008 74.8257691,7.10542736e-15 76.832244,7.10542736e-15 Z M88.1905568,49.7762047 C85.4418943,48.4839401 82.5450399,47.9716212 79.4998029,48.2380449 C75.0881635,48.6245915 71.317339,50.153936 68.1872163,52.8261244 C65.0570935,55.4983128 62.9843565,58.9033213 61.9689428,63.041252 L59.2165621,63.2824147 C58.2014946,63.3713546 57.3796279,63.7578439 56.7509373,64.4418943 C56.1222467,65.1259447 55.8505054,65.9556036 55.9357053,66.9308958 C56.0209051,67.906188 56.433224,68.6857372 57.1726744,69.2695666 C57.9121248,69.8533961 58.7893706,70.1008372 59.804438,70.0118973 L61.3270316,69.8784881 L61.5161743,72.043626 L59.9935807,72.1770352 C58.9785133,72.2659751 58.1566466,72.6524644 57.527956,73.3365148 C56.8992654,74.0205652 56.6273978,74.8502351 56.7127239,75.8255163 C56.7980499,76.8007974 57.2102427,77.5803576 57.9496931,78.1641871 C58.6891435,78.7480166 59.5663892,78.9954576 60.5814567,78.9065177 L63.3338374,78.665355 C65.0683377,82.7588906 67.7220535,85.779251 71.2950646,87.7265269 C74.8680756,89.6738028 78.8213004,90.4575765 83.1548577,90.0778718 C86.1610533,89.8148638 88.9445185,88.8040441 91.5054397,87.0465554 C92.0671996,86.7221621 92.4820856,86.2927129 92.7501101,85.7581948 C93.0181347,85.2236767 93.1249622,84.6443258 93.0703535,84.0201459 C92.9952666,83.1618985 92.6327113,82.3878165 91.9823435,81.6979059 C91.2046287,80.9012225 90.3082509,80.5473561 89.2931835,80.636296 C88.7466087,80.6841867 88.1355929,80.8949625 87.4601178,81.2686298 C86.0939826,82.2924669 84.4544337,82.8881853 82.5414219,83.0558028 C80.1208764,83.2678902 77.909827,82.9505955 75.9082074,82.1039091 C73.9065878,81.2572227 72.2528037,79.8887031 70.9468054,77.9983092 L78.3840894,77.3466567 C79.3991569,77.2577168 80.2201716,76.8614746 80.8471582,76.1579184 C81.4741448,75.4543621 81.7450341,74.6149505 81.6598343,73.6396583 C81.5746345,72.6643661 81.1631675,71.8945697 80.4254211,71.3302461 C79.6876747,70.7659225 78.811281,70.5282342 77.7962135,70.6171741 L68.6020907,71.4227602 C68.5391936,71.1530992 68.482186,70.7256874 68.4310661,70.1405121 L68.3543867,69.2627535 L77.6070708,68.4520362 C78.6221383,68.3630963 79.443153,67.9668542 80.0701396,67.2632979 C80.6971262,66.5597417 80.9680155,65.72033 80.8828157,64.7450378 C80.7976158,63.7697456 80.3861489,62.9999493 79.6484025,62.4356256 C78.9106561,61.871302 78.0342623,61.6336137 77.0191949,61.7225536 L69.6404721,62.369075 C70.56663,60.3617208 71.9384823,58.7280959 73.7560703,57.4681511 C75.5736582,56.2082063 77.6926931,55.4722013 80.1132387,55.2601138 C81.9091273,55.1027587 83.6270588,55.4042956 85.267085,56.1647339 C85.9614549,56.4576861 86.6404786,56.5750839 87.3041766,56.5169309 C88.280203,56.4314118 89.0447492,55.9516705 89.5978383,55.0776928 C90.1152942,54.2461476 90.338235,53.4207646 90.2666671,52.6015192 C90.1473873,51.2361101 89.4553575,50.294348 88.1905568,49.7762047 Z" id="path-1"></path>
    </defs>
    <g id="Content" stroke="none" stroke-width="1" fill="none" fill-rule="evenodd">
        <g id="Artboard" transform="translate(-187, -97)">
            <g id="Group-2" transform="translate(187, 97)">
                <g id="Group" transform="translate(87, -0)">
                    <path d="M76.832244,-7.10542736e-15 C78.8387189,-7.10542736e-15 80.8451937,1.00813008 82.8516686,3.02439024 C87.2746015,9.2466943 98.5290639,26.3996197 111.640165,44.396969 C113.649013,44.3823445 115.13441,44.155385 116.098076,43.7167598 C117.155424,43.4748343 123.778387,40.1912923 130.822722,36.9349972 L131.578851,36.5863525 L132.336798,36.2387551 C132.463196,36.1809561 132.589611,36.1232357 132.716014,36.0656113 L133.55667,35.683756 C138.595702,33.4034209 143.511866,31.3380222 146.440645,30.5998612 C154.006657,28.6929454 154.647783,34.9134454 153.619028,38.2102909 L139.280251,84.6829268 L139.108227,84.4545868 C138.28438,87.5839527 137.372198,90.889028 136.427255,94.1765825 L136.047663,95.4902118 C133.634179,103.798144 131.057995,111.828284 129.22265,116.439024 C127.424971,121.219318 121.977928,124 118.968216,124 L34.6962719,124 C31.6865596,124 26.2395172,121.219318 24.4418379,116.439024 C22.5868535,111.778947 19.9750914,103.625899 17.5394055,95.2234221 L17.1754898,93.9615853 C17.0547025,93.5406197 16.934472,93.119436 16.8149149,92.6984397 L16.4229761,91.3103712 C15.5772144,88.2976899 14.7726825,85.317579 14.0523878,82.5195761 L0.380971969,38.2102909 C-0.647782884,34.9134454 -0.00665697969,28.6929454 7.55935517,30.5998612 C10.4881341,31.3380222 15.4042977,33.4034209 20.4433296,35.683756 L21.2839862,36.0656113 L21.6632024,36.2387551 L22.4211494,36.5863525 L23.1772777,36.9349972 C30.2216132,40.1912923 36.8445759,43.4748343 37.9019239,43.7167598 C38.8116928,44.1308529 40.1864638,44.3562949 42.0262368,44.3930858 C55.1375097,26.396441 66.3902964,9.24611775 70.8128194,3.02439024 C72.8192943,1.00813008 74.8257691,-7.10542736e-15 76.832244,-7.10542736e-15 Z M88.1905568,49.7762047 C85.4418943,48.4839401 82.5450399,47.9716212 79.4998029,48.2380449 C75.0881635,48.6245915 71.317339,50.153936 68.1872163,52.8261244 C65.0570935,55.4983128 62.9843565,58.9033213 61.9689428,63.041252 L59.2165621,63.2824147 C58.2014946,63.3713546 57.3796279,63.7578439 56.7509373,64.4418943 C56.1222467,65.1259447 55.8505054,65.9556036 55.9357053,66.9308958 C56.0209051,67.906188 56.433224,68.6857372 57.1726744,69.2695666 C57.9121248,69.8533961 58.7893706,70.1008372 59.804438,70.0118973 L61.3270316,69.8784881 L61.5161743,72.043626 L59.9935807,72.1770352 C58.9785133,72.2659751 58.1566466,72.6524644 57.527956,73.3365148 C56.8992654,74.0205652 56.6273978,74.8502351 56.7127239,75.8255163 C56.7980499,76.8007974 57.2102427,77.5803576 57.9496931,78.1641871 C58.6891435,78.7480166 59.5663892,78.9954576 60.5814567,78.9065177 L63.3338374,78.665355 C65.0683377,82.7588906 67.7220535,85.779251 71.2950646,87.7265269 C74.8680756,89.6738028 78.8213004,90.4575765 83.1548577,90.0778718 C86.1610533,89.8148638 88.9445185,88.8040441 91.5054397,87.0465554 C92.0671996,86.7221621 92.4820856,86.2927129 92.7501101,85.7581948 C93.0181347,85.2236767 93.1249622,84.6443258 93.0703535,84.0201459 C92.9952666,83.1618985 92.6327113,82.3878165 91.9823435,81.6979059 C91.2046287,80.9012225 90.3082509,80.5473561 89.2931835,80.636296 C88.7466087,80.6841867 88.1355929,80.8949625 87.4601178,81.2686298 C86.0939826,82.2924669 84.4544337,82.8881853 82.5414219,83.0558028 C80.1208764,83.2678902 77.909827,82.9505955 75.9082074,82.1039091 C73.9065878,81.2572227 72.2528037,79.8887031 70.9468054,77.9983092 L78.3840894,77.3466567 C79.3991569,77.2577168 80.2201716,76.8614746 80.8471582,76.1579184 C81.4741448,75.4543621 81.7450341,74.6149505 81.6598343,73.6396583 C81.5746345,72.6643661 81.1631675,71.8945697 80.4254211,71.3302461 C79.6876747,70.7659225 78.811281,70.5282342 77.7962135,70.6171741 L68.6020907,71.4227602 C68.5391936,71.1530992 68.482186,70.7256874 68.4310661,70.1405121 L68.3543867,69.2627535 L77.6070708,68.4520362 C78.6221383,68.3630963 79.443153,67.9668542 80.0701396,67.2632979 C80.6971262,66.5597417 80.9680155,65.72033 80.8828157,64.7450378 C80.7976158,63.7697456 80.3861489,62.9999493 79.6484025,62.4356256 C78.9106561,61.871302 78.0342623,61.6336137 77.0191949,61.7225536 L69.6404721,62.369075 C70.56663,60.3617208 71.9384823,58.7280959 73.7560703,57.4681511 C75.5736582,56.2082063 77.6926931,55.4722013 80.1132387,55.2601138 C81.9091273,55.1027587 83.6270588,55.4042956 85.267085,56.1647339 C85.9614549,56.4576861 86.6404786,56.5750839 87.3041766,56.5169309 C88.280203,56.4314118 89.0447492,55.9516705 89.5978383,55.0776928 C90.1152942,54.2461476 90.338235,53.4207646 90.2666671,52.6015192 C90.1473873,51.2361101 89.4553575,50.294348 88.1905568,49.7762047 Z" id="Combined-Shape" fill="#FFFFFF" opacity="0.698823475"></path>
                    <mask id="mask-2" fill="white">
                        <use xlink:href="#path-1"></use>
                    </mask>
                    <use id="Combined-Shape" fill="#FFFFFF" opacity="0.701450893" xlink:href="#path-1"></use>
                </g>
                <text id="Title" font-family="Quicksand-Bold, Quicksand" font-size="28" font-weight="bold" line-spacing="40" letter-spacing="-0.653333336" fill="#FFFFFF">
                    <tspan x="52.004" y="168">Easy-pay Kleedj</tspan>
                    <tspan x="258.756" y="168">e</tspan>
                </text>
            </g>
        </g>
    </g>
</svg>