<svg width="232" height="174" viewBox="0 0 232 174" fill="none" xmlns="http://www.w3.org/2000/svg">
<path opacity="0.698823" fill-rule="evenodd" clip-rule="evenodd" d="M108.828 0C110.835 0 112.841 1.00813 114.848 3.02439C119.271 9.24669 130.525 26.3996 143.636 44.397C145.645 44.3823 147.13 44.1554 148.094 43.7168C149.152 43.4748 155.774 40.1913 162.819 36.935L163.575 36.5864L164.333 36.2388C164.459 36.181 164.586 36.1232 164.712 36.0656L165.553 35.6838C170.592 33.4034 175.508 31.338 178.437 30.5999C186.003 28.6929 186.644 34.9134 185.615 38.2103L171.276 84.6829L171.105 84.4527C170.52 86.6731 169.891 88.982 169.238 91.3104L168.846 92.6984L168.666 93.33L168.303 94.5928C165.817 103.216 163.12 111.662 161.219 116.439C159.421 121.219 153.974 124 150.964 124H66.6924C63.6827 124 58.2356 121.219 56.4379 116.439C54.5829 111.779 51.9712 103.626 49.5355 95.2234L49.1716 93.9616C49.0508 93.5406 48.9306 93.1194 48.811 92.6984L48.4191 91.3104C47.5733 88.2977 46.7688 85.3176 46.0485 82.5196L32.3771 38.2103C31.3483 34.9134 31.9894 28.6929 39.5554 30.5999C42.4842 31.338 47.4004 33.4034 52.4394 35.6838L53.2801 36.0656L53.6593 36.2388L54.4172 36.5864L55.1734 36.935C62.2177 40.1913 68.8407 43.4748 69.898 43.7168C70.8078 44.1309 72.1826 44.3563 74.0223 44.3931C87.1336 26.3964 98.3864 9.24612 102.809 3.02439C104.815 1.00813 106.822 0 108.828 0ZM120.187 49.7762C117.438 48.4839 114.541 47.9716 111.496 48.238C107.084 48.6246 103.313 50.1539 100.183 52.8261C97.0532 55.4983 94.9804 58.9033 93.965 63.0413L91.2126 63.2824C90.1976 63.3714 89.3757 63.7578 88.747 64.4419C88.1183 65.1259 87.8466 65.9556 87.9318 66.9309C88.017 67.9062 88.4293 68.6857 89.1688 69.2696C89.9082 69.8534 90.7855 70.1008 91.8005 70.0119L93.3231 69.8785L93.5123 72.0436L91.9897 72.177C90.9746 72.266 90.1527 72.6525 89.524 73.3365C88.8953 74.0206 88.6235 74.8502 88.7088 75.8255C88.7941 76.8008 89.2063 77.5804 89.9458 78.1642C90.6852 78.748 91.5625 78.9955 92.5775 78.9065L95.3299 78.6654C97.0644 82.7589 99.7181 85.7792 103.291 87.7265C106.864 89.6738 110.817 90.4576 115.151 90.0779C118.157 89.8149 120.941 88.804 123.502 87.0466C124.063 86.7222 124.478 86.2927 124.746 85.7582C125.014 85.2237 125.121 84.6443 125.066 84.0201C124.991 83.1619 124.629 82.3878 123.978 81.6979C123.201 80.9012 122.304 80.5474 121.289 80.6363C120.743 80.6842 120.132 80.895 119.456 81.2686C118.09 82.2925 116.451 82.8882 114.538 83.0558C112.117 83.2679 109.906 82.9506 107.904 82.1039C105.903 81.2572 104.249 79.8887 102.943 77.9983L110.38 77.3467C111.395 77.2577 112.216 76.8615 112.843 76.1579C113.47 75.4544 113.741 74.6149 113.656 73.6397C113.571 72.6644 113.159 71.8946 112.422 71.3302C111.684 70.7659 110.807 70.5282 109.792 70.6172L100.598 71.4228C100.535 71.1531 100.478 70.7257 100.427 70.1405L100.35 69.2628L109.603 68.452C110.618 68.3631 111.439 67.9669 112.066 67.2633C112.693 66.5597 112.964 65.7203 112.879 64.745C112.794 63.7697 112.382 63 111.644 62.4356C110.907 61.8713 110.03 61.6336 109.015 61.7226L101.637 62.3691C102.563 60.3617 103.935 58.7281 105.752 57.4682C107.57 56.2082 109.689 55.4722 112.109 55.2601C113.905 55.1028 115.623 55.4043 117.263 56.1647C117.958 56.4577 118.637 56.5751 119.3 56.5169C120.276 56.4314 121.041 55.9517 121.594 55.0777C122.111 54.2461 122.334 53.4208 122.263 52.6015C122.143 51.2361 121.451 50.2943 120.187 49.7762Z" fill="white"/>
<path opacity="0.701451" d="M108.83 0C110.836 0 112.843 1.00813 114.849 3.02439C122.373 13.6098 149.669 55.8291 172.241 80.0242C171.374 83.51 170.342 87.3825 169.239 91.3104L168.847 92.6984C168.727 93.1194 168.607 93.5406 168.486 93.9616L168.123 95.2234C165.687 103.626 163.075 111.779 161.22 116.439C159.422 121.219 153.975 124 150.966 124H66.6938C63.6841 124 58.237 121.219 56.4393 116.439C53.4296 108.878 48.4277 92.1218 45.418 80.0242C67.9908 55.8291 95.286 13.6098 102.81 3.02439C104.817 1.00813 106.823 0 108.83 0ZM120.188 49.7762C117.439 48.4839 114.543 47.9716 111.497 48.238C107.086 48.6246 103.315 50.1539 100.185 52.8261C97.0546 55.4983 94.9818 58.9033 93.9664 63.0413L91.214 63.2824C90.199 63.3714 89.3771 63.7578 88.7484 64.4419C88.1197 65.1259 87.848 65.9556 87.9332 66.9309C88.0184 67.9062 88.4307 68.6857 89.1702 69.2696C89.9096 69.8534 90.7869 70.1008 91.8019 70.0119L93.3245 69.8785L93.5137 72.0436L91.9911 72.177C90.976 72.266 90.1541 72.6525 89.5254 73.3365C88.8967 74.0206 88.6249 74.8502 88.7102 75.8255C88.7955 76.8008 89.2077 77.5804 89.9472 78.1642C90.6866 78.748 91.5639 78.9955 92.5789 78.9065L95.3313 78.6654C97.0658 82.7589 99.7195 85.7792 103.293 87.7265C106.866 89.6738 110.819 90.4576 115.152 90.0779C118.159 89.8149 120.942 88.804 123.503 87.0466C124.065 86.7222 124.48 86.2927 124.748 85.7582C125.016 85.2237 125.122 84.6443 125.068 84.0201C124.993 83.1619 124.63 82.3878 123.98 81.6979C123.202 80.9012 122.306 80.5474 121.291 80.6363C120.744 80.6842 120.133 80.895 119.458 81.2686C118.091 82.2925 116.452 82.8882 114.539 83.0558C112.118 83.2679 109.907 82.9506 107.906 82.1039C105.904 81.2572 104.25 79.8887 102.944 77.9983L110.382 77.3467C111.397 77.2577 112.218 76.8615 112.845 76.1579C113.472 75.4544 113.743 74.6149 113.657 73.6397C113.572 72.6644 113.161 71.8946 112.423 71.3302C111.685 70.7659 110.809 70.5282 109.794 70.6172L100.6 71.4228C100.537 71.1531 100.48 70.7257 100.429 70.1405L100.352 69.2628L109.605 68.452C110.62 68.3631 111.441 67.9669 112.068 67.2633C112.695 66.5597 112.965 65.7203 112.88 64.745C112.795 63.7697 112.384 63 111.646 62.4356C110.908 61.8713 110.032 61.6336 109.017 61.7226L101.638 62.3691C102.564 60.3617 103.936 58.7281 105.754 57.4682C107.571 56.2082 109.69 55.4722 112.111 55.2601C113.907 55.1028 115.625 55.4043 117.265 56.1647C117.959 56.4577 118.638 56.5751 119.302 56.5169C120.278 56.4314 121.042 55.9517 121.595 55.0777C122.113 54.2461 122.336 53.4208 122.264 52.6015C122.145 51.2361 121.453 50.2943 120.188 49.7762Z" fill="white"/>
<path d="M224.916 168.282C223.33 168.282 221.948 167.956 220.772 167.302C219.615 166.63 218.719 165.725 218.084 164.586C217.468 163.448 217.16 162.16 217.16 160.722C217.16 159.042 217.496 157.614 218.168 156.438C218.859 155.244 219.755 154.329 220.856 153.694C221.957 153.06 223.124 152.742 224.356 152.742C225.308 152.742 226.204 152.938 227.044 153.33C227.903 153.722 228.659 154.264 229.312 154.954C229.965 155.626 230.479 156.41 230.852 157.306C231.244 158.202 231.44 159.154 231.44 160.162C231.422 160.61 231.244 160.974 230.908 161.254C230.572 161.534 230.18 161.674 229.732 161.674H219.036L218.196 158.874H228.472L227.856 159.434V158.678C227.819 158.137 227.623 157.652 227.268 157.222C226.932 156.793 226.503 156.457 225.98 156.214C225.476 155.953 224.935 155.822 224.356 155.822C223.796 155.822 223.273 155.897 222.788 156.046C222.303 156.196 221.883 156.448 221.528 156.802C221.174 157.157 220.893 157.633 220.688 158.23C220.483 158.828 220.38 159.584 220.38 160.498C220.38 161.506 220.585 162.365 220.996 163.074C221.425 163.765 221.967 164.297 222.62 164.67C223.292 165.025 224.002 165.202 224.748 165.202C225.439 165.202 225.989 165.146 226.4 165.034C226.811 164.922 227.137 164.792 227.38 164.642C227.641 164.474 227.875 164.334 228.08 164.222C228.416 164.054 228.733 163.97 229.032 163.97C229.443 163.97 229.779 164.11 230.04 164.39C230.32 164.67 230.46 164.997 230.46 165.37C230.46 165.874 230.199 166.332 229.676 166.742C229.191 167.153 228.509 167.517 227.632 167.834C226.755 168.133 225.85 168.282 224.916 168.282Z" fill="white"/>
<path d="M213.93 168.283C213.93 169.347 213.724 170.262 213.314 171.027C212.903 171.811 212.352 172.418 211.662 172.847C210.971 173.276 210.196 173.491 209.338 173.491C208.871 173.491 208.498 173.332 208.218 173.015C207.919 172.716 207.77 172.352 207.77 171.923V171.615C207.77 171.204 207.91 170.878 208.19 170.635C208.451 170.392 208.787 170.206 209.198 170.075C209.646 169.926 209.963 169.711 210.15 169.431C210.336 169.17 210.448 168.852 210.486 168.479C210.542 168.106 210.57 167.714 210.57 167.303V154.731C210.57 154.246 210.728 153.844 211.046 153.527C211.363 153.191 211.764 153.023 212.25 153.023C212.735 153.023 213.136 153.191 213.454 153.527C213.771 153.844 213.93 154.246 213.93 154.731V168.283ZM212.194 151.203C211.559 151.203 211.111 151.1 210.85 150.895C210.588 150.69 210.458 150.326 210.458 149.803V149.271C210.458 148.73 210.598 148.366 210.878 148.179C211.176 147.974 211.624 147.871 212.222 147.871C212.875 147.871 213.332 147.974 213.594 148.179C213.855 148.384 213.986 148.748 213.986 149.271V149.803C213.986 150.344 213.846 150.718 213.566 150.923C213.286 151.11 212.828 151.203 212.194 151.203Z" fill="white"/>
<path d="M204.831 147.281C205.317 147.281 205.718 147.44 206.035 147.757C206.353 148.075 206.511 148.485 206.511 148.989V166.293C206.511 166.779 206.353 167.189 206.035 167.525C205.718 167.843 205.317 168.001 204.831 168.001C204.346 168.001 203.945 167.843 203.627 167.525C203.31 167.189 203.151 166.779 203.151 166.293V164.921L203.767 165.173C203.767 165.416 203.637 165.715 203.375 166.069C203.114 166.405 202.759 166.741 202.311 167.077C201.863 167.413 201.331 167.703 200.715 167.945C200.118 168.169 199.465 168.281 198.755 168.281C197.467 168.281 196.301 167.955 195.255 167.301C194.21 166.629 193.379 165.715 192.763 164.557C192.166 163.381 191.867 162.037 191.867 160.525C191.867 158.995 192.166 157.651 192.763 156.493C193.379 155.317 194.201 154.403 195.227 153.749C196.254 153.077 197.393 152.741 198.643 152.741C199.446 152.741 200.183 152.863 200.855 153.105C201.527 153.348 202.106 153.656 202.591 154.029C203.095 154.403 203.478 154.785 203.739 155.177C204.019 155.551 204.159 155.868 204.159 156.129L203.151 156.493V148.989C203.151 148.504 203.31 148.103 203.627 147.785C203.945 147.449 204.346 147.281 204.831 147.281ZM199.175 165.201C199.997 165.201 200.715 164.996 201.331 164.585C201.947 164.175 202.423 163.615 202.759 162.905C203.114 162.196 203.291 161.403 203.291 160.525C203.291 159.629 203.114 158.827 202.759 158.117C202.423 157.408 201.947 156.848 201.331 156.437C200.715 156.027 199.997 155.821 199.175 155.821C198.373 155.821 197.663 156.027 197.047 156.437C196.431 156.848 195.946 157.408 195.591 158.117C195.255 158.827 195.087 159.629 195.087 160.525C195.087 161.403 195.255 162.196 195.591 162.905C195.946 163.615 196.431 164.175 197.047 164.585C197.663 164.996 198.373 165.201 199.175 165.201Z" fill="white"/>
<path d="M183.108 168.282C181.521 168.282 180.14 167.956 178.964 167.302C177.806 166.63 176.91 165.725 176.276 164.586C175.66 163.448 175.352 162.16 175.352 160.722C175.352 159.042 175.688 157.614 176.36 156.438C177.05 155.244 177.946 154.329 179.048 153.694C180.149 153.06 181.316 152.742 182.548 152.742C183.5 152.742 184.396 152.938 185.236 153.33C186.094 153.722 186.85 154.264 187.504 154.954C188.157 155.626 188.67 156.41 189.044 157.306C189.436 158.202 189.632 159.154 189.632 160.162C189.613 160.61 189.436 160.974 189.1 161.254C188.764 161.534 188.372 161.674 187.924 161.674H177.228L176.388 158.874H186.664L186.048 159.434V158.678C186.01 158.137 185.814 157.652 185.46 157.222C185.124 156.793 184.694 156.457 184.172 156.214C183.668 155.953 183.126 155.822 182.548 155.822C181.988 155.822 181.465 155.897 180.98 156.046C180.494 156.196 180.074 156.448 179.72 156.802C179.365 157.157 179.085 157.633 178.88 158.23C178.674 158.828 178.572 159.584 178.572 160.498C178.572 161.506 178.777 162.365 179.188 163.074C179.617 163.765 180.158 164.297 180.812 164.67C181.484 165.025 182.193 165.202 182.94 165.202C183.63 165.202 184.181 165.146 184.592 165.034C185.002 164.922 185.329 164.792 185.572 164.642C185.833 164.474 186.066 164.334 186.272 164.222C186.608 164.054 186.925 163.97 187.224 163.97C187.634 163.97 187.97 164.11 188.232 164.39C188.512 164.67 188.652 164.997 188.652 165.37C188.652 165.874 188.39 166.332 187.868 166.742C187.382 167.153 186.701 167.517 185.824 167.834C184.946 168.133 184.041 168.282 183.108 168.282Z" fill="white"/>
<path d="M166.592 168.282C165.005 168.282 163.624 167.956 162.448 167.302C161.291 166.63 160.395 165.725 159.76 164.586C159.144 163.448 158.836 162.16 158.836 160.722C158.836 159.042 159.172 157.614 159.844 156.438C160.535 155.244 161.431 154.329 162.532 153.694C163.633 153.06 164.8 152.742 166.032 152.742C166.984 152.742 167.88 152.938 168.72 153.33C169.579 153.722 170.335 154.264 170.988 154.954C171.641 155.626 172.155 156.41 172.528 157.306C172.92 158.202 173.116 159.154 173.116 160.162C173.097 160.61 172.92 160.974 172.584 161.254C172.248 161.534 171.856 161.674 171.408 161.674H160.712L159.872 158.874H170.148L169.532 159.434V158.678C169.495 158.137 169.299 157.652 168.944 157.222C168.608 156.793 168.179 156.457 167.656 156.214C167.152 155.953 166.611 155.822 166.032 155.822C165.472 155.822 164.949 155.897 164.464 156.046C163.979 156.196 163.559 156.448 163.204 156.802C162.849 157.157 162.569 157.633 162.364 158.23C162.159 158.828 162.056 159.584 162.056 160.498C162.056 161.506 162.261 162.365 162.672 163.074C163.101 163.765 163.643 164.297 164.296 164.67C164.968 165.025 165.677 165.202 166.424 165.202C167.115 165.202 167.665 165.146 168.076 165.034C168.487 164.922 168.813 164.792 169.056 164.642C169.317 164.474 169.551 164.334 169.756 164.222C170.092 164.054 170.409 163.97 170.708 163.97C171.119 163.97 171.455 164.11 171.716 164.39C171.996 164.67 172.136 164.997 172.136 165.37C172.136 165.874 171.875 166.332 171.352 166.742C170.867 167.153 170.185 167.517 169.308 167.834C168.431 168.133 167.525 168.282 166.592 168.282Z" fill="white"/>
<path d="M155.903 166.293C155.903 166.779 155.735 167.189 155.399 167.525C155.082 167.843 154.68 168.001 154.195 168.001C153.728 168.001 153.336 167.843 153.019 167.525C152.702 167.189 152.543 166.779 152.543 166.293V148.989C152.543 148.504 152.702 148.103 153.019 147.785C153.355 147.449 153.766 147.281 154.251 147.281C154.736 147.281 155.128 147.449 155.427 147.785C155.744 148.103 155.903 148.504 155.903 148.989V166.293Z" fill="white"/>
<path d="M147.691 168.002C147.169 168.002 146.749 167.787 146.431 167.358L139.963 158.846L142.511 156.242L149.203 165.09C149.465 165.444 149.595 165.827 149.595 166.238C149.595 166.76 149.399 167.19 149.007 167.526C148.615 167.843 148.177 168.002 147.691 168.002ZM148.027 148.262C148.475 148.262 148.839 148.448 149.119 148.822C149.418 149.176 149.567 149.54 149.567 149.914C149.567 150.306 149.399 150.67 149.063 151.006L137.331 162.234L137.191 158.23L146.655 148.906C147.085 148.476 147.542 148.262 148.027 148.262ZM135.931 168.002C135.409 168.002 134.989 167.843 134.671 167.526C134.354 167.19 134.195 166.779 134.195 166.294V150.11C134.195 149.624 134.363 149.223 134.699 148.906C135.035 148.57 135.465 148.402 135.987 148.402C136.51 148.402 136.921 148.57 137.219 148.906C137.537 149.223 137.695 149.624 137.695 150.11V166.294C137.695 166.779 137.537 167.19 137.219 167.526C136.902 167.843 136.473 168.002 135.931 168.002Z" fill="white"/>
<path d="M120.749 153.02C121.234 153.02 121.635 153.188 121.953 153.524C122.27 153.841 122.429 154.242 122.429 154.728V166.628C122.429 168.345 122.102 169.708 121.449 170.716C120.814 171.742 119.955 172.48 118.873 172.928C117.79 173.376 116.577 173.6 115.233 173.6C114.635 173.6 114.001 173.553 113.329 173.46C112.657 173.366 112.106 173.226 111.677 173.04C111.117 172.797 110.725 172.489 110.501 172.116C110.295 171.761 110.258 171.378 110.389 170.968C110.557 170.426 110.827 170.053 111.201 169.848C111.574 169.661 111.966 169.642 112.377 169.792C112.675 169.885 113.067 170.025 113.553 170.212C114.038 170.417 114.598 170.52 115.233 170.52C116.091 170.52 116.801 170.398 117.361 170.156C117.939 169.932 118.369 169.54 118.649 168.98C118.947 168.438 119.097 167.692 119.097 166.74V164.864L119.685 165.536C119.367 166.152 118.966 166.665 118.481 167.076C118.014 167.468 117.454 167.766 116.801 167.972C116.147 168.177 115.401 168.28 114.561 168.28C113.571 168.28 112.703 168.056 111.957 167.608C111.229 167.141 110.659 166.506 110.249 165.704C109.838 164.882 109.633 163.949 109.633 162.904V154.728C109.633 154.242 109.791 153.841 110.109 153.524C110.426 153.188 110.827 153.02 111.313 153.02C111.798 153.02 112.199 153.188 112.517 153.524C112.834 153.841 112.993 154.242 112.993 154.728V161.896C112.993 163.109 113.254 163.968 113.777 164.472C114.318 164.957 115.065 165.2 116.017 165.2C116.67 165.2 117.221 165.078 117.669 164.836C118.117 164.574 118.462 164.201 118.705 163.716C118.947 163.212 119.069 162.605 119.069 161.896V154.728C119.069 154.242 119.227 153.841 119.545 153.524C119.862 153.188 120.263 153.02 120.749 153.02Z" fill="white"/>
<path d="M104.316 152.742C104.801 152.742 105.202 152.901 105.52 153.218C105.837 153.536 105.996 153.946 105.996 154.45V166.294C105.996 166.78 105.837 167.19 105.52 167.526C105.202 167.844 104.801 168.002 104.316 168.002C103.83 168.002 103.429 167.844 103.112 167.526C102.794 167.19 102.636 166.78 102.636 166.294V164.922L103.252 165.174C103.252 165.417 103.121 165.716 102.86 166.07C102.598 166.406 102.244 166.742 101.796 167.078C101.348 167.414 100.816 167.704 100.2 167.946C99.6022 168.17 98.9489 168.282 98.2396 168.282C96.9516 168.282 95.7849 167.956 94.7396 167.302C93.6942 166.63 92.8636 165.716 92.2476 164.558C91.6502 163.382 91.3516 162.038 91.3516 160.526C91.3516 158.996 91.6502 157.652 92.2476 156.494C92.8636 155.318 93.6849 154.404 94.7116 153.75C95.7382 153.078 96.8769 152.742 98.1276 152.742C98.9302 152.742 99.6676 152.864 100.34 153.106C101.012 153.349 101.59 153.657 102.076 154.03C102.58 154.404 102.962 154.786 103.224 155.178C103.504 155.552 103.644 155.869 103.644 156.13L102.636 156.494V154.45C102.636 153.965 102.794 153.564 103.112 153.246C103.429 152.91 103.83 152.742 104.316 152.742ZM98.6596 165.202C99.4809 165.202 100.2 164.997 100.816 164.586C101.432 164.176 101.908 163.616 102.244 162.906C102.598 162.197 102.776 161.404 102.776 160.526C102.776 159.63 102.598 158.828 102.244 158.118C101.908 157.409 101.432 156.849 100.816 156.438C100.2 156.028 99.4809 155.822 98.6596 155.822C97.8569 155.822 97.1476 156.028 96.5316 156.438C95.9156 156.849 95.4302 157.409 95.0756 158.118C94.7396 158.828 94.5716 159.63 94.5716 160.526C94.5716 161.404 94.7396 162.197 95.0756 162.906C95.4302 163.616 95.9156 164.176 96.5316 164.586C97.1476 164.997 97.8569 165.202 98.6596 165.202Z" fill="white"/>
<path d="M82.2248 152.742C83.5314 152.742 84.6981 153.078 85.7248 153.75C86.7701 154.404 87.5914 155.309 88.1888 156.466C88.8048 157.624 89.1128 158.968 89.1128 160.498C89.1128 162.029 88.8048 163.382 88.1888 164.558C87.5914 165.716 86.7794 166.63 85.7528 167.302C84.7448 167.956 83.6061 168.282 82.3368 168.282C81.5901 168.282 80.8901 168.161 80.2368 167.918C79.5834 167.676 79.0047 167.368 78.5007 166.994C78.0154 166.621 77.6328 166.248 77.3528 165.874C77.0914 165.482 76.9608 165.156 76.9608 164.894L77.8288 164.53V171.894C77.8288 172.38 77.6701 172.781 77.3528 173.098C77.0354 173.434 76.6341 173.602 76.1488 173.602C75.6634 173.602 75.2621 173.444 74.9447 173.126C74.6274 172.809 74.4688 172.398 74.4688 171.894V154.73C74.4688 154.245 74.6274 153.844 74.9447 153.526C75.2621 153.19 75.6634 153.022 76.1488 153.022C76.6341 153.022 77.0354 153.19 77.3528 153.526C77.6701 153.844 77.8288 154.245 77.8288 154.73V156.102L77.3528 155.85C77.3528 155.608 77.4834 155.318 77.7448 154.982C78.0061 154.628 78.3608 154.282 78.8088 153.946C79.2568 153.592 79.7701 153.302 80.3488 153.078C80.9461 152.854 81.5714 152.742 82.2248 152.742ZM81.8047 155.822C80.9834 155.822 80.2648 156.028 79.6488 156.438C79.0328 156.849 78.5474 157.409 78.1927 158.118C77.8567 158.809 77.6888 159.602 77.6888 160.498C77.6888 161.376 77.8567 162.178 78.1927 162.906C78.5474 163.616 79.0328 164.176 79.6488 164.586C80.2648 164.997 80.9834 165.202 81.8047 165.202C82.6261 165.202 83.3354 164.997 83.9328 164.586C84.5488 164.176 85.0248 163.616 85.3608 162.906C85.7154 162.178 85.8928 161.376 85.8928 160.498C85.8928 159.602 85.7154 158.809 85.3608 158.118C85.0248 157.409 84.5488 156.849 83.9328 156.438C83.3354 156.028 82.6261 155.822 81.8047 155.822Z" fill="white"/>
<path d="M64.6572 161.086C64.1719 161.086 63.7612 160.927 63.4252 160.61C63.1079 160.293 62.9492 159.891 62.9492 159.406C62.9492 158.921 63.1079 158.529 63.4252 158.23C63.7612 157.913 64.1719 157.754 64.6572 157.754H69.5292C70.0146 157.754 70.4159 157.922 70.7332 158.258C71.0692 158.575 71.2372 158.977 71.2372 159.462C71.2372 159.929 71.0692 160.321 70.7332 160.638C70.4159 160.937 70.0146 161.086 69.5292 161.086H64.6572Z" fill="white"/>
<path d="M58.0496 153.02C58.5349 153.02 58.9363 153.188 59.2536 153.524C59.5709 153.841 59.7296 154.242 59.7296 154.728V166.628C59.7296 168.345 59.4029 169.708 58.7496 170.716C58.1149 171.742 57.2563 172.48 56.1736 172.928C55.0909 173.376 53.8776 173.6 52.5336 173.6C51.9363 173.6 51.3016 173.553 50.6296 173.46C49.9576 173.366 49.4069 173.226 48.9776 173.04C48.4176 172.797 48.0256 172.489 47.8016 172.116C47.5963 171.761 47.5589 171.378 47.6896 170.968C47.8576 170.426 48.1283 170.053 48.5016 169.848C48.8749 169.661 49.2669 169.642 49.6776 169.792C49.9763 169.885 50.3683 170.025 50.8536 170.212C51.3389 170.417 51.8989 170.52 52.5336 170.52C53.3923 170.52 54.1016 170.398 54.6616 170.156C55.2403 169.932 55.6696 169.54 55.9496 168.98C56.2483 168.438 56.3976 167.692 56.3976 166.74V164.864L56.9856 165.536C56.6683 166.152 56.2669 166.665 55.7816 167.076C55.3149 167.468 54.7549 167.766 54.1016 167.972C53.4483 168.177 52.7016 168.28 51.8616 168.28C50.8723 168.28 50.0043 168.056 49.2576 167.608C48.5296 167.141 47.9603 166.506 47.5496 165.704C47.1389 164.882 46.9336 163.949 46.9336 162.904V154.728C46.9336 154.242 47.0923 153.841 47.4096 153.524C47.7269 153.188 48.1283 153.02 48.6136 153.02C49.0989 153.02 49.5003 153.188 49.8176 153.524C50.1349 153.841 50.2936 154.242 50.2936 154.728V161.896C50.2936 163.109 50.5549 163.968 51.0776 164.472C51.6189 164.957 52.3656 165.2 53.3176 165.2C53.9709 165.2 54.5216 165.078 54.9696 164.836C55.4176 164.574 55.7629 164.201 56.0056 163.716C56.2483 163.212 56.3696 162.605 56.3696 161.896V154.728C56.3696 154.242 56.5283 153.841 56.8456 153.524C57.1629 153.188 57.5643 153.02 58.0496 153.02Z" fill="white"/>
<path d="M32.5592 165.678C32.3726 165.417 32.2886 165.081 32.3072 164.67C32.3259 164.26 32.5686 163.905 33.0352 163.606C33.3339 163.42 33.6512 163.345 33.9872 163.382C34.3232 163.401 34.6499 163.569 34.9672 163.886C35.5086 164.428 36.0779 164.848 36.6752 165.146C37.2726 165.445 38.0192 165.594 38.9152 165.594C39.1952 165.576 39.5032 165.538 39.8392 165.482C40.1752 165.408 40.4646 165.258 40.7072 165.034C40.9686 164.792 41.0992 164.428 41.0992 163.942C41.0992 163.532 40.9592 163.205 40.6792 162.962C40.3992 162.72 40.0259 162.514 39.5592 162.346C39.1112 162.178 38.6072 162.02 38.0472 161.87C37.4686 161.702 36.8712 161.516 36.2552 161.31C35.6579 161.105 35.1072 160.844 34.6032 160.526C34.0992 160.19 33.6886 159.752 33.3712 159.21C33.0539 158.669 32.8952 157.988 32.8952 157.166C32.8952 156.233 33.1566 155.44 33.6792 154.786C34.2019 154.133 34.8739 153.629 35.6952 153.274C36.5352 152.92 37.4126 152.742 38.3272 152.742C38.9059 152.742 39.5126 152.817 40.1472 152.966C40.7819 153.097 41.3886 153.321 41.9672 153.638C42.5459 153.937 43.0312 154.338 43.4232 154.842C43.6286 155.122 43.7499 155.458 43.7872 155.85C43.8246 156.242 43.6472 156.597 43.2552 156.914C42.9752 157.138 42.6486 157.241 42.2752 157.222C41.9019 157.185 41.5939 157.054 41.3512 156.83C41.0339 156.42 40.6046 156.093 40.0632 155.85C39.5406 155.608 38.9339 155.486 38.2432 155.486C37.9632 155.486 37.6552 155.524 37.3192 155.598C37.0019 155.654 36.7219 155.794 36.4792 156.018C36.2366 156.224 36.1152 156.56 36.1152 157.026C36.1152 157.456 36.2552 157.801 36.5352 158.062C36.8152 158.305 37.1886 158.51 37.6552 158.678C38.1406 158.828 38.6539 158.977 39.1952 159.126C39.7552 159.276 40.3246 159.453 40.9032 159.658C41.4819 159.864 42.0139 160.134 42.4992 160.47C42.9846 160.806 43.3766 161.245 43.6752 161.786C43.9739 162.309 44.1232 162.981 44.1232 163.802C44.1232 164.754 43.8432 165.566 43.2832 166.238C42.7232 166.91 42.0232 167.424 41.1832 167.778C40.3432 168.114 39.4846 168.282 38.6072 168.282C37.5059 168.282 36.4046 168.096 35.3032 167.722C34.2019 167.33 33.2872 166.649 32.5592 165.678Z" fill="white"/>
<path d="M28.1085 152.742C28.5939 152.742 28.9952 152.901 29.3125 153.218C29.6299 153.536 29.7885 153.946 29.7885 154.45V166.294C29.7885 166.78 29.6299 167.19 29.3125 167.526C28.9952 167.844 28.5939 168.002 28.1085 168.002C27.6232 168.002 27.2219 167.844 26.9045 167.526C26.5872 167.19 26.4285 166.78 26.4285 166.294V164.922L27.0445 165.174C27.0445 165.417 26.9139 165.716 26.6525 166.07C26.3912 166.406 26.0365 166.742 25.5885 167.078C25.1405 167.414 24.6085 167.704 23.9925 167.946C23.3952 168.17 22.7419 168.282 22.0325 168.282C20.7445 168.282 19.5779 167.956 18.5325 167.302C17.4872 166.63 16.6565 165.716 16.0405 164.558C15.4432 163.382 15.1445 162.038 15.1445 160.526C15.1445 158.996 15.4432 157.652 16.0405 156.494C16.6565 155.318 17.4779 154.404 18.5045 153.75C19.5312 153.078 20.6699 152.742 21.9205 152.742C22.7232 152.742 23.4605 152.864 24.1325 153.106C24.8045 153.349 25.3832 153.657 25.8685 154.03C26.3725 154.404 26.7552 154.786 27.0165 155.178C27.2965 155.552 27.4365 155.869 27.4365 156.13L26.4285 156.494V154.45C26.4285 153.965 26.5872 153.564 26.9045 153.246C27.2219 152.91 27.6232 152.742 28.1085 152.742ZM22.4525 165.202C23.2739 165.202 23.9925 164.997 24.6085 164.586C25.2245 164.176 25.7005 163.616 26.0365 162.906C26.3912 162.197 26.5685 161.404 26.5685 160.526C26.5685 159.63 26.3912 158.828 26.0365 158.118C25.7005 157.409 25.2245 156.849 24.6085 156.438C23.9925 156.028 23.2739 155.822 22.4525 155.822C21.6499 155.822 20.9405 156.028 20.3245 156.438C19.7085 156.849 19.2232 157.409 18.8685 158.118C18.5325 158.828 18.3645 159.63 18.3645 160.526C18.3645 161.404 18.5325 162.197 18.8685 162.906C19.2232 163.616 19.7085 164.176 20.3245 164.586C20.9405 164.997 21.6499 165.202 22.4525 165.202Z" fill="white"/>
<path d="M1.80956 148.402H11.1896C11.6749 148.402 12.0762 148.561 12.3936 148.878C12.7296 149.177 12.8976 149.569 12.8976 150.054C12.8976 150.521 12.7296 150.904 12.3936 151.202C12.0762 151.482 11.6749 151.622 11.1896 151.622H3.34956L3.60156 151.146V156.606L3.37756 156.382H9.92956C10.4149 156.382 10.8162 156.541 11.1336 156.858C11.4696 157.157 11.6376 157.549 11.6376 158.034C11.6376 158.501 11.4696 158.884 11.1336 159.182C10.8162 159.462 10.4149 159.602 9.92956 159.602H3.46156L3.60156 159.378V165.034L3.37756 164.782H11.1896C11.6749 164.782 12.0762 164.95 12.3936 165.286C12.7296 165.604 12.8976 165.977 12.8976 166.406C12.8976 166.873 12.7296 167.256 12.3936 167.554C12.0762 167.853 11.6749 168.002 11.1896 168.002H1.80956C1.32423 168.002 0.913563 167.844 0.577563 167.526C0.260229 167.19 0.101562 166.78 0.101562 166.294V150.11C0.101562 149.625 0.260229 149.224 0.577563 148.906C0.913563 148.57 1.32423 148.402 1.80956 148.402Z" fill="white"/>
</svg>
