<svg width="252" height="182" viewBox="0 0 252 182" fill="none" xmlns="http://www.w3.org/2000/svg">
<rect width="252" height="182" rx="16" fill="#FFFAEB"/>
<rect x="24" y="24" width="42" height="42" rx="21" fill="#EBE4FF"/>
<path d="M44.384 45.312H42.248V43.32L46.76 39.168H39.464V36.456H50.6V38.904L46.328 42.84C49.016 43.368 51.104 45.336 51.104 48.432C51.104 52.032 48.296 54.312 44.744 54.312C41.312 54.312 38.648 52.2 38.648 48.408H41.672C41.672 50.424 42.92 51.576 44.792 51.576C46.712 51.576 47.984 50.328 47.984 48.384C47.984 46.608 46.832 45.312 44.384 45.312Z" fill="#7D76FF"/>
<path d="M29.04 107.312C26.52 107.312 24.984 105.848 24.984 103.616C24.984 101.432 26.568 100.064 29.376 99.848L32.928 99.584V99.32C32.928 97.712 31.968 97.064 30.48 97.064C28.752 97.064 27.792 97.784 27.792 99.032H25.296C25.296 96.464 27.408 94.784 30.624 94.784C33.816 94.784 35.784 96.512 35.784 99.8V107H33.216L33 105.248C32.496 106.472 30.888 107.312 29.04 107.312ZM30 105.104C31.8 105.104 32.952 104.024 32.952 102.2V101.576L30.48 101.768C28.656 101.936 27.96 102.536 27.96 103.496C27.96 104.576 28.68 105.104 30 105.104ZM41.1084 107H38.1804V95.144H40.8684L41.1084 96.536C41.7084 95.552 42.9084 94.784 44.6124 94.784C46.4124 94.784 47.6604 95.672 48.2844 97.04C48.8844 95.672 50.2764 94.784 52.0764 94.784C54.9564 94.784 56.5404 96.512 56.5404 99.248V107H53.6364V100.016C53.6364 98.312 52.7244 97.424 51.3324 97.424C49.9164 97.424 48.8364 98.336 48.8364 100.28V107H45.9084V99.992C45.9084 98.336 45.0204 97.448 43.6284 97.448C42.2364 97.448 41.1084 98.36 41.1084 100.28V107ZM58.2388 101.048C58.2388 97.352 60.9028 94.808 64.5748 94.808C68.2468 94.808 70.9108 97.352 70.9108 101.048C70.9108 104.744 68.2468 107.288 64.5748 107.288C60.9028 107.288 58.2388 104.744 58.2388 101.048ZM61.1668 101.048C61.1668 103.208 62.5588 104.672 64.5748 104.672C66.5908 104.672 67.9828 103.208 67.9828 101.048C67.9828 98.888 66.5908 97.424 64.5748 97.424C62.5588 97.424 61.1668 98.888 61.1668 101.048ZM80.5104 95.144H83.4384V107H80.7264L80.5104 105.416C79.7904 106.544 78.2544 107.312 76.6704 107.312C73.9344 107.312 72.3264 105.464 72.3264 102.56V95.144H75.2544V101.528C75.2544 103.784 76.1424 104.696 77.7744 104.696C79.6224 104.696 80.5104 103.616 80.5104 101.36V95.144ZM88.9106 107H85.9826V95.144H88.6946L88.9346 96.68C89.6786 95.48 91.1186 94.784 92.7266 94.784C95.7026 94.784 97.2386 96.632 97.2386 99.704V107H94.3106V100.4C94.3106 98.408 93.3266 97.448 91.8146 97.448C90.0146 97.448 88.9106 98.696 88.9106 100.616V107ZM103.667 107H100.739V97.592H98.4594V95.144H100.739V91.448H103.667V95.144H105.971V97.592H103.667V107Z" fill="#212121"/>
<path d="M31.224 136H25.218V125.976H31.21V126.9H26.226V130.512H30.748V131.422H26.226V135.076H31.224V136ZM34.0267 136H33.0607V129.224H33.9007L34.0407 130.4C34.4887 129.532 35.3847 129.042 36.3647 129.042C38.2267 129.042 38.9967 130.148 38.9967 131.856V136H38.0307V132.066C38.0307 130.484 37.3167 129.924 36.1967 129.924C34.8107 129.924 34.0267 130.932 34.0267 132.458V136ZM42.4761 136H41.5241V130.036H40.1661V129.224H41.5241V127.082H42.4761V129.224H43.8341V130.036H42.4761V136ZM47.8656 136.168C45.8776 136.168 44.5476 134.74 44.5476 132.612C44.5476 130.498 45.8636 129.042 47.7956 129.042C49.6296 129.042 50.8756 130.344 50.8756 132.262V132.738H45.4856C45.5556 134.39 46.4236 135.342 47.8796 135.342C48.9856 135.342 49.6996 134.866 49.9516 133.97H50.8756C50.5116 135.398 49.4616 136.168 47.8656 136.168ZM47.7956 129.868C46.5216 129.868 45.6816 130.708 45.5136 132.038H49.9096C49.9096 130.736 49.0696 129.868 47.7956 129.868ZM55.9621 129.14V130.008H55.4301C54.1841 130.008 53.3861 130.848 53.3861 132.136V136H52.4201V129.224H53.3301L53.4001 130.274C53.6661 129.546 54.3801 129.07 55.3321 129.07C55.5421 129.07 55.7241 129.084 55.9621 129.14ZM63.0751 136.168C61.6331 136.168 60.7791 135.356 60.7791 134.166C60.7791 132.92 61.7311 132.136 63.3131 132.01L65.5531 131.828V131.604C65.5531 130.274 64.7551 129.854 63.7611 129.854C62.5851 129.854 61.8851 130.386 61.8851 131.296H61.0031C61.0031 129.924 62.1231 129.042 63.7891 129.042C65.3571 129.042 66.5051 129.826 66.5051 131.618V136H65.6931L65.5671 134.81C65.1471 135.664 64.2231 136.168 63.0751 136.168ZM63.2991 135.384C64.7271 135.384 65.5531 134.39 65.5531 132.92V132.556L63.5511 132.71C62.2771 132.822 61.7591 133.382 61.7591 134.138C61.7591 134.964 62.3751 135.384 63.2991 135.384ZM69.4095 136H68.4435V129.224H69.2835L69.3955 130.19C69.7315 129.476 70.4875 129.042 71.4395 129.042C72.5035 129.042 73.3015 129.602 73.6235 130.484C73.9315 129.602 74.7575 129.042 75.8495 129.042C77.3195 129.042 78.2855 129.994 78.2855 131.562V136H77.3475V131.758C77.3475 130.596 76.7035 129.91 75.6675 129.91C74.5335 129.91 73.8615 130.764 73.8615 131.814V136H72.9095V131.744C72.9095 130.596 72.2515 129.924 71.2295 129.924C70.0955 129.924 69.4095 130.764 69.4095 131.8V136ZM79.7527 132.612C79.7527 130.54 81.2087 129.042 83.1967 129.042C85.1847 129.042 86.6407 130.54 86.6407 132.612C86.6407 134.67 85.1847 136.168 83.1967 136.168C81.2087 136.168 79.7527 134.67 79.7527 132.612ZM80.7327 132.598C80.7327 134.194 81.7407 135.3 83.1967 135.3C84.6387 135.3 85.6607 134.194 85.6607 132.598C85.6607 131.03 84.6387 129.91 83.1967 129.91C81.7407 129.91 80.7327 131.03 80.7327 132.598ZM92.7817 129.224H93.7477V136H92.9077L92.7817 134.852C92.4037 135.636 91.4657 136.168 90.4017 136.168C88.8057 136.168 87.9377 135.076 87.9377 133.424V129.21H88.9177V133.116C88.9177 134.726 89.6317 135.3 90.7097 135.3C92.0117 135.3 92.7817 134.432 92.7817 132.822V129.224ZM96.726 136H95.76V129.224H96.6L96.74 130.4C97.188 129.532 98.084 129.042 99.064 129.042C100.926 129.042 101.696 130.148 101.696 131.856V136H100.73V132.066C100.73 130.484 100.016 129.924 98.896 129.924C97.51 129.924 96.726 130.932 96.726 132.458V136ZM105.175 136H104.223V130.036H102.865V129.224H104.223V127.082H105.175V129.224H106.533V130.036H105.175V136ZM113.62 136.168C112.178 136.168 111.324 135.356 111.324 134.166C111.324 132.92 112.276 132.136 113.858 132.01L116.098 131.828V131.604C116.098 130.274 115.3 129.854 114.306 129.854C113.13 129.854 112.43 130.386 112.43 131.296H111.548C111.548 129.924 112.668 129.042 114.334 129.042C115.902 129.042 117.05 129.826 117.05 131.618V136H116.238L116.112 134.81C115.692 135.664 114.768 136.168 113.62 136.168ZM113.844 135.384C115.272 135.384 116.098 134.39 116.098 132.92V132.556L114.096 132.71C112.822 132.822 112.304 133.382 112.304 134.138C112.304 134.964 112.92 135.384 113.844 135.384ZM119.954 136H118.988V129.224H119.828L119.968 130.4C120.416 129.532 121.312 129.042 122.292 129.042C124.154 129.042 124.924 130.148 124.924 131.856V136H123.958V132.066C123.958 130.484 123.244 129.924 122.124 129.924C120.738 129.924 119.954 130.932 119.954 132.458V136ZM129.51 136.168C127.536 136.168 126.374 134.656 126.374 132.626C126.374 130.582 127.536 129.042 129.552 129.042C130.672 129.042 131.568 129.532 132.044 130.512V125.794H133.01V136H132.17L132.072 134.614C131.596 135.664 130.644 136.168 129.51 136.168ZM129.678 135.286C131.162 135.286 132.03 134.166 132.03 132.598C132.03 131.044 131.162 129.91 129.678 129.91C128.208 129.91 127.354 131.044 127.354 132.598C127.354 134.166 128.208 135.286 129.678 135.286ZM138.334 134.096H139.258C139.258 134.88 139.846 135.37 140.798 135.37C141.848 135.37 142.464 134.922 142.464 134.194C142.464 133.634 142.184 133.312 141.386 133.116L140.224 132.822C139.048 132.528 138.474 131.912 138.474 130.988C138.474 129.798 139.468 129.042 140.924 129.042C142.352 129.042 143.276 129.826 143.318 131.086H142.38C142.352 130.302 141.806 129.84 140.896 129.84C139.944 129.84 139.412 130.246 139.412 130.974C139.412 131.492 139.776 131.856 140.518 132.038L141.68 132.332C142.856 132.626 143.388 133.172 143.388 134.152C143.388 135.37 142.352 136.168 140.812 136.168C139.286 136.168 138.334 135.356 138.334 134.096ZM144.503 132.626C144.503 130.498 145.805 129.042 147.779 129.042C149.347 129.042 150.495 129.952 150.761 131.352H149.795C149.543 130.414 148.731 129.896 147.793 129.896C146.421 129.896 145.455 130.946 145.455 132.612C145.455 134.222 146.351 135.3 147.723 135.3C148.731 135.3 149.543 134.74 149.809 133.872H150.789C150.467 135.258 149.263 136.168 147.723 136.168C145.805 136.168 144.503 134.754 144.503 132.626ZM153.218 135.986H152.252V125.794H153.218V130.4C153.652 129.588 154.478 129.042 155.612 129.042C157.39 129.042 158.188 130.148 158.188 131.856V136H157.222V132.066C157.222 130.484 156.48 129.924 155.43 129.924C153.974 129.924 153.218 131.002 153.218 132.304V135.986ZM162.955 136.168C160.967 136.168 159.637 134.74 159.637 132.612C159.637 130.498 160.953 129.042 162.885 129.042C164.719 129.042 165.965 130.344 165.965 132.262V132.738H160.575C160.645 134.39 161.513 135.342 162.969 135.342C164.075 135.342 164.789 134.866 165.041 133.97H165.965C165.601 135.398 164.551 136.168 162.955 136.168ZM162.885 129.868C161.611 129.868 160.771 130.708 160.603 132.038H164.999C164.999 130.736 164.159 129.868 162.885 129.868ZM170.17 136.168C168.196 136.168 167.034 134.656 167.034 132.626C167.034 130.582 168.196 129.042 170.212 129.042C171.332 129.042 172.228 129.532 172.704 130.512V125.794H173.67V136H172.83L172.732 134.614C172.256 135.664 171.304 136.168 170.17 136.168ZM170.338 135.286C171.822 135.286 172.69 134.166 172.69 132.598C172.69 131.044 171.822 129.91 170.338 129.91C168.868 129.91 168.014 131.044 168.014 132.598C168.014 134.166 168.868 135.286 170.338 135.286ZM180.446 129.224H181.412V136H180.572L180.446 134.852C180.068 135.636 179.13 136.168 178.066 136.168C176.47 136.168 175.602 135.076 175.602 133.424V129.21H176.582V133.116C176.582 134.726 177.296 135.3 178.374 135.3C179.676 135.3 180.446 134.432 180.446 132.822V129.224ZM184.432 136H183.466V125.794H184.432V136ZM189.329 136.168C187.341 136.168 186.011 134.74 186.011 132.612C186.011 130.498 187.327 129.042 189.259 129.042C191.093 129.042 192.339 130.344 192.339 132.262V132.738H186.949C187.019 134.39 187.887 135.342 189.343 135.342C190.449 135.342 191.163 134.866 191.415 133.97H192.339C191.975 135.398 190.925 136.168 189.329 136.168ZM189.259 129.868C187.985 129.868 187.145 130.708 186.977 132.038H191.373C191.373 130.736 190.533 129.868 189.259 129.868ZM25.484 145.362C25.092 145.362 24.77 145.04 24.77 144.648C24.77 144.256 25.092 143.92 25.484 143.92C25.876 143.92 26.212 144.256 26.212 144.648C26.212 145.04 25.876 145.362 25.484 145.362ZM25.008 154V147.224H25.974V154H25.008ZM27.2325 147.224H28.2685V145.908C28.2685 144.382 29.1085 143.794 30.1445 143.794C30.3825 143.794 30.6625 143.808 30.8865 143.85V144.676H30.3125C29.4585 144.676 29.2345 145.11 29.2345 145.908V147.224H30.8305V148.036H29.2345V154H28.2685V148.036H27.2325V147.224ZM36.9935 154H36.0275V147.224H36.8675L37.0075 148.4C37.4555 147.532 38.3515 147.042 39.3315 147.042C41.1935 147.042 41.9635 148.148 41.9635 149.856V154H40.9975V150.066C40.9975 148.484 40.2835 147.924 39.1635 147.924C37.7775 147.924 36.9935 148.932 36.9935 150.458V154ZM46.7309 154.168C44.7429 154.168 43.4129 152.74 43.4129 150.612C43.4129 148.498 44.7289 147.042 46.6609 147.042C48.4949 147.042 49.7409 148.344 49.7409 150.262V150.738H44.3509C44.4209 152.39 45.2889 153.342 46.7449 153.342C47.8509 153.342 48.5649 152.866 48.8169 151.97H49.7409C49.3769 153.398 48.3269 154.168 46.7309 154.168ZM46.6609 147.868C45.3869 147.868 44.5469 148.708 44.3789 150.038H48.7749C48.7749 148.736 47.9349 147.868 46.6609 147.868ZM54.1273 154.168C52.1393 154.168 50.8093 152.74 50.8093 150.612C50.8093 148.498 52.1253 147.042 54.0573 147.042C55.8913 147.042 57.1373 148.344 57.1373 150.262V150.738H51.7473C51.8173 152.39 52.6853 153.342 54.1413 153.342C55.2473 153.342 55.9613 152.866 56.2133 151.97H57.1373C56.7733 153.398 55.7233 154.168 54.1273 154.168ZM54.0573 147.868C52.7833 147.868 51.9433 148.708 51.7753 150.038H56.1713C56.1713 148.736 55.3313 147.868 54.0573 147.868ZM61.3418 154.168C59.3678 154.168 58.2058 152.656 58.2058 150.626C58.2058 148.582 59.3678 147.042 61.3838 147.042C62.5038 147.042 63.3998 147.532 63.8758 148.512V143.794H64.8418V154H64.0018L63.9038 152.614C63.4278 153.664 62.4758 154.168 61.3418 154.168ZM61.5098 153.286C62.9938 153.286 63.8618 152.166 63.8618 150.598C63.8618 149.044 62.9938 147.91 61.5098 147.91C60.0398 147.91 59.1858 149.044 59.1858 150.598C59.1858 152.166 60.0398 153.286 61.5098 153.286ZM69.6996 154.168C67.7116 154.168 66.3816 152.74 66.3816 150.612C66.3816 148.498 67.6976 147.042 69.6296 147.042C71.4636 147.042 72.7096 148.344 72.7096 150.262V150.738H67.3196C67.3896 152.39 68.2576 153.342 69.7136 153.342C70.8196 153.342 71.5336 152.866 71.7856 151.97H72.7096C72.3456 153.398 71.2956 154.168 69.6996 154.168ZM69.6296 147.868C68.3556 147.868 67.5156 148.708 67.3476 150.038H71.7436C71.7436 148.736 70.9036 147.868 69.6296 147.868ZM76.9141 154.168C74.9401 154.168 73.7781 152.656 73.7781 150.626C73.7781 148.582 74.9401 147.042 76.9561 147.042C78.0761 147.042 78.9721 147.532 79.4481 148.512V143.794H80.4141V154H79.5741L79.4761 152.614C79.0001 153.664 78.0481 154.168 76.9141 154.168ZM77.0821 153.286C78.5661 153.286 79.4341 152.166 79.4341 150.598C79.4341 149.044 78.5661 147.91 77.0821 147.91C75.6121 147.91 74.7581 149.044 74.7581 150.598C74.7581 152.166 75.6121 153.286 77.0821 153.286ZM83.2559 154.154C82.7799 154.154 82.3739 153.762 82.3739 153.3C82.3739 152.824 82.7799 152.418 83.2559 152.418C83.7319 152.418 84.1379 152.824 84.1379 153.3C84.1379 153.762 83.7319 154.154 83.2559 154.154Z" fill="#423E30"/>
</svg>
