<svg width="252" height="182" viewBox="0 0 252 182" fill="none" xmlns="http://www.w3.org/2000/svg">
<rect width="252" height="182" rx="16" fill="#FFFAEB"/>
<rect x="24" y="24" width="42" height="42" rx="21" fill="#EBE4FF"/>
<path d="M44.8748 39.216H41.0348V36.456H47.8268V54H44.8748V39.216Z" fill="#7D76FF"/>
<path d="M29.04 107.312C26.52 107.312 24.984 105.848 24.984 103.616C24.984 101.432 26.568 100.064 29.376 99.848L32.928 99.584V99.32C32.928 97.712 31.968 97.064 30.48 97.064C28.752 97.064 27.792 97.784 27.792 99.032H25.296C25.296 96.464 27.408 94.784 30.624 94.784C33.816 94.784 35.784 96.512 35.784 99.8V107H33.216L33 105.248C32.496 106.472 30.888 107.312 29.04 107.312ZM30 105.104C31.8 105.104 32.952 104.024 32.952 102.2V101.576L30.48 101.768C28.656 101.936 27.96 102.536 27.96 103.496C27.96 104.576 28.68 105.104 30 105.104ZM37.4844 101.048C37.4844 97.376 39.9084 94.784 43.4124 94.784C46.6524 94.784 48.8604 96.584 49.1724 99.44H46.2444C45.9084 98.096 44.9244 97.4 43.5324 97.4C41.6604 97.4 40.4124 98.816 40.4124 101.048C40.4124 103.28 41.5644 104.672 43.4364 104.672C44.9004 104.672 45.9324 103.952 46.2444 102.656H49.1964C48.8364 105.416 46.5324 107.312 43.4364 107.312C39.8364 107.312 37.4844 104.816 37.4844 101.048ZM50.1998 101.048C50.1998 97.376 52.6238 94.784 56.1278 94.784C59.3678 94.784 61.5758 96.584 61.8878 99.44H58.9598C58.6238 98.096 57.6398 97.4 56.2478 97.4C54.3758 97.4 53.1278 98.816 53.1278 101.048C53.1278 103.28 54.2798 104.672 56.1518 104.672C57.6158 104.672 58.6478 103.952 58.9598 102.656H61.9118C61.5518 105.416 59.2478 107.312 56.1518 107.312C52.5518 107.312 50.1998 104.816 50.1998 101.048ZM62.9151 101.048C62.9151 97.352 65.5791 94.808 69.2511 94.808C72.9231 94.808 75.5871 97.352 75.5871 101.048C75.5871 104.744 72.9231 107.288 69.2511 107.288C65.5791 107.288 62.9151 104.744 62.9151 101.048ZM65.8431 101.048C65.8431 103.208 67.2351 104.672 69.2511 104.672C71.2671 104.672 72.6591 103.208 72.6591 101.048C72.6591 98.888 71.2671 97.424 69.2511 97.424C67.2351 97.424 65.8431 98.888 65.8431 101.048ZM85.1867 95.144H88.1147V107H85.4027L85.1867 105.416C84.4667 106.544 82.9307 107.312 81.3467 107.312C78.6107 107.312 77.0027 105.464 77.0027 102.56V95.144H79.9307V101.528C79.9307 103.784 80.8187 104.696 82.4507 104.696C84.2987 104.696 85.1867 103.616 85.1867 101.36V95.144ZM93.5869 107H90.6589V95.144H93.3709L93.6109 96.68C94.3549 95.48 95.7949 94.784 97.4029 94.784C100.379 94.784 101.915 96.632 101.915 99.704V107H98.9869V100.4C98.9869 98.408 98.0029 97.448 96.4909 97.448C94.6909 97.448 93.5869 98.696 93.5869 100.616V107ZM108.344 107H105.416V97.592H103.136V95.144H105.416V91.448H108.344V95.144H110.648V97.592H108.344V107Z" fill="#212121"/>
<path d="M29.306 136.154C26.506 136.154 24.602 134.068 24.602 130.988C24.602 127.908 26.534 125.808 29.362 125.808C31.518 125.808 33.212 127.11 33.618 129.098H32.54C32.12 127.656 30.888 126.774 29.32 126.774C27.122 126.774 25.652 128.454 25.652 130.988C25.652 133.508 27.122 135.188 29.32 135.188C30.902 135.188 32.162 134.334 32.596 132.99H33.674C33.212 134.88 31.462 136.154 29.306 136.154ZM36.1049 135.986H35.1389V125.794H36.1049V130.4C36.5389 129.588 37.3649 129.042 38.4989 129.042C40.2769 129.042 41.0749 130.148 41.0749 131.856V136H40.1089V132.066C40.1089 130.484 39.3669 129.924 38.3169 129.924C36.8609 129.924 36.1049 131.002 36.1049 132.304V135.986ZM42.5242 132.612C42.5242 130.54 43.9802 129.042 45.9682 129.042C47.9562 129.042 49.4122 130.54 49.4122 132.612C49.4122 134.67 47.9562 136.168 45.9682 136.168C43.9802 136.168 42.5242 134.67 42.5242 132.612ZM43.5042 132.598C43.5042 134.194 44.5122 135.3 45.9682 135.3C47.4102 135.3 48.4322 134.194 48.4322 132.598C48.4322 131.03 47.4102 129.91 45.9682 129.91C44.5122 129.91 43.5042 131.03 43.5042 132.598ZM50.4812 132.612C50.4812 130.54 51.9372 129.042 53.9252 129.042C55.9132 129.042 57.3692 130.54 57.3692 132.612C57.3692 134.67 55.9132 136.168 53.9252 136.168C51.9372 136.168 50.4812 134.67 50.4812 132.612ZM51.4612 132.598C51.4612 134.194 52.4692 135.3 53.9252 135.3C55.3672 135.3 56.3892 134.194 56.3892 132.598C56.3892 131.03 55.3672 129.91 53.9252 129.91C52.4692 129.91 51.4612 131.03 51.4612 132.598ZM58.3403 134.096H59.2643C59.2643 134.88 59.8523 135.37 60.8043 135.37C61.8543 135.37 62.4703 134.922 62.4703 134.194C62.4703 133.634 62.1903 133.312 61.3923 133.116L60.2303 132.822C59.0543 132.528 58.4803 131.912 58.4803 130.988C58.4803 129.798 59.4743 129.042 60.9303 129.042C62.3583 129.042 63.2823 129.826 63.3243 131.086H62.3863C62.3583 130.302 61.8123 129.84 60.9023 129.84C59.9503 129.84 59.4183 130.246 59.4183 130.974C59.4183 131.492 59.7823 131.856 60.5243 132.038L61.6863 132.332C62.8623 132.626 63.3943 133.172 63.3943 134.152C63.3943 135.37 62.3583 136.168 60.8183 136.168C59.2923 136.168 58.3403 135.356 58.3403 134.096ZM67.8266 136.168C65.8386 136.168 64.5086 134.74 64.5086 132.612C64.5086 130.498 65.8246 129.042 67.7566 129.042C69.5906 129.042 70.8366 130.344 70.8366 132.262V132.738H65.4466C65.5166 134.39 66.3846 135.342 67.8406 135.342C68.9466 135.342 69.6606 134.866 69.9126 133.97H70.8366C70.4726 135.398 69.4226 136.168 67.8266 136.168ZM67.7566 129.868C66.4826 129.868 65.6426 130.708 65.4746 132.038H69.8706C69.8706 130.736 69.0306 129.868 67.7566 129.868ZM75.6899 134.096H76.6139C76.6139 134.88 77.2019 135.37 78.1539 135.37C79.2039 135.37 79.8199 134.922 79.8199 134.194C79.8199 133.634 79.5399 133.312 78.7419 133.116L77.5799 132.822C76.4039 132.528 75.8299 131.912 75.8299 130.988C75.8299 129.798 76.8239 129.042 78.2799 129.042C79.7079 129.042 80.6319 129.826 80.6739 131.086H79.7359C79.7079 130.302 79.1619 129.84 78.2519 129.84C77.2999 129.84 76.7679 130.246 76.7679 130.974C76.7679 131.492 77.1319 131.856 77.8739 132.038L79.0359 132.332C80.2119 132.626 80.7439 133.172 80.7439 134.152C80.7439 135.37 79.7079 136.168 78.1679 136.168C76.6419 136.168 75.6899 135.356 75.6899 134.096ZM85.1762 136.168C83.1882 136.168 81.8582 134.74 81.8582 132.612C81.8582 130.498 83.1742 129.042 85.1062 129.042C86.9402 129.042 88.1862 130.344 88.1862 132.262V132.738H82.7962C82.8662 134.39 83.7342 135.342 85.1902 135.342C86.2962 135.342 87.0102 134.866 87.2622 133.97H88.1862C87.8222 135.398 86.7722 136.168 85.1762 136.168ZM85.1062 129.868C83.8322 129.868 82.9922 130.708 82.8242 132.038H87.2202C87.2202 130.736 86.3802 129.868 85.1062 129.868ZM90.6967 136H89.7307V129.224H90.5707L90.7107 130.4C91.1587 129.532 92.0547 129.042 93.0347 129.042C94.8967 129.042 95.6667 130.148 95.6667 131.856V136H94.7007V132.066C94.7007 130.484 93.9867 129.924 92.8667 129.924C91.4807 129.924 90.6967 130.932 90.6967 132.458V136ZM100.252 136.168C98.278 136.168 97.116 134.656 97.116 132.626C97.116 130.582 98.278 129.042 100.294 129.042C101.414 129.042 102.31 129.532 102.786 130.512V125.794H103.752V136H102.912L102.814 134.614C102.338 135.664 101.386 136.168 100.252 136.168ZM100.42 135.286C101.904 135.286 102.772 134.166 102.772 132.598C102.772 131.044 101.904 129.91 100.42 129.91C98.95 129.91 98.096 131.044 98.096 132.598C98.096 134.166 98.95 135.286 100.42 135.286ZM106.244 127.362C105.852 127.362 105.53 127.04 105.53 126.648C105.53 126.256 105.852 125.92 106.244 125.92C106.636 125.92 106.972 126.256 106.972 126.648C106.972 127.04 106.636 127.362 106.244 127.362ZM105.768 136V129.224H106.734V136H105.768ZM109.714 136H108.748V129.224H109.588L109.728 130.4C110.176 129.532 111.072 129.042 112.052 129.042C113.914 129.042 114.684 130.148 114.684 131.856V136H113.718V132.066C113.718 130.484 113.004 129.924 111.884 129.924C110.498 129.924 109.714 130.932 109.714 132.458V136ZM116.148 132.416C116.148 130.568 117.338 129.042 119.326 129.042C120.502 129.042 121.398 129.588 121.832 130.582L121.93 129.224H122.77V135.79C122.77 137.806 121.482 139.122 119.494 139.122C117.758 139.122 116.54 138.142 116.274 136.504H117.24C117.45 137.596 118.29 138.24 119.508 138.24C120.894 138.24 121.818 137.302 121.818 135.888V134.278C121.356 135.23 120.418 135.79 119.256 135.79C117.324 135.79 116.148 134.264 116.148 132.416ZM117.114 132.402C117.114 133.788 117.968 134.922 119.396 134.922C120.866 134.922 121.734 133.858 121.734 132.402C121.734 130.96 120.894 129.896 119.41 129.896C117.954 129.896 117.114 131.03 117.114 132.402ZM128.192 132.626C128.192 130.498 129.494 129.042 131.468 129.042C133.036 129.042 134.184 129.952 134.45 131.352H133.484C133.232 130.414 132.42 129.896 131.482 129.896C130.11 129.896 129.144 130.946 129.144 132.612C129.144 134.222 130.04 135.3 131.412 135.3C132.42 135.3 133.232 134.74 133.498 133.872H134.478C134.156 135.258 132.952 136.168 131.412 136.168C129.494 136.168 128.192 134.754 128.192 132.626ZM140.702 129.224H141.668V136H140.828L140.702 134.852C140.324 135.636 139.386 136.168 138.322 136.168C136.726 136.168 135.858 135.076 135.858 133.424V129.21H136.838V133.116C136.838 134.726 137.552 135.3 138.63 135.3C139.932 135.3 140.702 134.432 140.702 132.822V129.224ZM147.222 129.14V130.008H146.69C145.444 130.008 144.646 130.848 144.646 132.136V136H143.68V129.224H144.59L144.66 130.274C144.926 129.546 145.64 129.07 146.592 129.07C146.802 129.07 146.984 129.084 147.222 129.14ZM152.048 129.14V130.008H151.516C150.27 130.008 149.472 130.848 149.472 132.136V136H148.506V129.224H149.416L149.486 130.274C149.752 129.546 150.466 129.07 151.418 129.07C151.628 129.07 151.81 129.084 152.048 129.14ZM155.914 136.168C153.926 136.168 152.596 134.74 152.596 132.612C152.596 130.498 153.912 129.042 155.844 129.042C157.678 129.042 158.924 130.344 158.924 132.262V132.738H153.534C153.604 134.39 154.472 135.342 155.928 135.342C157.034 135.342 157.748 134.866 158 133.97H158.924C158.56 135.398 157.51 136.168 155.914 136.168ZM155.844 129.868C154.57 129.868 153.73 130.708 153.562 132.038H157.958C157.958 130.736 157.118 129.868 155.844 129.868ZM161.435 136H160.469V129.224H161.309L161.449 130.4C161.897 129.532 162.793 129.042 163.773 129.042C165.635 129.042 166.405 130.148 166.405 131.856V136H165.439V132.066C165.439 130.484 164.725 129.924 163.605 129.924C162.219 129.924 161.435 130.932 161.435 132.458V136ZM167.854 132.626C167.854 130.498 169.156 129.042 171.13 129.042C172.698 129.042 173.846 129.952 174.112 131.352H173.146C172.894 130.414 172.082 129.896 171.144 129.896C169.772 129.896 168.806 130.946 168.806 132.612C168.806 134.222 169.702 135.3 171.074 135.3C172.082 135.3 172.894 134.74 173.16 133.872H174.14C173.818 135.258 172.614 136.168 171.074 136.168C169.156 136.168 167.854 134.754 167.854 132.626ZM174.781 138.954V138.156H175.523C176.111 138.156 176.699 138.114 177.035 137.204L177.329 136.406L174.585 129.224H175.607L177.791 135.132L179.933 129.224H180.927L177.819 137.554C177.427 138.618 176.769 139.052 175.803 139.052C175.397 139.052 175.089 139.024 174.781 138.954ZM26.954 154.168C25.512 154.168 24.658 153.356 24.658 152.166C24.658 150.92 25.61 150.136 27.192 150.01L29.432 149.828V149.604C29.432 148.274 28.634 147.854 27.64 147.854C26.464 147.854 25.764 148.386 25.764 149.296H24.882C24.882 147.924 26.002 147.042 27.668 147.042C29.236 147.042 30.384 147.826 30.384 149.618V154H29.572L29.446 152.81C29.026 153.664 28.102 154.168 26.954 154.168ZM27.178 153.384C28.606 153.384 29.432 152.39 29.432 150.92V150.556L27.43 150.71C26.156 150.822 25.638 151.382 25.638 152.138C25.638 152.964 26.254 153.384 27.178 153.384ZM31.8465 150.626C31.8465 148.498 33.1485 147.042 35.1225 147.042C36.6905 147.042 37.8385 147.952 38.1045 149.352H37.1385C36.8865 148.414 36.0745 147.896 35.1365 147.896C33.7645 147.896 32.7985 148.946 32.7985 150.612C32.7985 152.222 33.6945 153.3 35.0665 153.3C36.0745 153.3 36.8865 152.74 37.1525 151.872H38.1325C37.8105 153.258 36.6065 154.168 35.0665 154.168C33.1485 154.168 31.8465 152.754 31.8465 150.626ZM39.1199 150.626C39.1199 148.498 40.4219 147.042 42.3959 147.042C43.9639 147.042 45.1119 147.952 45.3779 149.352H44.4119C44.1599 148.414 43.3479 147.896 42.4099 147.896C41.0379 147.896 40.0719 148.946 40.0719 150.612C40.0719 152.222 40.9679 153.3 42.3399 153.3C43.3479 153.3 44.1599 152.74 44.4259 151.872H45.4059C45.0839 153.258 43.8799 154.168 42.3399 154.168C40.4219 154.168 39.1199 152.754 39.1199 150.626ZM46.3933 150.612C46.3933 148.54 47.8493 147.042 49.8373 147.042C51.8253 147.042 53.2813 148.54 53.2813 150.612C53.2813 152.67 51.8253 154.168 49.8373 154.168C47.8493 154.168 46.3933 152.67 46.3933 150.612ZM47.3733 150.598C47.3733 152.194 48.3813 153.3 49.8373 153.3C51.2793 153.3 52.3013 152.194 52.3013 150.598C52.3013 149.03 51.2793 147.91 49.8373 147.91C48.3813 147.91 47.3733 149.03 47.3733 150.598ZM59.4223 147.224H60.3883V154H59.5483L59.4223 152.852C59.0443 153.636 58.1063 154.168 57.0423 154.168C55.4463 154.168 54.5783 153.076 54.5783 151.424V147.21H55.5583V151.116C55.5583 152.726 56.2723 153.3 57.3503 153.3C58.6523 153.3 59.4223 152.432 59.4223 150.822V147.224ZM63.3666 154H62.4006V147.224H63.2406L63.3806 148.4C63.8286 147.532 64.7246 147.042 65.7046 147.042C67.5666 147.042 68.3366 148.148 68.3366 149.856V154H67.3706V150.066C67.3706 148.484 66.6566 147.924 65.5366 147.924C64.1506 147.924 63.3666 148.932 63.3666 150.458V154ZM71.8159 154H70.8639V148.036H69.5059V147.224H70.8639V145.082H71.8159V147.224H73.1739V148.036H71.8159V154ZM74.834 154.154C74.358 154.154 73.952 153.762 73.952 153.3C73.952 152.824 74.358 152.418 74.834 152.418C75.31 152.418 75.716 152.824 75.716 153.3C75.716 153.762 75.31 154.154 74.834 154.154Z" fill="#423E30"/>
</svg>
