<svg width="252" height="182" viewBox="0 0 252 182" fill="none" xmlns="http://www.w3.org/2000/svg">
<rect width="252" height="182" rx="16" fill="#FFFAEB"/>
<rect x="24" y="24" width="42" height="42" rx="21" fill="#EBE4FF"/>
<path d="M51.2056 53.976L39.0376 54V51.696L44.7736 46.848C47.1496 44.832 47.9416 43.68 47.9416 42C47.9416 40.008 46.8616 38.88 45.0136 38.88C43.0936 38.88 41.8936 40.224 41.8696 42.48H38.8216C38.8456 38.64 41.2936 36.144 45.0136 36.144C48.7576 36.144 51.0856 38.28 51.0856 41.832C51.0856 44.28 49.7416 46.128 47.0776 48.408L43.9096 51.12H51.2056V53.976Z" fill="#7D76FF"/>
<path d="M32.952 95.096V97.808H31.872C29.76 97.808 28.44 98.936 28.44 101.24V107H25.512V95.168H28.272L28.44 96.896C28.944 95.72 30.072 94.928 31.656 94.928C32.064 94.928 32.472 94.976 32.952 95.096ZM39.3594 107.312C35.8314 107.312 33.3594 104.744 33.3594 101.072C33.3594 97.352 35.7834 94.784 39.2634 94.784C42.8154 94.784 45.0714 97.16 45.0714 100.856V101.744L36.1434 101.768C36.3594 103.856 37.4634 104.912 39.4074 104.912C41.0154 104.912 42.0714 104.288 42.4074 103.16H45.1194C44.6154 105.752 42.4554 107.312 39.3594 107.312ZM39.2874 97.184C37.5594 97.184 36.5034 98.12 36.2154 99.896H42.1674C42.1674 98.264 41.0394 97.184 39.2874 97.184ZM46.2388 101.048C46.2388 97.376 48.6628 94.784 52.1668 94.784C55.4068 94.784 57.6148 96.584 57.9268 99.44H54.9988C54.6628 98.096 53.6788 97.4 52.2868 97.4C50.4148 97.4 49.1668 98.816 49.1668 101.048C49.1668 103.28 50.3188 104.672 52.1908 104.672C53.6548 104.672 54.6868 103.952 54.9988 102.656H57.9508C57.5908 105.416 55.2868 107.312 52.1908 107.312C48.5908 107.312 46.2388 104.816 46.2388 101.048ZM61.1141 92.768C60.1061 92.768 59.3141 91.976 59.3141 90.992C59.3141 90.008 60.1061 89.24 61.1141 89.24C62.0741 89.24 62.8661 90.008 62.8661 90.992C62.8661 91.976 62.0741 92.768 61.1141 92.768ZM59.6501 107V95.144H62.5781V107H59.6501ZM65.1233 112.496V95.144H67.8353L68.0273 96.944C68.7473 95.576 70.3073 94.784 72.1073 94.784C75.4433 94.784 77.6513 97.208 77.6513 100.928C77.6513 104.624 75.6353 107.312 72.1073 107.312C70.3313 107.312 68.7953 106.616 68.0513 105.416V112.496H65.1233ZM68.0753 101.072C68.0753 103.208 69.3953 104.672 71.4113 104.672C73.4753 104.672 74.6993 103.184 74.6993 101.072C74.6993 98.96 73.4753 97.448 71.4113 97.448C69.3953 97.448 68.0753 98.936 68.0753 101.072ZM80.9666 92.768C79.9586 92.768 79.1666 91.976 79.1666 90.992C79.1666 90.008 79.9586 89.24 80.9666 89.24C81.9266 89.24 82.7186 90.008 82.7186 90.992C82.7186 91.976 81.9266 92.768 80.9666 92.768ZM79.5026 107V95.144H82.4306V107H79.5026ZM90.2797 107.312C86.7517 107.312 84.2797 104.744 84.2797 101.072C84.2797 97.352 86.7037 94.784 90.1837 94.784C93.7357 94.784 95.9917 97.16 95.9917 100.856V101.744L87.0637 101.768C87.2797 103.856 88.3837 104.912 90.3277 104.912C91.9357 104.912 92.9917 104.288 93.3277 103.16H96.0398C95.5357 105.752 93.3757 107.312 90.2797 107.312ZM90.2077 97.184C88.4797 97.184 87.4237 98.12 87.1357 99.896H93.0877C93.0877 98.264 91.9597 97.184 90.2077 97.184ZM100.783 107H97.8551V95.144H100.567L100.807 96.68C101.551 95.48 102.991 94.784 104.599 94.784C107.575 94.784 109.111 96.632 109.111 99.704V107H106.183V100.4C106.183 98.408 105.199 97.448 103.687 97.448C101.887 97.448 100.783 98.696 100.783 100.616V107ZM115.54 107H112.612V97.592H110.332V95.144H112.612V91.448H115.54V95.144H117.844V97.592H115.54V107Z" fill="#212121"/>
<path d="M24.616 128.58C24.616 126.9 25.96 125.794 27.976 125.794C29.782 125.794 30.972 126.802 31.126 128.482H30.104C29.992 127.348 29.222 126.704 27.962 126.704C26.548 126.704 25.624 127.432 25.624 128.566C25.624 129.448 26.142 130.008 27.192 130.274L28.914 130.694C30.482 131.072 31.294 131.968 31.294 133.326C31.294 135.062 29.95 136.168 27.878 136.168C25.932 136.168 24.616 135.146 24.49 133.508H25.526C25.582 134.558 26.506 135.244 27.878 135.244C29.348 135.244 30.286 134.53 30.286 133.382C30.286 132.486 29.782 131.898 28.704 131.646L27.01 131.226C25.442 130.848 24.616 129.952 24.616 128.58ZM35.7387 136.168C33.7507 136.168 32.4207 134.74 32.4207 132.612C32.4207 130.498 33.7367 129.042 35.6687 129.042C37.5027 129.042 38.7487 130.344 38.7487 132.262V132.738H33.3587C33.4287 134.39 34.2967 135.342 35.7527 135.342C36.8587 135.342 37.5727 134.866 37.8247 133.97H38.7487C38.3847 135.398 37.3347 136.168 35.7387 136.168ZM35.6687 129.868C34.3947 129.868 33.5547 130.708 33.3867 132.038H37.7827C37.7827 130.736 36.9427 129.868 35.6687 129.868ZM41.3012 136H40.3352V125.794H41.3012V136ZM46.1977 136.168C44.2097 136.168 42.8797 134.74 42.8797 132.612C42.8797 130.498 44.1957 129.042 46.1277 129.042C47.9617 129.042 49.2077 130.344 49.2077 132.262V132.738H43.8177C43.8877 134.39 44.7557 135.342 46.2117 135.342C47.3177 135.342 48.0317 134.866 48.2837 133.97H49.2077C48.8437 135.398 47.7937 136.168 46.1977 136.168ZM46.1277 129.868C44.8537 129.868 44.0137 130.708 43.8457 132.038H48.2417C48.2417 130.736 47.4017 129.868 46.1277 129.868ZM50.2761 132.626C50.2761 130.498 51.5781 129.042 53.5521 129.042C55.1201 129.042 56.2681 129.952 56.5341 131.352H55.5681C55.3161 130.414 54.5041 129.896 53.5661 129.896C52.1941 129.896 51.2281 130.946 51.2281 132.612C51.2281 134.222 52.1241 135.3 53.4961 135.3C54.5041 135.3 55.3161 134.74 55.5821 133.872H56.5621C56.2401 135.258 55.0361 136.168 53.4961 136.168C51.5781 136.168 50.2761 134.754 50.2761 132.626ZM59.5796 136H58.6276V130.036H57.2696V129.224H58.6276V127.082H59.5796V129.224H60.9376V130.036H59.5796V136ZM67.0443 136H66.0783V129.224H66.9183L67.0583 130.4C67.5063 129.532 68.4023 129.042 69.3823 129.042C71.2443 129.042 72.0143 130.148 72.0143 131.856V136H71.0483V132.066C71.0483 130.484 70.3343 129.924 69.2143 129.924C67.8283 129.924 67.0443 130.932 67.0443 132.458V136ZM76.7816 136.168C74.7936 136.168 73.4636 134.74 73.4636 132.612C73.4636 130.498 74.7796 129.042 76.7116 129.042C78.5456 129.042 79.7916 130.344 79.7916 132.262V132.738H74.4016C74.4716 134.39 75.3396 135.342 76.7956 135.342C77.9016 135.342 78.6156 134.866 78.8676 133.97H79.7916C79.4276 135.398 78.3776 136.168 76.7816 136.168ZM76.7116 129.868C75.4376 129.868 74.5976 130.708 74.4296 132.038H78.8256C78.8256 130.736 77.9856 129.868 76.7116 129.868ZM82.5864 136L80.3464 129.224H81.3404L82.6704 133.312C82.8244 133.76 82.9504 134.222 83.0904 134.768C83.2024 134.222 83.4264 133.536 83.4964 133.312L84.8404 129.224H85.8344L87.1644 133.312C87.2904 133.676 87.4584 134.264 87.5844 134.768C87.7244 134.208 87.7524 134.04 87.9904 133.312L89.3344 129.224H90.3424L88.0464 136H87.1084L85.7084 131.744C85.5404 131.24 85.4284 130.82 85.3444 130.414C85.2464 130.778 85.1344 131.184 84.9524 131.744L83.5524 136H82.5864ZM94.9558 132.612C94.9558 130.54 96.4118 129.042 98.3998 129.042C100.388 129.042 101.844 130.54 101.844 132.612C101.844 134.67 100.388 136.168 98.3998 136.168C96.4118 136.168 94.9558 134.67 94.9558 132.612ZM95.9358 132.598C95.9358 134.194 96.9438 135.3 98.3998 135.3C99.8418 135.3 100.864 134.194 100.864 132.598C100.864 131.03 99.8418 129.91 98.3998 129.91C96.9438 129.91 95.9358 131.03 95.9358 132.598ZM106.931 129.14V130.008H106.399C105.153 130.008 104.355 130.848 104.355 132.136V136H103.389V129.224H104.299L104.369 130.274C104.635 129.546 105.349 129.07 106.301 129.07C106.511 129.07 106.693 129.084 106.931 129.14ZM114.94 136.168C112.952 136.168 111.622 134.74 111.622 132.612C111.622 130.498 112.938 129.042 114.87 129.042C116.704 129.042 117.95 130.344 117.95 132.262V132.738H112.56C112.63 134.39 113.498 135.342 114.954 135.342C116.06 135.342 116.774 134.866 117.026 133.97H117.95C117.586 135.398 116.536 136.168 114.94 136.168ZM114.87 129.868C113.596 129.868 112.756 130.708 112.588 132.038H116.984C116.984 130.736 116.144 129.868 114.87 129.868ZM119.528 136H118.394L120.816 132.612L118.408 129.224H119.542L121.46 131.94L123.364 129.224H124.484L122.076 132.626L124.47 136H123.322L121.418 133.284L119.528 136ZM126.109 127.362C125.717 127.362 125.395 127.04 125.395 126.648C125.395 126.256 125.717 125.92 126.109 125.92C126.501 125.92 126.837 126.256 126.837 126.648C126.837 127.04 126.501 127.362 126.109 127.362ZM125.633 136V129.224H126.599V136H125.633ZM128.039 134.096H128.963C128.963 134.88 129.551 135.37 130.503 135.37C131.553 135.37 132.169 134.922 132.169 134.194C132.169 133.634 131.889 133.312 131.091 133.116L129.929 132.822C128.753 132.528 128.179 131.912 128.179 130.988C128.179 129.798 129.173 129.042 130.629 129.042C132.057 129.042 132.981 129.826 133.023 131.086H132.085C132.057 130.302 131.511 129.84 130.601 129.84C129.649 129.84 129.117 130.246 129.117 130.974C129.117 131.492 129.481 131.856 130.223 132.038L131.385 132.332C132.561 132.626 133.093 133.172 133.093 134.152C133.093 135.37 132.057 136.168 130.517 136.168C128.991 136.168 128.039 135.356 128.039 134.096ZM136.238 136H135.286V130.036H133.928V129.224H135.286V127.082H136.238V129.224H137.596V130.036H136.238V136ZM139.33 127.362C138.938 127.362 138.616 127.04 138.616 126.648C138.616 126.256 138.938 125.92 139.33 125.92C139.722 125.92 140.058 126.256 140.058 126.648C140.058 127.04 139.722 127.362 139.33 127.362ZM138.854 136V129.224H139.82V136H138.854ZM142.8 136H141.834V129.224H142.674L142.814 130.4C143.262 129.532 144.158 129.042 145.138 129.042C147 129.042 147.77 130.148 147.77 131.856V136H146.804V132.066C146.804 130.484 146.09 129.924 144.97 129.924C143.584 129.924 142.8 130.932 142.8 132.458V136ZM149.234 132.416C149.234 130.568 150.424 129.042 152.412 129.042C153.588 129.042 154.484 129.588 154.918 130.582L155.016 129.224H155.856V135.79C155.856 137.806 154.568 139.122 152.58 139.122C150.844 139.122 149.626 138.142 149.36 136.504H150.326C150.535 137.596 151.376 138.24 152.594 138.24C153.98 138.24 154.904 137.302 154.904 135.888V134.278C154.442 135.23 153.504 135.79 152.342 135.79C150.41 135.79 149.234 134.264 149.234 132.416ZM150.2 132.402C150.2 133.788 151.054 134.922 152.482 134.922C153.952 134.922 154.82 133.858 154.82 132.402C154.82 130.96 153.98 129.896 152.496 129.896C151.04 129.896 150.2 131.03 150.2 132.402ZM28.55 147.14V148.008H28.018C26.772 148.008 25.974 148.848 25.974 150.136V154H25.008V147.224H25.918L25.988 148.274C26.254 147.546 26.968 147.07 27.92 147.07C28.13 147.07 28.312 147.084 28.55 147.14ZM32.4164 154.168C30.4284 154.168 29.0984 152.74 29.0984 150.612C29.0984 148.498 30.4144 147.042 32.3464 147.042C34.1804 147.042 35.4264 148.344 35.4264 150.262V150.738H30.0364C30.1064 152.39 30.9744 153.342 32.4304 153.342C33.5364 153.342 34.2504 152.866 34.5024 151.97H35.4264C35.0624 153.398 34.0124 154.168 32.4164 154.168ZM32.3464 147.868C31.0724 147.868 30.2324 148.708 30.0644 150.038H34.4604C34.4604 148.736 33.6204 147.868 32.3464 147.868ZM36.4949 150.626C36.4949 148.498 37.7969 147.042 39.7709 147.042C41.3389 147.042 42.4869 147.952 42.7529 149.352H41.7869C41.5349 148.414 40.7229 147.896 39.7849 147.896C38.4129 147.896 37.4469 148.946 37.4469 150.612C37.4469 152.222 38.3429 153.3 39.7149 153.3C40.7229 153.3 41.5349 152.74 41.8009 151.872H42.7809C42.4589 153.258 41.2549 154.168 39.7149 154.168C37.7969 154.168 36.4949 152.754 36.4949 150.626ZM44.7203 145.362C44.3283 145.362 44.0063 145.04 44.0063 144.648C44.0063 144.256 44.3283 143.92 44.7203 143.92C45.1123 143.92 45.4483 144.256 45.4483 144.648C45.4483 145.04 45.1123 145.362 44.7203 145.362ZM44.2443 154V147.224H45.2103V154H44.2443ZM47.2248 156.954V147.224H48.0648L48.1628 148.596C48.6388 147.546 49.5908 147.042 50.7248 147.042C52.6848 147.042 53.8608 148.54 53.8608 150.584C53.8608 152.628 52.7268 154.168 50.7248 154.168C49.5768 154.168 48.6668 153.678 48.1908 152.698V156.954H47.2248ZM48.2048 150.612C48.2048 152.166 49.0728 153.3 50.5568 153.3C52.0268 153.3 52.8808 152.166 52.8808 150.612C52.8808 149.044 52.0268 147.924 50.5568 147.924C49.0728 147.924 48.2048 149.044 48.2048 150.612ZM55.8766 145.362C55.4846 145.362 55.1626 145.04 55.1626 144.648C55.1626 144.256 55.4846 143.92 55.8766 143.92C56.2686 143.92 56.6046 144.256 56.6046 144.648C56.6046 145.04 56.2686 145.362 55.8766 145.362ZM55.4006 154V147.224H56.3666V154H55.4006ZM61.223 154.168C59.235 154.168 57.905 152.74 57.905 150.612C57.905 148.498 59.221 147.042 61.153 147.042C62.987 147.042 64.233 148.344 64.233 150.262V150.738H58.843C58.913 152.39 59.781 153.342 61.237 153.342C62.343 153.342 63.057 152.866 63.309 151.97H64.233C63.869 153.398 62.819 154.168 61.223 154.168ZM61.153 147.868C59.879 147.868 59.039 148.708 58.871 150.038H63.267C63.267 148.736 62.427 147.868 61.153 147.868ZM66.7435 154H65.7775V147.224H66.6175L66.7575 148.4C67.2055 147.532 68.1015 147.042 69.0815 147.042C70.9435 147.042 71.7135 148.148 71.7135 149.856V154H70.7475V150.066C70.7475 148.484 70.0335 147.924 68.9135 147.924C67.5275 147.924 66.7435 148.932 66.7435 150.458V154ZM75.1929 154H74.2409V148.036H72.8829V147.224H74.2409V145.082H75.1929V147.224H76.5509V148.036H75.1929V154ZM78.211 154.154C77.735 154.154 77.329 153.762 77.329 153.3C77.329 152.824 77.735 152.418 78.211 152.418C78.687 152.418 79.093 152.824 79.093 153.3C79.093 153.762 78.687 154.154 78.211 154.154Z" fill="#423E30"/>
</svg>
