<svg width="252" height="182" viewBox="0 0 252 182" fill="none" xmlns="http://www.w3.org/2000/svg">
<rect width="252" height="182" rx="16" fill="#FFFAEB"/>
<rect x="24" y="24" width="42" height="42" rx="21" fill="#EBE4FF"/>
<path d="M51.8582 50.664H49.7222V54H46.8182V50.664H37.9142V47.976L45.8582 36.456H49.7222V47.976H51.8582V50.664ZM41.1782 47.976H46.8182V39.768L41.1782 47.976Z" fill="#7D76FF"/>
<path d="M32.952 95.096V97.808H31.872C29.76 97.808 28.44 98.936 28.44 101.24V107H25.512V95.168H28.272L28.44 96.896C28.944 95.72 30.072 94.928 31.656 94.928C32.064 94.928 32.472 94.976 32.952 95.096ZM39.3594 107.312C35.8314 107.312 33.3594 104.744 33.3594 101.072C33.3594 97.352 35.7834 94.784 39.2634 94.784C42.8154 94.784 45.0714 97.16 45.0714 100.856V101.744L36.1434 101.768C36.3594 103.856 37.4634 104.912 39.4074 104.912C41.0154 104.912 42.0714 104.288 42.4074 103.16H45.1194C44.6154 105.752 42.4554 107.312 39.3594 107.312ZM39.2874 97.184C37.5594 97.184 36.5034 98.12 36.2154 99.896H42.1674C42.1674 98.264 41.0394 97.184 39.2874 97.184ZM49.7792 107L45.0752 95.144H48.1952L50.2592 100.592C50.7632 102.008 51.1712 103.232 51.3152 103.88C51.4832 103.136 51.9152 101.888 52.4192 100.592L54.5792 95.144H57.6032L52.6592 107H49.7792ZM60.2704 92.768C59.2624 92.768 58.4704 91.976 58.4704 90.992C58.4704 90.008 59.2624 89.24 60.2704 89.24C61.2304 89.24 62.0224 90.008 62.0224 90.992C62.0224 91.976 61.2304 92.768 60.2704 92.768ZM58.8064 107V95.144H61.7344V107H58.8064ZM69.5835 107.312C66.0555 107.312 63.5835 104.744 63.5835 101.072C63.5835 97.352 66.0075 94.784 69.4875 94.784C73.0395 94.784 75.2955 97.16 75.2955 100.856V101.744L66.3675 101.768C66.5835 103.856 67.6875 104.912 69.6315 104.912C71.2395 104.912 72.2955 104.288 72.6315 103.16H75.3435C74.8395 105.752 72.6795 107.312 69.5835 107.312ZM69.5115 97.184C67.7835 97.184 66.7275 98.12 66.4395 99.896H72.3915C72.3915 98.264 71.2635 97.184 69.5115 97.184ZM79.2592 107L75.4192 95.144H78.4672L80.0272 100.232C80.2912 101.168 80.5312 102.2 80.7472 103.304C80.9632 102.152 81.1792 101.408 81.5632 100.232L83.1952 95.144H86.1712L87.7552 100.232C87.8992 100.712 88.3792 102.488 88.5232 103.28C88.7152 102.392 89.0992 100.976 89.3152 100.232L90.8992 95.144H93.9952L89.8912 107H87.1552L85.5232 101.864C85.0432 100.304 84.7792 99.176 84.6832 98.576C84.5632 99.128 84.3472 99.968 83.7472 101.912L82.1152 107H79.2592Z" fill="#212121"/>
<path d="M29.306 136.154C26.506 136.154 24.602 134.068 24.602 130.988C24.602 127.908 26.534 125.808 29.362 125.808C31.518 125.808 33.212 127.11 33.618 129.098H32.54C32.12 127.656 30.888 126.774 29.32 126.774C27.122 126.774 25.652 128.454 25.652 130.988C25.652 133.508 27.122 135.188 29.32 135.188C30.902 135.188 32.162 134.334 32.596 132.99H33.674C33.212 134.88 31.462 136.154 29.306 136.154ZM36.1049 135.986H35.1389V125.794H36.1049V130.4C36.5389 129.588 37.3649 129.042 38.4989 129.042C40.2769 129.042 41.0749 130.148 41.0749 131.856V136H40.1089V132.066C40.1089 130.484 39.3669 129.924 38.3169 129.924C36.8609 129.924 36.1049 131.002 36.1049 132.304V135.986ZM45.8422 136.168C43.8542 136.168 42.5242 134.74 42.5242 132.612C42.5242 130.498 43.8402 129.042 45.7722 129.042C47.6062 129.042 48.8522 130.344 48.8522 132.262V132.738H43.4622C43.5322 134.39 44.4002 135.342 45.8562 135.342C46.9622 135.342 47.6762 134.866 47.9282 133.97H48.8522C48.4882 135.398 47.4382 136.168 45.8422 136.168ZM45.7722 129.868C44.4982 129.868 43.6582 130.708 43.4902 132.038H47.8862C47.8862 130.736 47.0462 129.868 45.7722 129.868ZM49.9207 132.626C49.9207 130.498 51.2227 129.042 53.1967 129.042C54.7647 129.042 55.9127 129.952 56.1787 131.352H55.2127C54.9607 130.414 54.1487 129.896 53.2107 129.896C51.8387 129.896 50.8727 130.946 50.8727 132.612C50.8727 134.222 51.7687 135.3 53.1407 135.3C54.1487 135.3 54.9607 134.74 55.2267 133.872H56.2067C55.8847 135.258 54.6807 136.168 53.1407 136.168C51.2227 136.168 49.9207 134.754 49.9207 132.626ZM58.6781 136H57.7121V125.794H58.6781V132.724L62.0381 129.224H63.2561L60.6521 131.926L63.2701 136H62.1501L59.9941 132.612L58.6781 133.97V136ZM68.3068 138.954V129.224H69.1468L69.2448 130.596C69.7208 129.546 70.6728 129.042 71.8068 129.042C73.7668 129.042 74.9428 130.54 74.9428 132.584C74.9428 134.628 73.8088 136.168 71.8068 136.168C70.6588 136.168 69.7488 135.678 69.2728 134.698V138.954H68.3068ZM69.2868 132.612C69.2868 134.166 70.1548 135.3 71.6388 135.3C73.1088 135.3 73.9628 134.166 73.9628 132.612C73.9628 131.044 73.1088 129.924 71.6388 129.924C70.1548 129.924 69.2868 131.044 69.2868 132.612ZM78.4286 136.168C76.9866 136.168 76.1326 135.356 76.1326 134.166C76.1326 132.92 77.0846 132.136 78.6666 132.01L80.9066 131.828V131.604C80.9066 130.274 80.1086 129.854 79.1146 129.854C77.9386 129.854 77.2386 130.386 77.2386 131.296H76.3566C76.3566 129.924 77.4766 129.042 79.1426 129.042C80.7106 129.042 81.8586 129.826 81.8586 131.618V136H81.0466L80.9206 134.81C80.5006 135.664 79.5766 136.168 78.4286 136.168ZM78.6526 135.384C80.0806 135.384 80.9066 134.39 80.9066 132.92V132.556L78.9046 132.71C77.6306 132.822 77.1126 133.382 77.1126 134.138C77.1126 134.964 77.7286 135.384 78.6526 135.384ZM82.9607 138.954V138.156H83.7027C84.2907 138.156 84.8787 138.114 85.2147 137.204L85.5087 136.406L82.7647 129.224H83.7867L85.9707 135.132L88.1127 129.224H89.1067L85.9987 137.554C85.6067 138.618 84.9487 139.052 83.9827 139.052C83.5767 139.052 83.2687 139.024 82.9607 138.954ZM91.2025 136H90.2365V129.224H91.0765L91.1885 130.19C91.5245 129.476 92.2805 129.042 93.2325 129.042C94.2965 129.042 95.0945 129.602 95.4165 130.484C95.7245 129.602 96.5505 129.042 97.6425 129.042C99.1125 129.042 100.079 129.994 100.079 131.562V136H99.1405V131.758C99.1405 130.596 98.4965 129.91 97.4605 129.91C96.3265 129.91 95.6545 130.764 95.6545 131.814V136H94.7025V131.744C94.7025 130.596 94.0445 129.924 93.0225 129.924C91.8885 129.924 91.2025 130.764 91.2025 131.8V136ZM104.864 136.168C102.876 136.168 101.546 134.74 101.546 132.612C101.546 130.498 102.862 129.042 104.794 129.042C106.628 129.042 107.874 130.344 107.874 132.262V132.738H102.484C102.554 134.39 103.422 135.342 104.878 135.342C105.984 135.342 106.698 134.866 106.95 133.97H107.874C107.51 135.398 106.46 136.168 104.864 136.168ZM104.794 129.868C103.52 129.868 102.68 130.708 102.512 132.038H106.908C106.908 130.736 106.068 129.868 104.794 129.868ZM110.384 136H109.418V129.224H110.258L110.398 130.4C110.846 129.532 111.742 129.042 112.722 129.042C114.584 129.042 115.354 130.148 115.354 131.856V136H114.388V132.066C114.388 130.484 113.674 129.924 112.554 129.924C111.168 129.924 110.384 130.932 110.384 132.458V136ZM118.833 136H117.881V130.036H116.523V129.224H117.881V127.082H118.833V129.224H120.191V130.036H118.833V136ZM127.278 136.168C125.836 136.168 124.982 135.356 124.982 134.166C124.982 132.92 125.934 132.136 127.516 132.01L129.756 131.828V131.604C129.756 130.274 128.958 129.854 127.964 129.854C126.788 129.854 126.088 130.386 126.088 131.296H125.206C125.206 129.924 126.326 129.042 127.992 129.042C129.56 129.042 130.708 129.826 130.708 131.618V136H129.896L129.77 134.81C129.35 135.664 128.426 136.168 127.278 136.168ZM127.502 135.384C128.93 135.384 129.756 134.39 129.756 132.92V132.556L127.754 132.71C126.48 132.822 125.962 133.382 125.962 134.138C125.962 134.964 126.578 135.384 127.502 135.384ZM133.613 136H132.647V129.224H133.487L133.627 130.4C134.075 129.532 134.971 129.042 135.951 129.042C137.813 129.042 138.583 130.148 138.583 131.856V136H137.617V132.066C137.617 130.484 136.903 129.924 135.783 129.924C134.397 129.924 133.613 130.932 133.613 132.458V136ZM143.168 136.168C141.194 136.168 140.032 134.656 140.032 132.626C140.032 130.582 141.194 129.042 143.21 129.042C144.33 129.042 145.226 129.532 145.702 130.512V125.794H146.668V136H145.828L145.73 134.614C145.254 135.664 144.302 136.168 143.168 136.168ZM143.336 135.286C144.82 135.286 145.688 134.166 145.688 132.598C145.688 131.044 144.82 129.91 143.336 129.91C141.866 129.91 141.012 131.044 141.012 132.598C141.012 134.166 141.866 135.286 143.336 135.286ZM155.409 136.168C153.421 136.168 152.091 134.74 152.091 132.612C152.091 130.498 153.407 129.042 155.339 129.042C157.173 129.042 158.419 130.344 158.419 132.262V132.738H153.029C153.099 134.39 153.967 135.342 155.423 135.342C156.529 135.342 157.243 134.866 157.495 133.97H158.419C158.055 135.398 157.005 136.168 155.409 136.168ZM155.339 129.868C154.065 129.868 153.225 130.708 153.057 132.038H157.453C157.453 130.736 156.613 129.868 155.339 129.868ZM160.929 136H159.963V129.224H160.803L160.943 130.4C161.391 129.532 162.287 129.042 163.267 129.042C165.129 129.042 165.899 130.148 165.899 131.856V136H164.933V132.066C164.933 130.484 164.219 129.924 163.099 129.924C161.713 129.924 160.929 130.932 160.929 132.458V136ZM169.77 136.168C168.328 136.168 167.474 135.356 167.474 134.166C167.474 132.92 168.426 132.136 170.008 132.01L172.248 131.828V131.604C172.248 130.274 171.45 129.854 170.456 129.854C169.28 129.854 168.58 130.386 168.58 131.296H167.698C167.698 129.924 168.818 129.042 170.484 129.042C172.052 129.042 173.2 129.826 173.2 131.618V136H172.388L172.262 134.81C171.842 135.664 170.918 136.168 169.77 136.168ZM169.994 135.384C171.422 135.384 172.248 134.39 172.248 132.92V132.556L170.246 132.71C168.972 132.822 168.454 133.382 168.454 134.138C168.454 134.964 169.07 135.384 169.994 135.384ZM175.979 136H175.139V125.794H176.105V130.54C176.581 129.546 177.505 129.042 178.653 129.042C180.627 129.042 181.775 130.582 181.775 132.626C181.775 134.656 180.599 136.168 178.625 136.168C177.491 136.168 176.553 135.664 176.077 134.614L175.979 136ZM176.119 132.598C176.119 134.166 176.987 135.286 178.471 135.286C179.941 135.286 180.795 134.166 180.795 132.598C180.795 131.044 179.941 129.91 178.471 129.91C176.987 129.91 176.119 131.044 176.119 132.598ZM184.323 136H183.357V125.794H184.323V136ZM189.219 136.168C187.231 136.168 185.901 134.74 185.901 132.612C185.901 130.498 187.217 129.042 189.149 129.042C190.983 129.042 192.229 130.344 192.229 132.262V132.738H186.839C186.909 134.39 187.777 135.342 189.233 135.342C190.339 135.342 191.053 134.866 191.305 133.97H192.229C191.865 135.398 190.815 136.168 189.219 136.168ZM189.149 129.868C187.875 129.868 187.035 130.708 186.867 132.038H191.263C191.263 130.736 190.423 129.868 189.149 129.868ZM25.974 154H25.008V147.224H25.848L25.988 148.4C26.436 147.532 27.332 147.042 28.312 147.042C30.174 147.042 30.944 148.148 30.944 149.856V154H29.978V150.066C29.978 148.484 29.264 147.924 28.144 147.924C26.758 147.924 25.974 148.932 25.974 150.458V154ZM32.3933 150.612C32.3933 148.54 33.8493 147.042 35.8373 147.042C37.8253 147.042 39.2813 148.54 39.2813 150.612C39.2813 152.67 37.8253 154.168 35.8373 154.168C33.8493 154.168 32.3933 152.67 32.3933 150.612ZM33.3733 150.598C33.3733 152.194 34.3813 153.3 35.8373 153.3C37.2793 153.3 38.3013 152.194 38.3013 150.598C38.3013 149.03 37.2793 147.91 35.8373 147.91C34.3813 147.91 33.3733 149.03 33.3733 150.598ZM42.312 154H41.36V148.036H40.002V147.224H41.36V145.082H42.312V147.224H43.67V148.036H42.312V154ZM45.4039 145.362C45.0119 145.362 44.6899 145.04 44.6899 144.648C44.6899 144.256 45.0119 143.92 45.4039 143.92C45.7959 143.92 46.1319 144.256 46.1319 144.648C46.1319 145.04 45.7959 145.362 45.4039 145.362ZM44.9279 154V147.224H45.8939V154H44.9279ZM52.3744 154V148.036H49.1544V154H48.1884V148.036H47.1524V147.224H48.1884V145.908C48.1884 144.382 49.0144 143.794 50.0224 143.794C50.2604 143.794 50.5544 143.808 50.7784 143.85V144.69H50.1904C49.3784 144.69 49.1544 145.11 49.1544 145.908V147.224H53.3404V154H52.3744ZM52.8504 145.292C52.4584 145.292 52.1784 145.012 52.1784 144.62C52.1784 144.228 52.4584 143.934 52.8504 143.934C53.2284 143.934 53.5224 144.228 53.5224 144.62C53.5224 145.012 53.2284 145.292 52.8504 145.292ZM54.8425 150.626C54.8425 148.498 56.1445 147.042 58.1185 147.042C59.6865 147.042 60.8345 147.952 61.1005 149.352H60.1345C59.8825 148.414 59.0705 147.896 58.1325 147.896C56.7605 147.896 55.7945 148.946 55.7945 150.612C55.7945 152.222 56.6905 153.3 58.0625 153.3C59.0705 153.3 59.8825 152.74 60.1485 151.872H61.1285C60.8065 153.258 59.6025 154.168 58.0625 154.168C56.1445 154.168 54.8425 152.754 54.8425 150.626ZM64.538 154.168C63.096 154.168 62.242 153.356 62.242 152.166C62.242 150.92 63.194 150.136 64.776 150.01L67.016 149.828V149.604C67.016 148.274 66.218 147.854 65.224 147.854C64.048 147.854 63.348 148.386 63.348 149.296H62.466C62.466 147.924 63.586 147.042 65.252 147.042C66.82 147.042 67.968 147.826 67.968 149.618V154H67.156L67.03 152.81C66.61 153.664 65.686 154.168 64.538 154.168ZM64.762 153.384C66.19 153.384 67.016 152.39 67.016 150.92V150.556L65.014 150.71C63.74 150.822 63.222 151.382 63.222 152.138C63.222 152.964 63.838 153.384 64.762 153.384ZM71.3374 154H70.3854V148.036H69.0274V147.224H70.3854V145.082H71.3374V147.224H72.6954V148.036H71.3374V154ZM74.4293 145.362C74.0373 145.362 73.7153 145.04 73.7153 144.648C73.7153 144.256 74.0373 143.92 74.4293 143.92C74.8213 143.92 75.1573 144.256 75.1573 144.648C75.1573 145.04 74.8213 145.362 74.4293 145.362ZM73.9533 154V147.224H74.9193V154H73.9533ZM76.4578 150.612C76.4578 148.54 77.9138 147.042 79.9018 147.042C81.8898 147.042 83.3458 148.54 83.3458 150.612C83.3458 152.67 81.8898 154.168 79.9018 154.168C77.9138 154.168 76.4578 152.67 76.4578 150.612ZM77.4378 150.598C77.4378 152.194 78.4458 153.3 79.9018 153.3C81.3438 153.3 82.3658 152.194 82.3658 150.598C82.3658 149.03 81.3438 147.91 79.9018 147.91C78.4458 147.91 77.4378 149.03 77.4378 150.598ZM85.8568 154H84.8908V147.224H85.7308L85.8708 148.4C86.3188 147.532 87.2148 147.042 88.1948 147.042C90.0568 147.042 90.8268 148.148 90.8268 149.856V154H89.8608V150.066C89.8608 148.484 89.1468 147.924 88.0268 147.924C86.6408 147.924 85.8568 148.932 85.8568 150.458V154ZM92.0961 152.096H93.0201C93.0201 152.88 93.6081 153.37 94.5601 153.37C95.6101 153.37 96.2261 152.922 96.2261 152.194C96.2261 151.634 95.9461 151.312 95.1481 151.116L93.9861 150.822C92.8101 150.528 92.2361 149.912 92.2361 148.988C92.2361 147.798 93.2301 147.042 94.6861 147.042C96.1141 147.042 97.0381 147.826 97.0801 149.086H96.1421C96.1141 148.302 95.5681 147.84 94.6581 147.84C93.7061 147.84 93.1741 148.246 93.1741 148.974C93.1741 149.492 93.5381 149.856 94.2801 150.038L95.4421 150.332C96.6181 150.626 97.1501 151.172 97.1501 152.152C97.1501 153.37 96.1141 154.168 94.5741 154.168C93.0481 154.168 92.0961 153.356 92.0961 152.096ZM99.457 154.154C98.981 154.154 98.575 153.762 98.575 153.3C98.575 152.824 98.981 152.418 99.457 152.418C99.933 152.418 100.339 152.824 100.339 153.3C100.339 153.762 99.933 154.154 99.457 154.154Z" fill="#423E30"/>
</svg>
