<svg width="613" height="311" viewBox="0 0 613 311" fill="none" xmlns="http://www.w3.org/2000/svg">
<rect x="0.470046" y="0.470046" width="104.825" height="29.1429" rx="5.17051" fill="white"/>
<path d="M21.9972 9.92383H21.1159C21.0375 9.92383 20.9984 9.963 20.9984 10.0413V14.6537H16.6214C16.5431 14.6537 16.5039 14.6928 16.5039 14.7712V15.6525C16.5039 15.7309 16.5431 15.77 16.6214 15.77H20.9984V20.3824C20.9984 20.4607 21.0375 20.4999 21.1159 20.4999H21.9972C22.0756 20.4999 22.1147 20.4607 22.1147 20.3824V15.77H26.4924C26.5707 15.77 26.6099 15.7309 26.6099 15.6525V14.7712C26.6099 14.6928 26.5707 14.6537 26.4924 14.6537H22.1147V10.0413C22.1147 9.963 22.0756 9.92383 21.9972 9.92383Z" fill="#420001"/>
<path d="M43.0328 19.541L42.0721 16.9614H38.1763L37.2155 19.541H36.1626L39.5977 10.3281H40.6506L44.0989 19.541H43.0328ZM38.5185 16.0401H41.7299L40.1242 11.71L38.5185 16.0401ZM47.7182 19.7121C45.7835 19.7121 44.6517 17.9617 44.6517 16.3033C44.6517 14.6319 45.6519 12.9077 47.7182 12.9077C48.7711 12.9077 49.5213 13.3947 49.982 14.0264V10.3281H50.9822V19.541H50.1531L50.0215 18.5934C49.5871 19.1857 48.8501 19.7121 47.7182 19.7121ZM47.8235 18.8171C49.1265 18.8171 49.9951 17.7511 49.9951 16.3033C49.9951 14.8556 49.1265 13.8027 47.8235 13.8027C46.5337 13.8027 45.6519 14.8424 45.6519 16.3033C45.6519 17.7511 46.5337 18.8171 47.8235 18.8171ZM55.5713 19.7121C53.6366 19.7121 52.5047 17.9617 52.5047 16.3033C52.5047 14.6319 53.505 12.9077 55.5713 12.9077C56.6242 12.9077 57.3744 13.3947 57.8351 14.0264V10.3281H58.8353V19.541H58.0062L57.8745 18.5934C57.4402 19.1857 56.7032 19.7121 55.5713 19.7121ZM55.6766 18.8171C56.9796 18.8171 57.8482 17.7511 57.8482 16.3033C57.8482 14.8556 56.9796 13.8027 55.6766 13.8027C54.3868 13.8027 53.505 14.8424 53.505 16.3033C53.505 17.7511 54.3868 18.8171 55.6766 18.8171ZM64.8757 19.541V14.0001H63.7044V13.092H64.8757V11.8285C64.8757 10.8151 65.5338 10.1439 66.4814 10.1439C67.4159 10.1439 67.8107 10.5519 67.8765 10.6308L67.3106 11.3152C67.2711 11.2626 67.0342 11.052 66.6393 11.052C66.1392 11.052 65.876 11.3415 65.876 11.9075V13.092H67.7581V14.0001H65.876V19.541H64.8757ZM69.5046 12.0522C69.0703 12.0522 68.7412 11.7232 68.7412 11.302C68.7412 10.8809 69.0703 10.5519 69.5046 10.5519C69.9126 10.5519 70.2416 10.8809 70.2416 11.302C70.2416 11.7232 69.9126 12.0522 69.5046 12.0522ZM69.0045 19.541V13.092H70.0047V19.541H69.0045ZM71.9199 19.541V10.3281H72.9202V19.541H71.9199ZM76.8925 19.7253C75.9317 19.7253 75.3 19.1067 75.3 18.0538V14.0001H74.1023V13.092H75.3V11.4073H76.3002V13.092H78.156V14.0001H76.3002V17.9617C76.3002 18.5671 76.5766 18.7908 77.0504 18.7908C77.3663 18.7908 77.6032 18.646 77.7217 18.5408L78.235 19.2383C78.077 19.4357 77.6295 19.7253 76.8925 19.7253ZM85.0398 16.5929H79.8016C79.8542 17.8695 80.736 18.8698 82.0258 18.8698C83.0524 18.8698 83.7631 18.2775 83.9737 17.6195L84.8555 17.8959C84.5265 18.8435 83.5789 19.7253 82.0258 19.7253C80.0516 19.7253 78.8145 18.1854 78.8145 16.3165C78.8145 14.4608 80.1701 12.9077 82.0127 12.9077C83.8158 12.9209 85.0398 14.1844 85.0398 16.1586V16.5929ZM84.1053 15.7637C84.0263 14.645 83.1972 13.7632 82.0258 13.7632C80.7492 13.7632 79.9727 14.6713 79.8147 15.7637H84.1053ZM86.5721 19.541V13.092H87.4144L87.5592 13.9475C87.8619 13.4079 88.4805 12.9077 89.3228 12.9077C89.8888 12.9077 90.3231 13.092 90.5073 13.2499L90.0993 14.1054C89.9677 14.0001 89.6387 13.8553 89.2044 13.8553C88.3094 13.8553 87.5724 14.6713 87.5724 15.9217V19.541H86.5721Z" fill="#420001"/>
<rect x="0.470046" y="0.470046" width="104.825" height="29.1429" rx="5.17051" stroke="#6D6C6B" stroke-width="0.940092"/>
<rect x="113.285" width="196.761" height="30.083" rx="5.64055" fill="#EBEAFF"/>
<path d="M138.968 10.3281V19.541H137.954V12.1839L134.822 19.541H134.006L130.9 12.2102L130.874 19.541H129.873V10.3281H131.084L134.427 18.1854L137.757 10.3281H138.968ZM146.922 16.5929H141.683C141.736 17.8695 142.618 18.8698 143.908 18.8698C144.934 18.8698 145.645 18.2775 145.855 17.6195L146.737 17.8959C146.408 18.8435 145.461 19.7253 143.908 19.7253C141.933 19.7253 140.696 18.1854 140.696 16.3165C140.696 14.4608 142.052 12.9077 143.894 12.9077C145.698 12.9209 146.922 14.1844 146.922 16.1586V16.5929ZM145.987 15.7637C145.908 14.645 145.079 13.7632 143.908 13.7632C142.631 13.7632 141.854 14.6713 141.697 15.7637H145.987ZM151.205 19.7121C149.27 19.7121 148.138 17.9617 148.138 16.3033C148.138 14.6319 149.138 12.9077 151.205 12.9077C152.258 12.9077 153.008 13.3947 153.468 14.0264V10.3281H154.469V19.541H153.639L153.508 18.5934C153.074 19.1857 152.337 19.7121 151.205 19.7121ZM151.31 18.8171C152.613 18.8171 153.482 17.7511 153.482 16.3033C153.482 14.8556 152.613 13.8027 151.31 13.8027C150.02 13.8027 149.138 14.8424 149.138 16.3033C149.138 17.7511 150.02 18.8171 151.31 18.8171ZM156.899 12.0522C156.465 12.0522 156.136 11.7232 156.136 11.302C156.136 10.8809 156.465 10.5519 156.899 10.5519C157.307 10.5519 157.636 10.8809 157.636 11.302C157.636 11.7232 157.307 12.0522 156.899 12.0522ZM156.399 19.541V13.092H157.399V19.541H156.399ZM161.276 19.7253C159.788 19.7253 159.038 18.804 159.038 17.7774C159.038 16.6455 159.749 15.948 161.512 15.6979L163.237 15.4479V15.2373C163.237 14.2765 162.723 13.75 161.657 13.75C160.578 13.75 160.157 14.316 160.052 15.0793L159.143 14.8424C159.394 13.6184 160.262 12.9077 161.657 12.9077C163.237 12.9077 164.237 13.7106 164.237 15.2241V19.541H163.395L163.276 18.8698C162.921 19.3699 162.302 19.7253 161.276 19.7253ZM161.486 18.8566C162.381 18.8566 163.237 18.3697 163.237 17.2115V16.2639L161.631 16.5008C160.657 16.6455 160.012 16.9351 160.012 17.7248C160.012 18.4223 160.578 18.8566 161.486 18.8566ZM172.899 19.7121C171.768 19.7121 171.03 19.1857 170.609 18.5934L170.478 19.541H169.635V10.3281H170.636V14.0264C171.109 13.3947 171.846 12.9077 172.899 12.9077C174.966 12.9077 175.966 14.6319 175.966 16.3033C175.966 17.9617 174.847 19.7121 172.899 19.7121ZM172.794 18.8171C174.084 18.8171 174.966 17.7511 174.966 16.3033C174.966 14.8424 174.084 13.8027 172.794 13.8027C171.491 13.8027 170.622 14.8556 170.622 16.3033C170.622 17.7511 171.491 18.8171 172.794 18.8171ZM182.858 13.092V19.541H182.016L181.858 18.6724C181.345 19.3699 180.621 19.7253 179.7 19.7253C178.436 19.7253 177.488 19.0014 177.488 17.3168V13.092H178.489V17.0799C178.489 18.4486 179.173 18.7908 180.015 18.7908C180.95 18.7908 181.858 18.0406 181.858 16.764V13.092H182.858ZM189.266 13.092H190.266V19.5542C190.266 20.9756 189.529 22.4628 187.436 22.4628C185.87 22.4628 185.028 21.6073 184.699 20.4097L185.66 20.1859C185.87 21.0677 186.41 21.5679 187.436 21.5679C188.7 21.5679 189.266 20.765 189.266 19.5805V18.6066L189.253 18.5408C188.7 19.2383 188.094 19.5805 187.028 19.5805C185.857 19.5805 184.712 18.8961 184.712 17.2115V13.092H185.712V16.8824C185.712 18.2512 186.397 18.646 187.318 18.646C188.384 18.646 189.266 17.8959 189.266 16.606V13.092ZM192.707 12.0522C192.273 12.0522 191.944 11.7232 191.944 11.302C191.944 10.8809 192.273 10.5519 192.707 10.5519C193.115 10.5519 193.444 10.8809 193.444 11.302C193.444 11.7232 193.115 12.0522 192.707 12.0522ZM192.207 19.541V13.092H193.207V19.541H192.207ZM195.123 19.541V13.092H195.965L196.11 13.9606C196.623 13.2631 197.347 12.9077 198.268 12.9077C199.545 12.9077 200.492 13.6316 200.492 15.3162V19.541H199.492V15.5531C199.492 14.1844 198.808 13.8422 197.965 13.8422C197.018 13.8422 196.123 14.5924 196.123 15.869V19.541H195.123ZM205.176 22.4628C203.517 22.4628 202.649 21.581 202.32 20.3965L203.267 20.1728C203.491 21.0414 204.07 21.5942 205.176 21.5942C206.65 21.5942 207.321 20.7913 207.321 19.5805V18.4223C206.953 19.0409 206.189 19.6068 205.084 19.6068C203.031 19.6068 202.017 17.9222 202.017 16.277C202.017 14.6319 203.109 12.9077 205.071 12.9077C206.189 12.9077 206.9 13.4079 207.321 14.0133L207.479 13.092H208.321V19.5542C208.321 20.9756 207.505 22.4628 205.176 22.4628ZM205.202 18.7119C206.452 18.7119 207.321 17.7248 207.321 16.277C207.321 14.8161 206.439 13.8027 205.176 13.8027C203.873 13.8027 203.017 14.8161 203.017 16.277C203.017 17.7248 203.912 18.7119 205.202 18.7119ZM220.351 14.1449V15.0135H219.39V16.9088C219.39 18.5934 218.166 19.7384 216.547 19.7384C214.784 19.7384 213.533 18.6066 213.533 16.9088C213.533 15.8295 214.099 14.9609 215.007 14.5002C214.415 14.0791 214.06 13.4342 214.06 12.6445C214.06 11.1836 215.205 10.157 216.758 10.157C218.14 10.157 219.087 10.9204 219.298 12.0391L218.363 12.276C218.219 11.4995 217.574 11.052 216.758 11.052C215.797 11.052 215.06 11.6442 215.06 12.605C215.06 13.579 215.81 14.1317 216.758 14.1317H218.416V13.171H219.39V14.1449H220.351ZM218.416 16.9088V15.0004H216.666C215.547 15.0004 214.56 15.6979 214.56 16.9088C214.56 18.1064 215.507 18.8171 216.547 18.8171C217.574 18.8171 218.416 18.1064 218.416 16.9088ZM227.643 19.7253C226.288 19.7253 225.38 19.0804 224.998 17.7511L225.906 17.4615C226.09 18.067 226.419 18.8435 227.643 18.8435C228.512 18.8435 229.157 18.4881 229.157 17.8037C229.157 17.4352 229.078 16.9746 227.657 16.7377C226.367 16.5139 225.261 16.0928 225.261 14.803C225.261 13.5658 226.367 12.9077 227.643 12.9077C228.986 12.9077 229.789 13.6316 230.065 14.8161L229.144 15.053C229.012 14.3818 228.578 13.7895 227.643 13.7895C226.525 13.7895 226.222 14.3423 226.222 14.7898C226.222 15.4347 226.919 15.6453 227.828 15.8164C229.157 16.0533 230.131 16.5271 230.131 17.7906C230.131 18.9751 228.999 19.7253 227.643 19.7253ZM237.573 16.5929H232.334C232.387 17.8695 233.269 18.8698 234.559 18.8698C235.585 18.8698 236.296 18.2775 236.506 17.6195L237.388 17.8959C237.059 18.8435 236.112 19.7253 234.559 19.7253C232.584 19.7253 231.347 18.1854 231.347 16.3165C231.347 14.4608 232.703 12.9077 234.545 12.9077C236.349 12.9209 237.573 14.1844 237.573 16.1586V16.5929ZM236.638 15.7637C236.559 14.645 235.73 13.7632 234.559 13.7632C233.282 13.7632 232.505 14.6713 232.347 15.7637H236.638ZM239.105 19.541V13.092H239.947L240.092 13.9475C240.395 13.4079 241.013 12.9077 241.856 12.9077C242.422 12.9077 242.856 13.092 243.04 13.2499L242.632 14.1054C242.5 14.0001 242.171 13.8553 241.737 13.8553C240.842 13.8553 240.105 14.6713 240.105 15.9217V19.541H239.105ZM248.653 13.092H249.666L247.205 19.541H246.126L243.652 13.092H244.678L246.666 18.396L248.653 13.092ZM251.419 12.0522C250.985 12.0522 250.656 11.7232 250.656 11.302C250.656 10.8809 250.985 10.5519 251.419 10.5519C251.827 10.5519 252.156 10.8809 252.156 11.302C252.156 11.7232 251.827 12.0522 251.419 12.0522ZM250.919 19.541V13.092H251.919V19.541H250.919ZM256.769 19.7253C254.663 19.7253 253.518 18.0406 253.518 16.3165C253.518 14.5792 254.716 12.9077 256.769 12.9077C258.27 12.9077 259.204 13.7764 259.573 14.8688L258.664 15.1846C258.375 14.3423 257.704 13.8159 256.769 13.8159C255.44 13.8159 254.519 14.8688 254.519 16.3165C254.519 17.7642 255.44 18.8171 256.769 18.8171C257.69 18.8171 258.388 18.2644 258.678 17.3957L259.586 17.7116C259.178 18.8303 258.217 19.7253 256.769 19.7253ZM267.044 16.5929H261.806C261.858 17.8695 262.74 18.8698 264.03 18.8698C265.057 18.8698 265.767 18.2775 265.978 17.6195L266.86 17.8959C266.531 18.8435 265.583 19.7253 264.03 19.7253C262.056 19.7253 260.819 18.1854 260.819 16.3165C260.819 14.4608 262.174 12.9077 264.017 12.9077C265.82 12.9209 267.044 14.1844 267.044 16.1586V16.5929ZM266.11 15.7637C266.031 14.645 265.201 13.7632 264.03 13.7632C262.753 13.7632 261.977 14.6713 261.819 15.7637H266.11ZM270.803 19.7253C269.448 19.7253 268.539 19.0804 268.158 17.7511L269.066 17.4615C269.25 18.067 269.579 18.8435 270.803 18.8435C271.672 18.8435 272.317 18.4881 272.317 17.8037C272.317 17.4352 272.238 16.9746 270.816 16.7377C269.526 16.5139 268.421 16.0928 268.421 14.803C268.421 13.5658 269.526 12.9077 270.803 12.9077C272.146 12.9077 272.948 13.6316 273.225 14.8161L272.304 15.053C272.172 14.3818 271.738 13.7895 270.803 13.7895C269.684 13.7895 269.382 14.3423 269.382 14.7898C269.382 15.4347 270.079 15.6453 270.987 15.8164C272.317 16.0533 273.291 16.5271 273.291 17.7906C273.291 18.9751 272.159 19.7253 270.803 19.7253Z" fill="#423E30"/>
<path d="M289.189 15.0411L293.044 10.4463C293.109 10.3699 293.054 10.2539 292.954 10.2539H291.783C291.714 10.2539 291.647 10.2847 291.602 10.3376L288.423 14.1277L285.243 10.3376C285.199 10.2847 285.133 10.2539 285.063 10.2539H283.891C283.791 10.2539 283.737 10.3699 283.801 10.4463L287.656 15.0411L283.801 19.636C283.787 19.653 283.778 19.6738 283.775 19.6959C283.772 19.7181 283.775 19.7406 283.785 19.7609C283.794 19.7811 283.809 19.7983 283.828 19.8102C283.847 19.8222 283.869 19.8285 283.891 19.8283H285.063C285.132 19.8283 285.198 19.7975 285.243 19.7446L288.423 15.9545L291.602 19.7446C291.646 19.7975 291.712 19.8283 291.783 19.8283H292.954C293.054 19.8283 293.109 19.7123 293.044 19.636L289.189 15.0411Z" fill="#423E30"/>
<rect x="317.566" width="77.7612" height="30.083" rx="5.64055" fill="#EBEAFF"/>
<path d="M337.48 19.7253C335.519 19.7253 334.111 18.5802 334.111 16.2112V10.3281H335.137V16.1586C335.137 18.0801 336.124 18.7908 337.48 18.7908C338.822 18.7908 339.836 18.0801 339.836 16.1586V10.3281H340.862V16.2244C340.862 18.646 339.401 19.7253 337.48 19.7253ZM345.993 19.7121C344.203 19.7121 342.992 18.8566 342.531 17.0667L343.492 16.7903C343.834 18.1328 344.611 18.7908 345.993 18.7908C347.243 18.7908 348.23 18.2249 348.23 17.0667C348.23 16.4481 348.085 15.7242 346.032 15.3426C344.163 15.0004 342.86 14.316 342.86 12.7235C342.86 11.1046 344.255 10.1307 345.979 10.1307C347.704 10.1307 348.691 11.0915 349.099 12.6577L348.138 12.934C347.875 11.8153 347.269 11.052 345.979 11.052C344.755 11.052 343.887 11.6574 343.887 12.7235C343.887 13.7237 344.716 14.0659 346.216 14.3555C348.217 14.7503 349.257 15.5005 349.257 17.0667C349.257 18.6855 347.822 19.7121 345.993 19.7121ZM350.922 19.541V10.3281H353.765C357.345 10.3281 358.384 12.7366 358.384 14.8819C358.384 17.1983 357.134 19.541 353.936 19.541H350.922ZM351.949 18.6197H353.857C356.516 18.6197 357.358 16.7377 357.358 14.8688C357.358 13.0525 356.647 11.2494 353.739 11.2494H351.949V18.6197Z" fill="#423E30"/>
<path d="M374.471 15.0411L378.325 10.4463C378.39 10.3699 378.336 10.2539 378.236 10.2539H377.064C376.995 10.2539 376.929 10.2847 376.883 10.3376L373.704 14.1277L370.525 10.3376C370.481 10.2847 370.415 10.2539 370.344 10.2539H369.172C369.072 10.2539 369.018 10.3699 369.083 10.4463L372.937 15.0411L369.083 19.636C369.068 19.653 369.059 19.6738 369.056 19.6959C369.053 19.7181 369.056 19.7406 369.066 19.7609C369.075 19.7811 369.09 19.7983 369.109 19.8102C369.128 19.8222 369.15 19.8285 369.172 19.8283H370.344C370.413 19.8283 370.479 19.7975 370.525 19.7446L373.704 15.9545L376.883 19.7446C376.927 19.7975 376.993 19.8283 377.064 19.8283H378.236C378.336 19.8283 378.39 19.7123 378.325 19.636L374.471 15.0411Z" fill="#423E30"/>
<g clip-path="url(#clip0_157_12116)">
<path d="M503.2 9.78418H492.386C492.026 9.78418 491.801 10.1764 491.982 10.4892L495.398 16.2973V19.8314C495.398 20.0914 495.607 20.3015 495.865 20.3015H499.72C499.978 20.3015 500.187 20.0914 500.187 19.8314V16.2973L503.605 10.4892C503.784 10.1764 503.56 9.78418 503.2 9.78418ZM499.135 19.2439H496.45V16.9524H499.137V19.2439H499.135ZM499.276 15.7685L499.137 16.0123H496.449L496.309 15.7685L493.396 10.8418H502.189L499.276 15.7685Z" fill="#420001"/>
</g>
<path d="M516.188 19.7121C514.372 19.7121 513.108 18.804 512.661 17.093L514.161 16.6587C514.477 17.7248 515.016 18.2644 516.188 18.2644C517.228 18.2644 517.978 17.8169 517.978 16.9482C517.978 16.3297 517.596 15.869 516.175 15.619C514.095 15.2373 512.924 14.4344 512.924 12.8551C512.924 11.2494 514.266 10.1307 516.175 10.1307C517.872 10.1307 519.004 11.0651 519.399 12.6445L517.899 13.0657C517.649 12.118 517.188 11.5784 516.175 11.5784C515.214 11.5784 514.529 11.9996 514.529 12.8551C514.529 13.579 515.214 13.8422 516.464 14.1054C518.57 14.5266 519.583 15.3557 519.583 16.9482C519.583 18.6329 518.083 19.7121 516.188 19.7121ZM522.751 19.7253C521.514 19.7253 520.5 18.9488 520.5 17.6984C520.5 16.7377 521 15.8164 523.093 15.5268L524.501 15.3294V15.2504C524.501 14.5002 524.133 14.0528 523.29 14.0528C522.461 14.0528 522.093 14.4476 521.987 15.1188L520.592 14.7766C520.948 13.4737 521.777 12.7893 523.343 12.7893C524.804 12.7893 526.081 13.5131 526.081 15.2241V19.541H524.751L524.58 18.9488C524.317 19.3173 523.804 19.7253 522.751 19.7253ZM523.172 18.4486C523.883 18.4486 524.501 18.0275 524.501 17.2378V16.4744L523.198 16.6719C522.382 16.7903 522.014 17.0667 522.014 17.6063C522.014 18.1064 522.448 18.4486 523.172 18.4486ZM531.806 12.9735H533.425L530.937 19.541H529.279L526.791 12.9735H528.41L530.108 17.7511L531.806 12.9735ZM540.239 16.7771H535.33C535.396 17.6063 536.106 18.4223 537.146 18.4223C538.067 18.4223 538.594 17.8695 538.752 17.422L540.081 17.83C539.699 18.883 538.752 19.7253 537.146 19.7253C535.264 19.7253 533.816 18.2775 533.816 16.2507C533.816 14.2633 535.264 12.7893 537.133 12.7893C539.041 12.7893 540.239 14.1712 540.239 16.1717V16.7771ZM538.844 15.5663C538.804 14.974 538.278 14.0922 537.146 14.0922C536.08 14.0922 535.488 14.8161 535.343 15.5663H538.844ZM545.829 19.541V14.3555H544.697V12.9735H545.829V12.0786C545.829 10.8282 546.671 10.1307 547.685 10.1307C548.685 10.1307 549.159 10.5387 549.317 10.6966L548.632 11.789C548.54 11.71 548.356 11.5653 548.014 11.5653C547.619 11.5653 547.408 11.8022 547.408 12.2628V12.9735H549.08V14.3555H547.408V19.541H545.829ZM551.014 12.0786C550.5 12.0786 550.092 11.6574 550.092 11.1441C550.092 10.6308 550.5 10.2097 551.014 10.2097C551.527 10.2097 551.961 10.6308 551.961 11.1441C551.961 11.6574 551.527 12.0786 551.014 12.0786ZM550.25 19.541V12.9735H551.83V19.541H550.25ZM553.462 19.541V10.3281H555.042V19.541H553.462ZM559.085 19.7253C558.072 19.7253 557.229 19.0672 557.229 17.7774V14.3555H556.098V12.9735H557.229V11.2626H558.809V12.9735H560.48V14.3555H558.809V17.5537C558.809 18.0406 559.032 18.2512 559.427 18.2512C559.717 18.2512 559.914 18.1328 560.033 18.0275L560.691 19.1462C560.507 19.3699 559.993 19.7253 559.085 19.7253ZM567.5 16.7771H562.591C562.656 17.6063 563.367 18.4223 564.407 18.4223C565.328 18.4223 565.855 17.8695 566.013 17.422L567.342 17.83C566.96 18.883 566.013 19.7253 564.407 19.7253C562.525 19.7253 561.077 18.2775 561.077 16.2507C561.077 14.2633 562.525 12.7893 564.394 12.7893C566.302 12.7893 567.5 14.1712 567.5 16.1717V16.7771ZM566.105 15.5663C566.065 14.974 565.539 14.0922 564.407 14.0922C563.341 14.0922 562.749 14.8161 562.604 15.5663H566.105ZM568.796 19.541V12.9735H570.099L570.322 13.7369C570.599 13.2631 571.151 12.7893 571.981 12.7893C572.507 12.7893 572.902 12.9472 573.113 13.1051L572.547 14.4871C572.415 14.3818 572.139 14.2633 571.757 14.2633C570.994 14.2633 570.375 14.8688 570.375 15.9611V19.541H568.796ZM582.086 12.9735H583.705L581.217 19.541H579.559L577.071 12.9735H578.69L580.388 17.7511L582.086 12.9735ZM585.498 12.0786C584.984 12.0786 584.576 11.6574 584.576 11.1441C584.576 10.6308 584.984 10.2097 585.498 10.2097C586.011 10.2097 586.445 10.6308 586.445 11.1441C586.445 11.6574 586.011 12.0786 585.498 12.0786ZM584.734 19.541V12.9735H586.314V19.541H584.734ZM594.079 16.7771H589.17C589.236 17.6063 589.947 18.4223 590.987 18.4223C591.908 18.4223 592.434 17.8695 592.592 17.422L593.922 17.83C593.54 18.883 592.592 19.7253 590.987 19.7253C589.105 19.7253 587.657 18.2775 587.657 16.2507C587.657 14.2633 589.105 12.7893 590.973 12.7893C592.882 12.7893 594.079 14.1712 594.079 16.1717V16.7771ZM592.684 15.5663C592.645 14.974 592.118 14.0922 590.987 14.0922C589.921 14.0922 589.328 14.8161 589.183 15.5663H592.684ZM602.869 12.9735H604.448L602.408 19.541H600.803L599.513 14.9872L598.223 19.541H596.604L594.564 12.9735H596.144L597.446 17.6984L598.776 12.9735H600.25L601.579 17.6721L602.869 12.9735Z" fill="#420001"/>
<path d="M416.089 19.7121C413.417 19.7121 411.483 17.83 411.483 14.9214C411.483 12.1444 413.378 10.1307 416.063 10.1307C418.011 10.1307 419.551 11.1178 420.169 12.9999L418.629 13.5C418.287 12.3813 417.471 11.6179 416.076 11.6179C414.339 11.6179 413.088 13.0525 413.088 14.9346C413.088 16.9088 414.391 18.238 416.116 18.238C417.537 18.238 418.3 17.4484 418.616 16.5271L420.13 17.0272C419.485 18.7119 418.142 19.7121 416.089 19.7121ZM421.485 19.541V10.3281H423.065V19.541H421.485ZM430.78 16.7771H425.871C425.937 17.6063 426.648 18.4223 427.687 18.4223C428.609 18.4223 429.135 17.8695 429.293 17.422L430.622 17.83C430.241 18.883 429.293 19.7253 427.687 19.7253C425.805 19.7253 424.358 18.2775 424.358 16.2507C424.358 14.2633 425.805 12.7893 427.674 12.7893C429.583 12.7893 430.78 14.1712 430.78 16.1717V16.7771ZM429.385 15.5663C429.346 14.974 428.819 14.0922 427.687 14.0922C426.621 14.0922 426.029 14.8161 425.884 15.5663H429.385ZM434.011 19.7253C432.774 19.7253 431.76 18.9488 431.76 17.6984C431.76 16.7377 432.26 15.8164 434.353 15.5268L435.761 15.3294V15.2504C435.761 14.5002 435.393 14.0528 434.55 14.0528C433.721 14.0528 433.353 14.4476 433.247 15.1188L431.852 14.7766C432.208 13.4737 433.037 12.7893 434.603 12.7893C436.064 12.7893 437.341 13.5131 437.341 15.2241V19.541H436.011L435.84 18.9488C435.577 19.3173 435.064 19.7253 434.011 19.7253ZM434.432 18.4486C435.143 18.4486 435.761 18.0275 435.761 17.2378V16.4744L434.458 16.6719C433.642 16.7903 433.274 17.0667 433.274 17.6063C433.274 18.1064 433.708 18.4486 434.432 18.4486ZM438.785 19.541V12.9735H440.088L440.312 13.7369C440.588 13.2631 441.141 12.7893 441.97 12.7893C442.497 12.7893 442.892 12.9472 443.102 13.1051L442.536 14.4871C442.405 14.3818 442.128 14.2633 441.747 14.2633C440.983 14.2633 440.365 14.8688 440.365 15.9611V19.541H438.785ZM449.601 19.7253C448.364 19.7253 447.351 18.9488 447.351 17.6984C447.351 16.7377 447.851 15.8164 449.943 15.5268L451.352 15.3294V15.2504C451.352 14.5002 450.983 14.0528 450.141 14.0528C449.312 14.0528 448.943 14.4476 448.838 15.1188L447.443 14.7766C447.798 13.4737 448.627 12.7893 450.194 12.7893C451.654 12.7893 452.931 13.5131 452.931 15.2241V19.541H451.602L451.431 18.9488C451.167 19.3173 450.654 19.7253 449.601 19.7253ZM450.022 18.4486C450.733 18.4486 451.352 18.0275 451.352 17.2378V16.4744L450.049 16.6719C449.233 16.7903 448.864 17.0667 448.864 17.6063C448.864 18.1064 449.299 18.4486 450.022 18.4486ZM454.376 19.541V10.3281H455.955V19.541H454.376ZM457.538 19.541V10.3281H459.117V19.541H457.538Z" fill="#420001"/>
<rect x="475.234" width="0.940092" height="30.083" fill="#E5E4E1"/>
<rect x="0.470046" y="39.2484" width="600.719" height="269.281" rx="5.17051" fill="white"/>
<path d="M5.64055 39.2484H225.152V308.53H5.64055C2.78496 308.53 0.470046 306.215 0.470046 303.359V44.4189C0.470046 41.5633 2.78496 39.2484 5.64055 39.2484Z" fill="white"/>
<g clip-path="url(#clip1_157_12116)">
<path d="M19.5083 67.3633H8.69428C8.3344 67.3633 8.10966 67.7555 8.29033 68.0684L11.707 73.8764V77.4105C11.707 77.6705 11.9156 77.8806 12.1741 77.8806H16.0285C16.287 77.8806 16.4956 77.6705 16.4956 77.4105V73.8764L19.9137 68.0684C20.0929 67.7555 19.8682 67.3633 19.5083 67.3633ZM15.4438 76.823H12.7587V74.5315H15.4453V76.823H15.4438ZM15.5849 73.3476L15.4453 73.5914H12.7572L12.6177 73.3476L9.70488 68.4209H18.4977L15.5849 73.3476Z" fill="#423E30"/>
<path d="M38.4163 67.9082V77.1211H37.4029V69.7639L34.2705 77.1211H33.4545L30.3484 69.7903L30.3221 77.1211H29.3218V67.9082H30.5327L33.8756 75.7655L37.2054 67.9082H38.4163ZM45.0276 70.6721H46.0278V77.1343C46.0278 78.5557 45.2908 80.0429 43.1982 80.0429C41.632 80.0429 40.7896 79.1874 40.4606 77.9897L41.4214 77.766C41.632 78.6478 42.1716 79.1479 43.1982 79.1479C44.4616 79.1479 45.0276 78.3451 45.0276 77.1606V76.1866L45.0144 76.1208C44.4616 76.8184 43.8562 77.1606 42.7902 77.1606C41.6188 77.1606 40.4738 76.4762 40.4738 74.7915V70.6721H41.474V74.4625C41.474 75.8313 42.1584 76.2261 43.0797 76.2261C44.1458 76.2261 45.0276 75.4759 45.0276 74.1861V70.6721ZM52.0787 77.1211V71.5802H50.9074V70.6721H52.0787V69.4086C52.0787 68.3952 52.7368 67.7239 53.6844 67.7239C54.6189 67.7239 55.0137 68.1319 55.0795 68.2109L54.5136 68.8953C54.4741 68.8426 54.2372 68.6321 53.8423 68.6321C53.3422 68.6321 53.079 68.9216 53.079 69.4875V70.6721H54.9611V71.5802H53.079V77.1211H52.0787ZM56.7076 69.6323C56.2733 69.6323 55.9442 69.3033 55.9442 68.8821C55.9442 68.461 56.2733 68.1319 56.7076 68.1319C57.1156 68.1319 57.4446 68.461 57.4446 68.8821C57.4446 69.3033 57.1156 69.6323 56.7076 69.6323ZM56.2075 77.1211V70.6721H57.2077V77.1211H56.2075ZM59.1229 77.1211V67.9082H60.1232V77.1211H59.1229ZM64.0955 77.3054C63.1347 77.3054 62.503 76.6868 62.503 75.6339V71.5802H61.3053V70.6721H62.503V68.9874H63.5032V70.6721H65.359V71.5802H63.5032V75.5417C63.5032 76.1472 63.7796 76.3709 64.2534 76.3709C64.5693 76.3709 64.8062 76.2261 64.9247 76.1208L65.438 76.8184C65.28 77.0158 64.8325 77.3054 64.0955 77.3054ZM72.2428 74.173H67.0046C67.0572 75.4496 67.939 76.4499 69.2288 76.4499C70.2554 76.4499 70.9661 75.8576 71.1767 75.1995L72.0585 75.4759C71.7295 76.4235 70.7819 77.3054 69.2288 77.3054C67.2546 77.3054 66.0175 75.7655 66.0175 73.8966C66.0175 72.0408 67.3731 70.4878 69.2157 70.4878C71.0188 70.501 72.2428 71.7644 72.2428 73.7386V74.173ZM71.3083 73.3438C71.2293 72.2251 70.4002 71.3433 69.2288 71.3433C67.9522 71.3433 67.1757 72.2514 67.0177 73.3438H71.3083ZM73.7751 77.1211V70.6721H74.6174L74.7622 71.5275C75.0649 70.9879 75.6835 70.4878 76.5258 70.4878C77.0918 70.4878 77.5261 70.6721 77.7103 70.83L77.3023 71.6855C77.1707 71.5802 76.8417 71.4354 76.4074 71.4354C75.5124 71.4354 74.7754 72.2514 74.7754 73.5017V77.1211H73.7751ZM86.7548 70.6721H87.7682L85.3071 77.1211H84.2279L81.7535 70.6721H82.7801L84.7675 75.9761L86.7548 70.6721ZM89.5209 69.6323C89.0865 69.6323 88.7575 69.3033 88.7575 68.8821C88.7575 68.461 89.0865 68.1319 89.5209 68.1319C89.9289 68.1319 90.2579 68.461 90.2579 68.8821C90.2579 69.3033 89.9289 69.6323 89.5209 69.6323ZM89.0207 77.1211V70.6721H90.021V77.1211H89.0207ZM97.8456 74.173H92.6074C92.66 75.4496 93.5418 76.4499 94.8316 76.4499C95.8582 76.4499 96.5689 75.8576 96.7795 75.1995L97.6613 75.4759C97.3323 76.4235 96.3847 77.3054 94.8316 77.3054C92.8575 77.3054 91.6203 75.7655 91.6203 73.8966C91.6203 72.0408 92.9759 70.4878 94.8185 70.4878C96.6216 70.501 97.8456 71.7644 97.8456 73.7386V74.173ZM96.9111 73.3438C96.8322 72.2251 96.003 71.3433 94.8316 71.3433C93.555 71.3433 92.7785 72.2514 92.6206 73.3438H96.9111ZM106.765 70.6721H107.779L105.791 77.1211H104.765L103.172 71.9355L101.58 77.1211H100.527L98.5393 70.6721H99.5527L101.066 75.8708L102.619 70.6721H103.685L105.252 75.8444L106.765 70.6721ZM111.141 77.3054C109.786 77.3054 108.878 76.6604 108.496 75.3312L109.404 75.0416C109.588 75.647 109.917 76.4235 111.141 76.4235C112.01 76.4235 112.655 76.0682 112.655 75.3838C112.655 75.0153 112.576 74.5546 111.155 74.3177C109.865 74.094 108.759 73.6728 108.759 72.383C108.759 71.1459 109.865 70.4878 111.141 70.4878C112.484 70.4878 113.287 71.2117 113.563 72.3962L112.642 72.6331C112.51 71.9619 112.076 71.3696 111.141 71.3696C110.023 71.3696 109.72 71.9224 109.72 72.3699C109.72 73.0148 110.418 73.2254 111.326 73.3964C112.655 73.6334 113.629 74.1072 113.629 75.3706C113.629 76.5552 112.497 77.3054 111.141 77.3054Z" fill="#423E30"/>
</g>
<g clip-path="url(#clip2_157_12116)">
<g clip-path="url(#clip3_157_12116)">
<path d="M19.5279 104.376H8.71991C8.45999 104.376 8.25 104.586 8.25 104.846V115.654C8.25 115.914 8.45999 116.124 8.71991 116.124H19.5279C19.7878 116.124 19.9978 115.914 19.9978 115.654V104.846C19.9978 104.586 19.7878 104.376 19.5279 104.376ZM18.9405 111.19H14.3588V109.31H18.9405V111.19ZM18.9405 115.066H9.3073V105.433H18.9405V108.37H13.8889C13.629 108.37 13.419 108.58 13.419 108.84V111.66C13.419 111.92 13.629 112.13 13.8889 112.13H18.9405V115.066ZM15.1224 110.25C15.1224 110.406 15.1843 110.555 15.2945 110.665C15.4046 110.775 15.554 110.837 15.7098 110.837C15.8656 110.837 16.015 110.775 16.1252 110.665C16.2353 110.555 16.2972 110.406 16.2972 110.25C16.2972 110.094 16.2353 109.945 16.1252 109.835C16.015 109.724 15.8656 109.662 15.7098 109.662C15.554 109.662 15.4046 109.724 15.2945 109.835C15.1843 109.945 15.1224 110.094 15.1224 110.25Z" fill="#423E30"/>
</g>
<path d="M35.4116 114.725L34.4508 112.145H30.5551L29.5943 114.725H28.5414L31.9765 105.512H33.0294L36.4777 114.725H35.4116ZM30.8973 111.224H34.1086L32.503 106.894L30.8973 111.224ZM40.2813 114.909C38.1755 114.909 37.0304 113.224 37.0304 111.5C37.0304 109.763 38.2281 108.091 40.2813 108.091C41.7817 108.091 42.7161 108.96 43.0846 110.052L42.1765 110.368C41.887 109.526 41.2157 108.999 40.2813 108.999C38.952 108.999 38.0307 110.052 38.0307 111.5C38.0307 112.948 38.952 114.001 40.2813 114.001C41.2026 114.001 41.9001 113.448 42.1897 112.579L43.0978 112.895C42.6898 114.014 41.729 114.909 40.2813 114.909ZM47.5817 114.909C45.4759 114.909 44.3308 113.224 44.3308 111.5C44.3308 109.763 45.5285 108.091 47.5817 108.091C49.0821 108.091 50.0165 108.96 50.385 110.052L49.4769 110.368C49.1874 109.526 48.5161 108.999 47.5817 108.999C46.2524 108.999 45.3311 110.052 45.3311 111.5C45.3311 112.948 46.2524 114.001 47.5817 114.001C48.503 114.001 49.2005 113.448 49.4901 112.579L50.3982 112.895C49.9902 114.014 49.0294 114.909 47.5817 114.909ZM54.9216 114.909C52.8026 114.909 51.6313 113.185 51.6313 111.5C51.6313 109.802 52.8553 108.091 54.9216 108.091C57.0274 108.091 58.2382 109.802 58.2382 111.5C58.2382 113.185 57.0274 114.909 54.9216 114.909ZM54.9216 114.001C56.2903 114.001 57.238 112.908 57.238 111.5C57.238 110.079 56.2903 108.999 54.9216 108.999C53.566 108.999 52.6315 110.079 52.6315 111.5C52.6315 112.908 53.566 114.001 54.9216 114.001ZM65.1314 108.276V114.725H64.2891L64.1312 113.856C63.6179 114.554 62.894 114.909 61.9727 114.909C60.7093 114.909 59.7616 114.185 59.7616 112.5V108.276H60.7619V112.263C60.7619 113.632 61.4463 113.974 62.2886 113.974C63.2231 113.974 64.1312 113.224 64.1312 111.948V108.276H65.1314ZM66.9721 114.725V108.276H67.8144L67.9592 109.144C68.4725 108.447 69.1963 108.091 70.1176 108.091C71.3943 108.091 72.3419 108.815 72.3419 110.5V114.725H71.3416V110.737C71.3416 109.368 70.6572 109.026 69.8149 109.026C68.8673 109.026 67.9723 109.776 67.9723 111.053V114.725H66.9721ZM76.2118 114.909C75.251 114.909 74.6193 114.29 74.6193 113.237V109.184H73.4216V108.276H74.6193V106.591H75.6196V108.276H77.4753V109.184H75.6196V113.145C75.6196 113.751 75.8959 113.974 76.3697 113.974C76.6856 113.974 76.9225 113.83 77.041 113.724L77.5543 114.422C77.3963 114.619 76.9488 114.909 76.2118 114.909Z" fill="#423E30"/>
<rect x="184.43" y="99.7246" width="30.083" height="20.682" rx="2.82028" fill="#EBEAFF"/>
<path d="M199.432 114.725V106.63C198.946 106.946 198.116 107.223 197.564 107.315V106.328C198.143 106.209 198.893 105.88 199.432 105.512H200.459V114.725H199.432Z" fill="#423E30"/>
</g>
<g clip-path="url(#clip4_157_12116)">
<g clip-path="url(#clip5_157_12116)">
<path d="M20.2108 142.655H7.98958C7.72958 142.655 7.51953 142.865 7.51953 143.125V152.526C7.51953 152.786 7.72958 152.996 7.98958 152.996H20.2108C20.4708 152.996 20.6808 152.786 20.6808 152.526V143.125C20.6808 142.865 20.4708 142.655 20.2108 142.655ZM8.57713 143.713H19.6232V145.476H8.57713V143.713ZM19.6232 151.939H8.57713V146.768H19.6232V151.939ZM16.1419 150.999H18.5656C18.6302 150.999 18.6831 150.946 18.6831 150.881V149.823C18.6831 149.759 18.6302 149.706 18.5656 149.706H16.1419C16.0773 149.706 16.0244 149.759 16.0244 149.823V150.881C16.0244 150.946 16.0773 150.999 16.1419 150.999Z" fill="#423E30"/>
</g>
<path d="M33.6387 152.513C30.888 152.513 28.9928 150.526 28.9928 147.723C28.9928 144.972 30.9538 142.932 33.6124 142.932C35.6129 142.932 37.0475 144.051 37.6398 145.788L36.6658 146.117C36.1789 144.656 35.0996 143.866 33.6124 143.866C31.5461 143.866 30.0194 145.512 30.0194 147.723C30.0194 150 31.5066 151.579 33.6387 151.579C35.2181 151.579 36.2052 150.737 36.6395 149.513L37.6003 149.828C37.008 151.46 35.6393 152.513 33.6387 152.513ZM41.1749 152.513C39.6877 152.513 38.9375 151.592 38.9375 150.565C38.9375 149.434 39.6482 148.736 41.4118 148.486L43.1359 148.236V148.025C43.1359 147.065 42.6227 146.538 41.5566 146.538C40.4774 146.538 40.0562 147.104 39.9509 147.867L39.0428 147.631C39.2928 146.407 40.1615 145.696 41.5566 145.696C43.1359 145.696 44.1362 146.499 44.1362 148.012V152.329H43.2939L43.1754 151.658C42.8201 152.158 42.2015 152.513 41.1749 152.513ZM41.3855 151.645C42.2805 151.645 43.1359 151.158 43.1359 150V149.052L41.5303 149.289C40.5563 149.434 39.9114 149.723 39.9114 150.513C39.9114 151.21 40.4774 151.645 41.3855 151.645ZM45.8459 152.329V145.88H46.6883L46.833 146.736C47.1357 146.196 47.7543 145.696 48.5966 145.696C49.1626 145.696 49.5969 145.88 49.7812 146.038L49.3732 146.893C49.2416 146.788 48.9125 146.643 48.4782 146.643C47.5832 146.643 46.8462 147.459 46.8462 148.71V152.329H45.8459ZM53.2751 152.5C51.3404 152.5 50.2085 150.75 50.2085 149.091C50.2085 147.42 51.2088 145.696 53.2751 145.696C54.328 145.696 55.0782 146.183 55.5388 146.815V143.116H56.5391V152.329H55.7099L55.5783 151.381C55.144 151.974 54.4069 152.5 53.2751 152.5ZM53.3804 151.605C54.6833 151.605 55.552 150.539 55.552 149.091C55.552 147.644 54.6833 146.591 53.3804 146.591C52.0906 146.591 51.2088 147.631 51.2088 149.091C51.2088 150.539 52.0906 151.605 53.3804 151.605Z" fill="#423E30"/>
</g>
<g clip-path="url(#clip6_157_12116)">
<path d="M19.708 184.696C20.1618 184.696 20.3512 184.113 19.9826 183.845L14.3746 179.765C14.2945 179.706 14.1978 179.675 14.0985 179.675C13.9992 179.675 13.9025 179.706 13.8224 179.765L8.21432 183.845C7.84573 184.112 8.03516 184.696 8.49039 184.696H9.39937V190.188H8.34207C8.27746 190.188 8.2246 190.241 8.2246 190.306V191.069C8.2246 191.134 8.27746 191.187 8.34207 191.187H19.8549C19.9195 191.187 19.9724 191.134 19.9724 191.069V190.306C19.9724 190.241 19.9195 190.188 19.8549 190.188H18.7976V184.696H19.708ZM14.0985 180.8L18.0795 183.696H10.1175L14.0985 180.8ZM10.4567 184.696H12.1748V190.188H10.4567V184.696ZM13.2321 184.696H14.9502V190.188H13.2321V184.696ZM17.7403 190.188H16.0075V184.696H17.7403V190.188Z" fill="#7D76FF"/>
</g>
<path d="M33.4637 190.103C30.792 190.103 28.8573 188.221 28.8573 185.312C28.8573 182.535 30.7525 180.521 33.4374 180.521C35.3853 180.521 36.9252 181.508 37.5437 183.39L36.0039 183.891C35.6617 182.772 34.8457 182.009 33.4506 182.009C31.7133 182.009 30.463 183.443 30.463 185.325C30.463 187.299 31.7659 188.629 33.4901 188.629C34.9115 188.629 35.6748 187.839 35.9907 186.918L37.5043 187.418C36.8593 189.102 35.5169 190.103 33.4637 190.103ZM44.743 183.364V189.932H43.44L43.2163 189.142C42.8083 189.682 42.1897 190.116 41.2157 190.116C39.7153 190.116 38.8599 189.247 38.8599 187.326V183.364H40.4392V187.115C40.4392 188.286 40.9788 188.642 41.7159 188.642C42.5187 188.642 43.1636 188.076 43.1636 186.957V183.364H44.743ZM46.3274 189.932V183.364H47.6303L47.8541 184.128C48.1305 183.654 48.6832 183.18 49.5124 183.18C50.0388 183.18 50.4337 183.338 50.6443 183.496L50.0783 184.878C49.9467 184.772 49.6703 184.654 49.2886 184.654C48.5253 184.654 47.9067 185.259 47.9067 186.352V189.932H46.3274ZM51.5199 189.932V183.364H52.8229L53.0466 184.128C53.323 183.654 53.8758 183.18 54.7049 183.18C55.2314 183.18 55.6262 183.338 55.8368 183.496L55.2709 184.878C55.1392 184.772 54.8629 184.654 54.4812 184.654C53.7178 184.654 53.0992 185.259 53.0992 186.352V189.932H51.5199ZM62.4986 187.168H57.5894C57.6552 187.997 58.3659 188.813 59.4057 188.813C60.327 188.813 60.8534 188.26 61.0113 187.813L62.3406 188.221C61.959 189.274 61.0113 190.116 59.4057 190.116C57.5236 190.116 56.0759 188.668 56.0759 186.641C56.0759 184.654 57.5236 183.18 59.3925 183.18C61.3009 183.18 62.4986 184.562 62.4986 186.562V187.168ZM61.1035 185.957C61.064 185.365 60.5375 184.483 59.4057 184.483C58.3396 184.483 57.7473 185.207 57.6026 185.957H61.1035ZM63.7943 189.932V183.364H65.0973L65.321 184.154C65.729 183.614 66.3476 183.18 67.3216 183.18C68.8088 183.18 69.6774 184.035 69.6774 185.957V189.932H68.0981V186.168C68.0981 185.009 67.5585 184.641 66.8214 184.641C66.0186 184.641 65.3737 185.207 65.3737 186.325V189.932H63.7943ZM74.3679 190.116C72.3805 190.116 70.9723 188.602 70.9723 186.641C70.9723 184.693 72.3805 183.18 74.3679 183.18C75.842 183.18 76.9343 184.022 77.3292 185.246L75.8946 185.733C75.6577 185.062 75.1181 184.641 74.3679 184.641C73.3018 184.641 72.5516 185.457 72.5516 186.641C72.5516 187.826 73.3018 188.655 74.3679 188.655C75.0786 188.655 75.6182 188.273 75.8551 187.615L77.2897 188.102C76.8422 189.313 75.7893 190.116 74.3679 190.116ZM83.0487 183.364H84.628V189.682C84.628 191.524 83.483 192.748 81.4957 192.748C79.8373 192.748 78.9424 191.827 78.6265 190.656L80.1006 190.353C80.2322 190.998 80.6665 191.393 81.4957 191.393C82.4564 191.393 83.0487 190.8 83.0487 189.695V188.997L83.0355 188.958C82.588 189.497 82.0484 189.866 81.0482 189.866C79.6136 189.866 78.6528 189.024 78.6528 187.102V183.364H80.2322V186.839C80.2322 188.023 80.7586 188.392 81.5483 188.392C82.4038 188.392 83.0487 187.826 83.0487 186.72V183.364ZM96.5317 184.391V185.681H95.6762V187.194C95.6762 188.931 94.3601 190.116 92.7413 190.116C90.925 190.116 89.6089 188.958 89.6089 187.207C89.6089 186.22 90.0827 185.43 90.8329 184.944C90.3591 184.496 90.0695 183.891 90.0695 183.154C90.0695 181.614 91.3198 180.534 92.8992 180.534C94.3864 180.534 95.2946 181.337 95.5446 182.496L94.1495 182.851C94.0179 182.259 93.5046 181.903 92.8992 181.903C92.149 181.903 91.5699 182.39 91.5699 183.14C91.5699 183.904 92.149 184.378 92.8729 184.378H94.189V183.588H95.6762V184.391H96.5317ZM94.189 187.181V185.667H92.8334C91.9516 185.667 91.2146 186.26 91.2146 187.181C91.2146 188.102 91.9121 188.668 92.7413 188.668C93.5309 188.668 94.189 188.102 94.189 187.181ZM104.459 190.103C102.643 190.103 101.38 189.195 100.932 187.484L102.433 187.049C102.748 188.115 103.288 188.655 104.459 188.655C105.499 188.655 106.249 188.208 106.249 187.339C106.249 186.72 105.868 186.26 104.446 186.01C102.367 185.628 101.195 184.825 101.195 183.246C101.195 181.64 102.538 180.521 104.446 180.521C106.144 180.521 107.276 181.456 107.671 183.035L106.17 183.456C105.92 182.509 105.46 181.969 104.446 181.969C103.486 181.969 102.801 182.39 102.801 183.246C102.801 183.97 103.486 184.233 104.736 184.496C106.842 184.917 107.855 185.746 107.855 187.339C107.855 189.024 106.355 190.103 104.459 190.103ZM112.745 183.18C114.575 183.18 115.93 184.733 115.93 186.654C115.93 188.576 114.641 190.116 112.758 190.116C111.758 190.116 111.074 189.655 110.718 189.195V192.577H109.139V183.364H110.442L110.653 184.167C110.982 183.72 111.653 183.18 112.745 183.18ZM112.522 184.601C111.469 184.601 110.718 185.457 110.718 186.654C110.718 187.852 111.469 188.694 112.522 188.694C113.574 188.694 114.351 187.839 114.351 186.654C114.351 185.457 113.574 184.601 112.522 184.601ZM123.357 187.168H118.448C118.513 187.997 119.224 188.813 120.264 188.813C121.185 188.813 121.712 188.26 121.869 187.813L123.199 188.221C122.817 189.274 121.869 190.116 120.264 190.116C118.382 190.116 116.934 188.668 116.934 186.641C116.934 184.654 118.382 183.18 120.251 183.18C122.159 183.18 123.357 184.562 123.357 186.562V187.168ZM121.962 185.957C121.922 185.365 121.396 184.483 120.264 184.483C119.198 184.483 118.605 185.207 118.461 185.957H121.962ZM124.652 189.932V183.364H125.955L126.179 184.154C126.587 183.614 127.206 183.18 128.18 183.18C129.667 183.18 130.536 184.035 130.536 185.957V189.932H128.956V186.168C128.956 185.009 128.417 184.641 127.68 184.641C126.877 184.641 126.232 185.207 126.232 186.325V189.932H124.652ZM135.015 190.116C133.186 190.116 131.83 188.563 131.83 186.641C131.83 184.72 133.133 183.18 135.002 183.18C136.003 183.18 136.687 183.641 137.042 184.101V180.719H138.622V189.932H137.319L137.108 189.129C136.779 189.563 136.108 190.116 135.015 190.116ZM135.239 188.694C136.292 188.694 137.055 187.839 137.055 186.641C137.055 185.444 136.292 184.601 135.239 184.601C134.199 184.601 133.41 185.457 133.41 186.641C133.41 187.839 134.199 188.694 135.239 188.694ZM143.893 189.932V180.719H145.472V189.932H143.893ZM147.871 182.469C147.358 182.469 146.95 182.048 146.95 181.535C146.95 181.021 147.358 180.6 147.871 180.6C148.384 180.6 148.819 181.021 148.819 181.535C148.819 182.048 148.384 182.469 147.871 182.469ZM147.108 189.932V183.364H148.687V189.932H147.108ZM150.32 189.932V183.364H151.623L151.833 184.141C152.228 183.614 152.925 183.18 153.86 183.18C154.847 183.18 155.373 183.654 155.637 184.167C156.045 183.641 156.729 183.18 157.743 183.18C158.967 183.18 159.861 183.904 159.861 185.588V189.932H158.282V186.023C158.282 185.022 157.848 184.641 157.163 184.641C156.44 184.641 155.887 185.167 155.887 186.207V189.932H154.307V186.023C154.307 185.022 153.834 184.641 153.176 184.641C152.465 184.641 151.899 185.154 151.899 186.207V189.932H150.32ZM162.253 182.469C161.74 182.469 161.332 182.048 161.332 181.535C161.332 181.021 161.74 180.6 162.253 180.6C162.767 180.6 163.201 181.021 163.201 181.535C163.201 182.048 162.767 182.469 162.253 182.469ZM161.49 189.932V183.364H163.069V189.932H161.49ZM167.163 190.116C166.15 190.116 165.307 189.458 165.307 188.168V184.746H164.175V183.364H165.307V181.653H166.887V183.364H168.558V184.746H166.887V187.944C166.887 188.431 167.11 188.642 167.505 188.642C167.795 188.642 167.992 188.523 168.111 188.418L168.769 189.537C168.584 189.761 168.071 190.116 167.163 190.116Z" fill="#7D76FF"/>
<rect x="184.242" y="174.932" width="30.083" height="20.682" rx="2.82028" fill="#EBEAFF"/>
<path d="M199.245 189.932V181.837C198.758 182.153 197.929 182.43 197.376 182.522V181.535C197.955 181.416 198.705 181.087 199.245 180.719H200.272V189.932H199.245Z" fill="#423E30"/>
<line x1="223.273" y1="166.631" x2="223.273" y2="204.235" stroke="#7D76FF" stroke-width="2.82028"/>
<path d="M5.64055 39.2484H225.152V308.53H5.64055C2.78496 308.53 0.470046 306.215 0.470046 303.359V44.4189C0.470046 41.5633 2.78496 39.2484 5.64055 39.2484Z" stroke="#E5E4E1" stroke-width="0.940092"/>
<mask id="path-31-inside-1_157_12116" fill="white">
<path d="M225.621 38.7783H596.017C599.133 38.7783 601.658 41.3037 601.658 44.4189V68.8613H225.621V38.7783Z"/>
</mask>
<path d="M225.621 38.7783H596.017C599.133 38.7783 601.658 41.3037 601.658 44.4189V68.8613H225.621V38.7783Z" fill="#F9F8F7"/>
<path d="M246.021 58.5036C243.296 58.5036 241.388 56.5689 241.388 53.7129C241.388 50.9359 243.323 48.9222 245.981 48.9222C247.955 48.9222 249.456 49.9619 250.061 51.7782L248.798 52.1993C248.39 50.9095 247.442 50.133 245.994 50.133C244.099 50.133 242.704 51.6597 242.704 53.7129C242.704 55.8319 244.099 57.2928 246.034 57.2928C247.521 57.2928 248.403 56.4768 248.771 55.4107L250.022 55.8187C249.39 57.477 248.048 58.5036 246.021 58.5036ZM257.126 51.8045V58.3193H256.06L255.863 57.4902C255.402 58.1088 254.731 58.5036 253.796 58.5036C252.414 58.5036 251.506 57.7139 251.506 55.9108V51.8045H252.796V55.6871C252.796 56.9506 253.401 57.3059 254.191 57.3059C255.073 57.3059 255.836 56.6479 255.836 55.4502V51.8045H257.126ZM258.832 58.3193V51.8045H259.898L260.096 52.6205C260.372 52.1204 260.964 51.6202 261.794 51.6202C262.346 51.6202 262.754 51.7913 262.965 51.9493L262.465 53.0811C262.333 52.9759 262.044 52.8442 261.622 52.8442C260.793 52.8442 260.122 53.5418 260.122 54.7131V58.3193H258.832ZM263.922 58.3193V51.8045H264.988L265.186 52.6205C265.462 52.1204 266.054 51.6202 266.883 51.6202C267.436 51.6202 267.844 51.7913 268.055 51.9493L267.555 53.0811C267.423 52.9759 267.133 52.8442 266.712 52.8442C265.883 52.8442 265.212 53.5418 265.212 54.7131V58.3193H263.922ZM274.705 55.4633H269.638C269.704 56.5162 270.494 57.4244 271.652 57.4244C272.626 57.4244 273.244 56.8453 273.428 56.2925L274.534 56.6479C274.179 57.6481 273.231 58.5036 271.652 58.5036C269.73 58.5036 268.388 57.0032 268.388 55.0553C268.388 53.1338 269.783 51.6334 271.639 51.6334C273.494 51.6334 274.705 52.9627 274.705 54.95V55.4633ZM273.547 54.4499C273.481 53.5813 272.81 52.7126 271.652 52.7126C270.494 52.7126 269.796 53.5286 269.651 54.4499H273.547ZM276.119 58.3193V51.8045H277.185L277.383 52.6337C277.843 52.0151 278.515 51.6202 279.449 51.6202C280.844 51.6202 281.739 52.4231 281.739 54.2262V58.3193H280.449V54.4499C280.449 53.1733 279.844 52.8311 279.054 52.8311C278.173 52.8311 277.409 53.4891 277.409 54.6868V58.3193H276.119ZM286.473 58.5036C284.419 58.5036 283.143 56.8979 283.143 55.0685C283.143 53.2128 284.446 51.6202 286.473 51.6202C287.96 51.6202 288.96 52.4757 289.355 53.6471L288.17 54.0419C287.92 53.2786 287.302 52.8048 286.473 52.8048C285.275 52.8048 284.433 53.7524 284.433 55.0685C284.433 56.3715 285.275 57.3191 286.473 57.3191C287.289 57.3191 287.907 56.8453 288.17 56.0951L289.342 56.4899C288.907 57.6481 287.907 58.5036 286.473 58.5036ZM295.272 51.8045H296.562V58.2009C296.562 59.8329 295.628 61.1885 293.588 61.1885C291.982 61.1885 291.113 60.3067 290.784 59.109L291.995 58.8458C292.18 59.6091 292.666 60.0698 293.588 60.0698C294.706 60.0698 295.272 59.3722 295.272 58.2272V57.3322C294.772 57.9508 294.193 58.3062 293.167 58.3062C291.864 58.3062 290.811 57.5428 290.811 55.7397V51.8045H292.101V55.4502C292.101 56.7137 292.706 57.1085 293.561 57.1085C294.522 57.1085 295.272 56.4504 295.272 55.2396V51.8045Z" fill="#423E30"/>
<path d="M225.621 37.8382H596.017C599.652 37.8382 602.598 40.7845 602.598 44.4189L600.718 44.4189C600.718 41.8229 598.613 39.7184 596.017 39.7184H225.621V37.8382ZM601.658 68.8613H225.621H601.658ZM225.621 68.8613V38.7783V68.8613ZM596.017 37.8382C599.652 37.8382 602.598 40.7845 602.598 44.4189V68.8613H600.718V44.4189C600.718 41.8229 598.613 39.7184 596.017 39.7184L596.017 37.8382Z" fill="#E5E4E1" mask="url(#path-31-inside-1_157_12116)"/>
<g clip-path="url(#clip7_157_12116)">
<rect x="240.664" y="86.8818" width="15.0415" height="15.0415" rx="1.88018" fill="white"/>
<rect x="241.134" y="87.3519" width="14.1014" height="14.1014" rx="1.41014" fill="white" stroke="#E5E4E1" stroke-width="0.940092"/>
</g>
<path d="M264.293 98.9023V89.6894H269.873V90.6107H265.319V93.7958H269.333V94.7039H265.319V97.9811H269.873V98.9023H264.293ZM275.027 99.0866C273.066 99.0866 271.657 97.9416 271.657 95.5725V89.6894H272.684V95.5199C272.684 97.4414 273.671 98.1522 275.027 98.1522C276.369 98.1522 277.382 97.4414 277.382 95.5199V89.6894H278.409V95.5857C278.409 98.0074 276.948 99.0866 275.027 99.0866ZM280.539 98.9023V89.6894H283.553C285.566 89.6894 286.54 90.8213 286.54 92.3349C286.54 93.8484 285.5 94.6776 284.513 94.875L286.895 98.9023H285.75L283.447 94.9934H281.565V98.9023H280.539ZM281.565 94.0853H283.605C284.698 94.0853 285.514 93.5589 285.514 92.3349C285.514 91.0845 284.632 90.6107 283.553 90.6107H281.565V94.0853Z" fill="#423E30"/>
<rect x="240.664" y="115.402" width="15.0415" height="15.0415" rx="1.88018" fill="white"/>
<g clip-path="url(#clip8_157_12116)">
<rect x="240.664" y="115.402" width="15.0415" height="15.0415" rx="1.88018" fill="#7D76FF"/>
<path d="M246.873 126.893L246.856 126.909L243.66 123.713L245.007 122.366L246.873 124.232L251.361 119.744L252.708 121.091L246.89 126.909L246.873 126.893Z" fill="#F8F8F9"/>
</g>
<path d="M267.662 127.607C265.701 127.607 264.293 126.462 264.293 124.093V118.21H265.319V124.04C265.319 125.962 266.306 126.673 267.662 126.673C269.004 126.673 270.018 125.962 270.018 124.04V118.21H271.044V124.106C271.044 126.528 269.583 127.607 267.662 127.607ZM276.175 127.594C274.385 127.594 273.174 126.738 272.713 124.949L273.674 124.672C274.016 126.015 274.793 126.673 276.175 126.673C277.425 126.673 278.412 126.107 278.412 124.949C278.412 124.33 278.267 123.606 276.214 123.224C274.345 122.882 273.042 122.198 273.042 120.605C273.042 118.986 274.437 118.013 276.162 118.013C277.886 118.013 278.873 118.973 279.281 120.539L278.32 120.816C278.057 119.697 277.451 118.934 276.162 118.934C274.938 118.934 274.069 119.539 274.069 120.605C274.069 121.606 274.898 121.948 276.398 122.237C278.399 122.632 279.439 123.382 279.439 124.949C279.439 126.567 278.004 127.594 276.175 127.594ZM281.104 127.423V118.21H283.947C287.527 118.21 288.567 120.618 288.567 122.764C288.567 125.08 287.316 127.423 284.118 127.423H281.104ZM282.131 126.502H284.039C286.698 126.502 287.54 124.619 287.54 122.751C287.54 120.934 286.829 119.131 283.921 119.131H282.131V126.502Z" fill="#423E30"/>
<g clip-path="url(#clip9_157_12116)">
<rect x="420.219" y="86.8818" width="15.0415" height="15.0415" rx="1.88018" fill="white"/>
<rect x="420.689" y="87.3519" width="14.1014" height="14.1014" rx="1.41014" fill="white" stroke="#E5E4E1" stroke-width="0.940092"/>
</g>
<path d="M448.243 99.0866C445.532 99.0866 443.571 97.1387 443.571 94.2959C443.571 91.5715 445.585 89.5052 448.243 89.5052C450.073 89.5052 451.455 90.466 452.06 92.019L451.112 92.3612C450.652 91.203 449.717 90.4396 448.27 90.4396C446.111 90.4396 444.598 92.1638 444.598 94.2959C444.598 96.5333 446.085 98.1522 448.243 98.1522C450.349 98.1522 451.336 96.5596 451.362 94.9145H449.072V94.0195H452.363V98.9023H451.599L451.441 97.5336C451.126 98.0469 450.099 99.0866 448.243 99.0866ZM454.348 98.9023V89.6894H457.612C459.415 89.6894 460.231 90.7818 460.231 92.1111C460.231 93.0587 459.757 93.73 459.112 94.0985V94.1248C459.705 94.3354 460.587 94.9145 460.587 96.2964C460.587 97.7442 459.573 98.9023 457.783 98.9023H454.348ZM455.375 93.7694H457.586C458.665 93.7694 459.218 93.0982 459.218 92.1243C459.218 91.1898 458.586 90.5976 457.586 90.5976H455.375V93.7694ZM455.375 97.9942H457.796C458.968 97.9942 459.56 97.2177 459.56 96.2964C459.56 95.3883 458.994 94.6512 457.612 94.6512H455.375V97.9942ZM462.317 98.9023V89.6894H465.252C467.134 89.6894 468.345 90.6897 468.345 92.4665C468.345 94.2301 467.081 95.2567 465.265 95.2567H463.343V98.9023H462.317ZM463.343 94.3354H465.173C466.436 94.3354 467.318 93.7958 467.318 92.4665C467.318 91.1372 466.436 90.6107 465.173 90.6107H463.343V94.3354Z" fill="#423E30"/>
<mask id="path-46-inside-2_157_12116" fill="white">
<path d="M225.621 148.465H601.658V178.548H225.621V148.465Z"/>
</mask>
<path d="M225.621 148.465H601.658V178.548H225.621V148.465Z" fill="#F9F8F7"/>
<path d="M244.705 168.177C242.901 168.177 241.664 167.295 241.217 165.545L242.454 165.189C242.77 166.387 243.441 166.992 244.705 166.992C245.85 166.992 246.718 166.492 246.718 165.466C246.718 164.847 246.468 164.268 244.731 163.939C242.744 163.584 241.52 162.833 241.52 161.254C241.52 159.648 242.875 158.596 244.705 158.596C246.416 158.596 247.468 159.543 247.863 161.109L246.639 161.465C246.389 160.425 245.85 159.78 244.705 159.78C243.612 159.78 242.836 160.293 242.836 161.254C242.836 162.123 243.586 162.425 244.955 162.689C247.021 163.11 248.034 163.9 248.034 165.466C248.034 167.124 246.573 168.177 244.705 168.177ZM252.872 161.32C254.754 161.32 256.004 162.965 256.004 164.755C256.004 166.558 254.846 168.19 252.885 168.19C251.859 168.19 251.135 167.716 250.727 167.164V170.704H249.437V161.491H250.503L250.674 162.373C251.056 161.86 251.766 161.32 252.872 161.32ZM252.714 162.478C251.53 162.478 250.714 163.439 250.714 164.755C250.714 166.084 251.53 167.032 252.714 167.032C253.872 167.032 254.715 166.084 254.715 164.755C254.715 163.439 253.872 162.478 252.714 162.478ZM263.433 165.15H258.366C258.432 166.203 259.222 167.111 260.38 167.111C261.354 167.111 261.972 166.532 262.157 165.979L263.262 166.334C262.907 167.335 261.959 168.19 260.38 168.19C258.458 168.19 257.116 166.69 257.116 164.742C257.116 162.82 258.511 161.32 260.367 161.32C262.222 161.32 263.433 162.649 263.433 164.637V165.15ZM262.275 164.136C262.209 163.268 261.538 162.399 260.38 162.399C259.222 162.399 258.524 163.215 258.379 164.136H262.275ZM264.847 168.006V161.491H265.913L266.111 162.32C266.572 161.702 267.243 161.307 268.177 161.307C269.572 161.307 270.467 162.11 270.467 163.913V168.006H269.177V164.136C269.177 162.86 268.572 162.518 267.782 162.518C266.901 162.518 266.137 163.176 266.137 164.373V168.006H264.847ZM275.003 168.177C273.121 168.177 271.871 166.532 271.871 164.742C271.871 162.939 273.016 161.307 274.99 161.307C276.017 161.307 276.74 161.781 277.148 162.333V158.793H278.438V168.006H277.372L277.201 167.124C276.819 167.651 276.109 168.177 275.003 168.177ZM275.161 167.019C276.346 167.019 277.148 166.058 277.148 164.742C277.148 163.413 276.346 162.465 275.161 162.465C273.99 162.465 273.161 163.413 273.161 164.742C273.161 166.058 273.99 167.019 275.161 167.019ZM283.844 168.006V158.793H285.134V168.006H283.844ZM287.562 160.53C287.089 160.53 286.707 160.162 286.707 159.688C286.707 159.227 287.089 158.846 287.562 158.846C288.023 158.846 288.392 159.227 288.392 159.688C288.392 160.162 288.023 160.53 287.562 160.53ZM286.904 168.006V161.491H288.194V168.006H286.904ZM289.975 168.006V161.491H291.041L291.225 162.32C291.659 161.715 292.357 161.307 293.278 161.307C294.239 161.307 294.831 161.781 295.108 162.373C295.555 161.767 296.279 161.307 297.279 161.307C298.477 161.307 299.398 162.017 299.398 163.676V168.006H298.108V164.084C298.108 162.886 297.595 162.518 296.832 162.518C296.029 162.518 295.331 163.123 295.331 164.321V168.006H294.042V164.084C294.042 162.886 293.489 162.518 292.778 162.518C291.975 162.518 291.264 163.123 291.264 164.321V168.006H289.975ZM301.829 160.53C301.355 160.53 300.974 160.162 300.974 159.688C300.974 159.227 301.355 158.846 301.829 158.846C302.29 158.846 302.658 159.227 302.658 159.688C302.658 160.162 302.29 160.53 301.829 160.53ZM301.171 168.006V161.491H302.461V168.006H301.171ZM306.545 168.19C305.544 168.19 304.82 167.545 304.82 166.387V162.649H303.649V161.491H304.82V159.793H306.11V161.491H307.874V162.649H306.11V166.229C306.11 166.769 306.36 166.992 306.795 166.992C307.097 166.992 307.308 166.861 307.426 166.742L308.019 167.664C307.834 167.874 307.361 168.19 306.545 168.19Z" fill="#423E30"/>
<path d="M225.621 148.465H601.658H225.621ZM601.658 178.548H225.621H601.658ZM225.621 178.548V148.465V178.548ZM602.598 148.465V178.548H600.718V148.465H602.598Z" fill="#E5E4E1" mask="url(#path-46-inside-2_157_12116)"/>
<g filter="url(#filter0_d_157_12116)">
<rect x="240.664" y="193.589" width="24.4424" height="24.4424" rx="5.64055" fill="white"/>
<rect x="241.134" y="194.059" width="23.5023" height="23.5023" rx="5.17051" stroke="#E5E4E1" stroke-width="0.940092"/>
</g>
<path d="M256.281 208.872L256.281 202.745C256.281 202.699 256.243 202.661 256.197 202.661L255.61 202.661C255.564 202.661 255.526 202.699 255.526 202.745L255.526 208.872C255.526 208.919 255.564 208.956 255.61 208.956L256.197 208.956C256.243 208.956 256.281 208.919 256.281 208.872ZM253.301 208.872L253.301 202.745C253.301 202.699 253.264 202.661 253.218 202.661L252.63 202.661C252.584 202.661 252.546 202.699 252.546 202.745L252.546 208.872C252.546 208.919 252.584 208.956 252.63 208.956L253.218 208.956C253.264 208.956 253.301 208.919 253.301 208.872ZM250.322 208.872L250.322 202.745C250.322 202.699 250.284 202.661 250.238 202.661L249.65 202.661C249.604 202.661 249.566 202.699 249.566 202.745L249.566 208.872C249.566 208.919 249.604 208.956 249.65 208.956L250.238 208.956C250.284 208.956 250.322 208.919 250.322 208.872Z" fill="#420001"/>
<rect x="265.105" y="203.93" width="297.069" height="3.76037" fill="#7D76FF"/>
<g filter="url(#filter1_d_157_12116)">
<rect x="562.176" y="193.589" width="24.4424" height="24.4424" rx="5.64055" fill="white"/>
<rect x="562.646" y="194.059" width="23.5023" height="23.5023" rx="5.17051" stroke="#E5E4E1" stroke-width="0.940092"/>
</g>
<path d="M577.793 208.871L577.793 202.744C577.793 202.698 577.755 202.66 577.709 202.66L577.121 202.66C577.075 202.66 577.038 202.698 577.038 202.744L577.038 208.871C577.038 208.918 577.075 208.955 577.121 208.955L577.709 208.955C577.755 208.955 577.793 208.918 577.793 208.871ZM574.813 208.871L574.813 202.744C574.813 202.698 574.775 202.66 574.729 202.66L574.142 202.66C574.096 202.66 574.058 202.698 574.058 202.744L574.058 208.871C574.058 208.918 574.096 208.955 574.142 208.955L574.729 208.955C574.775 208.955 574.813 208.918 574.813 208.871ZM571.833 208.871L571.833 202.744C571.833 202.698 571.796 202.66 571.75 202.66L571.162 202.66C571.116 202.66 571.078 202.698 571.078 202.744L571.078 208.871C571.078 208.918 571.116 208.955 571.162 208.955L571.75 208.955C571.796 208.955 571.833 208.918 571.833 208.871Z" fill="#420001"/>
<path d="M251.088 231.34L251.075 240.553H249.772V233.775L246.876 240.553H245.902L243.033 233.801L243.02 240.553H241.717V231.34H243.217L246.402 238.789L249.574 231.34H251.088ZM253.721 233.077C253.247 233.077 252.866 232.709 252.866 232.235C252.866 231.774 253.247 231.392 253.721 231.392C254.182 231.392 254.55 231.774 254.55 232.235C254.55 232.709 254.182 233.077 253.721 233.077ZM253.063 240.553V234.038H254.353V240.553H253.063ZM256.133 240.553V234.038H257.199L257.397 234.867C257.857 234.248 258.529 233.854 259.463 233.854C260.858 233.854 261.753 234.656 261.753 236.46V240.553H260.463V236.683C260.463 235.407 259.858 235.064 259.068 235.064C258.186 235.064 257.423 235.723 257.423 236.92V240.553H256.133Z" fill="#423E30"/>
<rect x="241.134" y="258.304" width="125.972" height="36.6636" rx="5.17051" fill="white" stroke="#E5E4E1" stroke-width="0.940092"/>
<path d="M255.907 281.82C253.551 281.82 252.551 279.635 252.551 276.99C252.551 274.41 253.564 272.239 255.907 272.239C258.21 272.239 259.224 274.41 259.224 276.99C259.224 279.635 258.25 281.82 255.907 281.82ZM255.907 280.886C257.539 280.886 258.197 279.135 258.197 277.029C258.197 274.989 257.526 273.173 255.907 273.173C254.262 273.173 253.564 274.989 253.564 277.029C253.564 279.082 254.249 280.886 255.907 280.886Z" fill="#423E30"/>
<path d="M570.162 231.34L570.149 240.553H568.846V233.775L565.95 240.553H564.976L562.107 233.801L562.094 240.553H560.791V231.34H562.292L565.477 238.789L568.648 231.34H570.162ZM574.019 240.737C572.65 240.737 571.769 239.882 571.769 238.75C571.769 237.71 572.374 236.894 574.309 236.618L575.875 236.394V236.249C575.875 235.394 575.441 234.92 574.48 234.92C573.532 234.92 573.137 235.394 573.019 236.104L571.874 235.828C572.177 234.564 573.032 233.867 574.506 233.867C576.033 233.867 577.165 234.63 577.165 236.236V240.553H576.072L575.941 239.921C575.625 240.355 575.059 240.737 574.019 240.737ZM574.335 239.671C575.138 239.671 575.875 239.21 575.875 238.236V237.381L574.414 237.605C573.532 237.736 573.019 238.013 573.019 238.684C573.019 239.276 573.519 239.671 574.335 239.671ZM584.309 240.553H582.875L581.203 238.21L579.518 240.553H578.097L580.466 237.276L578.15 234.038H579.584L581.203 236.328L582.822 234.038H584.243L581.94 237.262L584.309 240.553Z" fill="#423E30"/>
<rect x="458.294" y="258.304" width="125.972" height="36.6636" rx="5.17051" fill="white" stroke="#E5E4E1" stroke-width="0.940092"/>
<path d="M473.567 280.701H475.989V281.636H470.119V280.701H472.541V273.542C472.054 273.857 471.224 274.134 470.672 274.226V273.239C471.251 273.12 472.001 272.791 472.541 272.423H473.567V280.701ZM478.129 281.636V280.688L481.169 277.977C482.077 277.161 483.012 276.398 483.012 275.055C483.012 273.989 482.209 273.173 481.024 273.173C479.906 273.173 478.919 273.976 478.905 275.305L477.958 275.029C478.024 273.305 479.445 272.239 481.024 272.239C482.788 272.239 484.038 273.436 484.038 275.055C484.038 276.713 482.985 277.635 481.88 278.609L479.537 280.701H484.052V281.636H478.129ZM485.389 282.82C485.626 282.531 485.902 282.07 485.902 281.688C485.586 281.583 485.323 281.333 485.323 280.978C485.323 280.478 485.705 280.188 486.086 280.188C486.494 280.188 486.863 280.478 486.863 281.07C486.863 281.649 486.534 282.623 485.85 283.228L485.389 282.82ZM491.254 281.82C488.898 281.82 487.898 279.635 487.898 276.99C487.898 274.41 488.911 272.239 491.254 272.239C493.557 272.239 494.57 274.41 494.57 276.99C494.57 279.635 493.596 281.82 491.254 281.82ZM491.254 280.886C492.886 280.886 493.544 279.135 493.544 277.029C493.544 274.989 492.873 273.173 491.254 273.173C489.609 273.173 488.911 274.989 488.911 277.029C488.911 279.082 489.595 280.886 491.254 280.886ZM499.145 281.82C496.79 281.82 495.789 279.635 495.789 276.99C495.789 274.41 496.803 272.239 499.145 272.239C501.449 272.239 502.462 274.41 502.462 276.99C502.462 279.635 501.488 281.82 499.145 281.82ZM499.145 280.886C500.777 280.886 501.435 279.135 501.435 277.029C501.435 274.989 500.764 273.173 499.145 273.173C497.5 273.173 496.803 274.989 496.803 277.029C496.803 279.082 497.487 280.886 499.145 280.886ZM507.037 281.82C504.681 281.82 503.681 279.635 503.681 276.99C503.681 274.41 504.694 272.239 507.037 272.239C509.34 272.239 510.354 274.41 510.354 276.99C510.354 279.635 509.38 281.82 507.037 281.82ZM507.037 280.886C508.669 280.886 509.327 279.135 509.327 277.029C509.327 274.989 508.656 273.173 507.037 273.173C505.392 273.173 504.694 274.989 504.694 277.029C504.694 279.082 505.379 280.886 507.037 280.886ZM514.429 280.32V277.49H511.625V276.569H514.429V273.739H515.402V276.569H518.206V277.49H515.402V280.32H514.429Z" fill="#423E30"/>
<rect x="0.470046" y="39.2484" width="600.719" height="269.281" rx="5.17051" stroke="#E5E4E1" stroke-width="0.940092"/>
<defs>
<filter id="filter0_d_157_12116" x="240.664" y="193.589" width="24.4414" height="26.3226" filterUnits="userSpaceOnUse" color-interpolation-filters="sRGB">
<feFlood flood-opacity="0" result="BackgroundImageFix"/>
<feColorMatrix in="SourceAlpha" type="matrix" values="0 0 0 0 0 0 0 0 0 0 0 0 0 0 0 0 0 0 127 0" result="hardAlpha"/>
<feOffset dy="1.88018"/>
<feColorMatrix type="matrix" values="0 0 0 0 0 0 0 0 0 0 0 0 0 0 0 0 0 0 0.016 0"/>
<feBlend mode="normal" in2="BackgroundImageFix" result="effect1_dropShadow_157_12116"/>
<feBlend mode="normal" in="SourceGraphic" in2="effect1_dropShadow_157_12116" result="shape"/>
</filter>
<filter id="filter1_d_157_12116" x="562.176" y="193.589" width="24.4414" height="26.3226" filterUnits="userSpaceOnUse" color-interpolation-filters="sRGB">
<feFlood flood-opacity="0" result="BackgroundImageFix"/>
<feColorMatrix in="SourceAlpha" type="matrix" values="0 0 0 0 0 0 0 0 0 0 0 0 0 0 0 0 0 0 127 0" result="hardAlpha"/>
<feOffset dy="1.88018"/>
<feColorMatrix type="matrix" values="0 0 0 0 0 0 0 0 0 0 0 0 0 0 0 0 0 0 0.016 0"/>
<feBlend mode="normal" in2="BackgroundImageFix" result="effect1_dropShadow_157_12116"/>
<feBlend mode="normal" in="SourceGraphic" in2="effect1_dropShadow_157_12116" result="shape"/>
</filter>
<clipPath id="clip0_157_12116">
<rect width="13.1613" height="13.1613" fill="white" transform="translate(491.215 8.46094)"/>
</clipPath>
<clipPath id="clip1_157_12116">
<rect width="107.682" height="21" fill="white" transform="translate(7.51953 62.1211)"/>
</clipPath>
<clipPath id="clip2_157_12116">
<rect width="206.992" height="21" fill="white" transform="translate(7.51953 99.7246)"/>
</clipPath>
<clipPath id="clip3_157_12116">
<rect width="13.1575" height="13.1575" fill="white" transform="translate(7.51953 103.646)"/>
</clipPath>
<clipPath id="clip4_157_12116">
<rect width="50.682" height="21" fill="white" transform="translate(7.51953 137.329)"/>
</clipPath>
<clipPath id="clip5_157_12116">
<rect width="13.1613" height="13.1613" fill="white" transform="translate(7.51953 141.248)"/>
</clipPath>
<clipPath id="clip6_157_12116">
<rect width="13.1575" height="13.1575" fill="white" transform="translate(7.51953 178.853)"/>
</clipPath>
<clipPath id="clip7_157_12116">
<rect x="240.664" y="86.8818" width="15.0415" height="15.0415" rx="1.88018" fill="white"/>
</clipPath>
<clipPath id="clip8_157_12116">
<rect x="240.664" y="115.402" width="15.0415" height="15.0415" fill="white"/>
</clipPath>
<clipPath id="clip9_157_12116">
<rect x="420.219" y="86.8818" width="15.0415" height="15.0415" rx="1.88018" fill="white"/>
</clipPath>
</defs>
</svg>
