<svg width="692" height="468" viewBox="0 0 692 468" fill="none" xmlns="http://www.w3.org/2000/svg">
<g clip-path="url(#clip0_246_20363)">
<rect x="410.5" y="209" width="112" height="42" rx="8" fill="#EBE4FF"/>
<path d="M428.395 231.626C428.395 229.498 429.697 228.042 431.671 228.042C433.239 228.042 434.387 228.952 434.653 230.352H433.687C433.435 229.414 432.623 228.896 431.685 228.896C430.313 228.896 429.347 229.946 429.347 231.612C429.347 233.222 430.243 234.3 431.615 234.3C432.623 234.3 433.435 233.74 433.701 232.872H434.681C434.359 234.258 433.155 235.168 431.615 235.168C429.697 235.168 428.395 233.754 428.395 231.626ZM435.669 231.612C435.669 229.54 437.125 228.042 439.113 228.042C441.101 228.042 442.557 229.54 442.557 231.612C442.557 233.67 441.101 235.168 439.113 235.168C437.125 235.168 435.669 233.67 435.669 231.612ZM436.649 231.598C436.649 233.194 437.657 234.3 439.113 234.3C440.555 234.3 441.577 233.194 441.577 231.598C441.577 230.03 440.555 228.91 439.113 228.91C437.657 228.91 436.649 230.03 436.649 231.598ZM445.068 235H444.102V228.224H444.942L445.082 229.4C445.53 228.532 446.426 228.042 447.406 228.042C449.268 228.042 450.038 229.148 450.038 230.856V235H449.072V231.066C449.072 229.484 448.358 228.924 447.238 228.924C445.852 228.924 445.068 229.932 445.068 231.458V235ZM456.429 235V229.036H453.209V235H452.243V229.036H451.207V228.224H452.243V226.908C452.243 225.382 453.069 224.794 454.077 224.794C454.315 224.794 454.609 224.808 454.833 224.85V225.69H454.245C453.433 225.69 453.209 226.11 453.209 226.908V228.224H457.395V235H456.429ZM456.905 226.292C456.513 226.292 456.233 226.012 456.233 225.62C456.233 225.228 456.513 224.934 456.905 224.934C457.283 224.934 457.577 225.228 457.577 225.62C457.577 226.012 457.283 226.292 456.905 226.292ZM462.915 228.14V229.008H462.383C461.137 229.008 460.339 229.848 460.339 231.136V235H459.373V228.224H460.283L460.353 229.274C460.619 228.546 461.333 228.07 462.285 228.07C462.495 228.07 462.677 228.084 462.915 228.14ZM465.165 235H464.199V228.224H465.039L465.151 229.19C465.487 228.476 466.243 228.042 467.195 228.042C468.259 228.042 469.057 228.602 469.379 229.484C469.687 228.602 470.513 228.042 471.605 228.042C473.075 228.042 474.041 228.994 474.041 230.562V235H473.103V230.758C473.103 229.596 472.459 228.91 471.423 228.91C470.289 228.91 469.617 229.764 469.617 230.814V235H468.665V230.744C468.665 229.596 468.007 228.924 466.985 228.924C465.851 228.924 465.165 229.764 465.165 230.8V235ZM477.931 235.168C476.489 235.168 475.635 234.356 475.635 233.166C475.635 231.92 476.587 231.136 478.169 231.01L480.409 230.828V230.604C480.409 229.274 479.611 228.854 478.617 228.854C477.441 228.854 476.741 229.386 476.741 230.296H475.859C475.859 228.924 476.979 228.042 478.645 228.042C480.213 228.042 481.361 228.826 481.361 230.618V235H480.549L480.423 233.81C480.003 234.664 479.079 235.168 477.931 235.168ZM478.155 234.384C479.583 234.384 480.409 233.39 480.409 231.92V231.556L478.407 231.71C477.133 231.822 476.615 232.382 476.615 233.138C476.615 233.964 477.231 234.384 478.155 234.384ZM484.73 235H483.778V229.036H482.42V228.224H483.778V226.082H484.73V228.224H486.088V229.036H484.73V235ZM487.822 226.362C487.43 226.362 487.108 226.04 487.108 225.648C487.108 225.256 487.43 224.92 487.822 224.92C488.214 224.92 488.55 225.256 488.55 225.648C488.55 226.04 488.214 226.362 487.822 226.362ZM487.346 235V228.224H488.312V235H487.346ZM489.85 231.612C489.85 229.54 491.306 228.042 493.294 228.042C495.282 228.042 496.738 229.54 496.738 231.612C496.738 233.67 495.282 235.168 493.294 235.168C491.306 235.168 489.85 233.67 489.85 231.612ZM490.83 231.598C490.83 233.194 491.838 234.3 493.294 234.3C494.736 234.3 495.758 233.194 495.758 231.598C495.758 230.03 494.736 228.91 493.294 228.91C491.838 228.91 490.83 230.03 490.83 231.598ZM499.249 235H498.283V228.224H499.123L499.263 229.4C499.711 228.532 500.607 228.042 501.587 228.042C503.449 228.042 504.219 229.148 504.219 230.856V235H503.253V231.066C503.253 229.484 502.539 228.924 501.419 228.924C500.033 228.924 499.249 229.932 499.249 231.458V235Z" fill="#212121"/>
<rect x="410.5" y="127" width="112" height="42" rx="8" fill="#EBE4FF"/>
<path d="M427.226 153H426.26V146.224H427.1L427.24 147.4C427.688 146.532 428.584 146.042 429.564 146.042C431.426 146.042 432.196 147.148 432.196 148.856V153H431.23V149.066C431.23 147.484 430.516 146.924 429.396 146.924C428.01 146.924 427.226 147.932 427.226 149.458V153ZM436.963 153.168C434.975 153.168 433.645 151.74 433.645 149.612C433.645 147.498 434.961 146.042 436.893 146.042C438.727 146.042 439.973 147.344 439.973 149.262V149.738H434.583C434.653 151.39 435.521 152.342 436.977 152.342C438.083 152.342 438.797 151.866 439.049 150.97H439.973C439.609 152.398 438.559 153.168 436.963 153.168ZM436.893 146.868C435.619 146.868 434.779 147.708 434.611 149.038H439.007C439.007 147.736 438.167 146.868 436.893 146.868ZM442.768 153L440.528 146.224H441.522L442.852 150.312C443.006 150.76 443.132 151.222 443.272 151.768C443.384 151.222 443.608 150.536 443.678 150.312L445.022 146.224H446.016L447.346 150.312C447.472 150.676 447.64 151.264 447.766 151.768C447.906 151.208 447.934 151.04 448.172 150.312L449.516 146.224H450.524L448.228 153H447.29L445.89 148.744C445.722 148.24 445.61 147.82 445.526 147.414C445.428 147.778 445.316 148.184 445.134 148.744L443.734 153H442.768ZM455.613 155.954V146.224H456.453L456.551 147.596C457.027 146.546 457.979 146.042 459.113 146.042C461.073 146.042 462.249 147.54 462.249 149.584C462.249 151.628 461.115 153.168 459.113 153.168C457.965 153.168 457.055 152.678 456.579 151.698V155.954H455.613ZM456.593 149.612C456.593 151.166 457.461 152.3 458.945 152.3C460.415 152.3 461.269 151.166 461.269 149.612C461.269 148.044 460.415 146.924 458.945 146.924C457.461 146.924 456.593 148.044 456.593 149.612ZM465.735 153.168C464.293 153.168 463.439 152.356 463.439 151.166C463.439 149.92 464.391 149.136 465.973 149.01L468.213 148.828V148.604C468.213 147.274 467.415 146.854 466.421 146.854C465.245 146.854 464.545 147.386 464.545 148.296H463.663C463.663 146.924 464.783 146.042 466.449 146.042C468.017 146.042 469.165 146.826 469.165 148.618V153H468.353L468.227 151.81C467.807 152.664 466.883 153.168 465.735 153.168ZM465.959 152.384C467.387 152.384 468.213 151.39 468.213 149.92V149.556L466.211 149.71C464.937 149.822 464.419 150.382 464.419 151.138C464.419 151.964 465.035 152.384 465.959 152.384ZM470.267 155.954V155.156H471.009C471.597 155.156 472.185 155.114 472.521 154.204L472.815 153.406L470.071 146.224H471.093L473.277 152.132L475.419 146.224H476.413L473.305 154.554C472.913 155.618 472.255 156.052 471.289 156.052C470.883 156.052 470.575 156.024 470.267 155.954ZM478.509 153H477.543V146.224H478.383L478.495 147.19C478.831 146.476 479.587 146.042 480.539 146.042C481.603 146.042 482.401 146.602 482.723 147.484C483.031 146.602 483.857 146.042 484.949 146.042C486.419 146.042 487.385 146.994 487.385 148.562V153H486.447V148.758C486.447 147.596 485.803 146.91 484.767 146.91C483.633 146.91 482.961 147.764 482.961 148.814V153H482.009V148.744C482.009 147.596 481.351 146.924 480.329 146.924C479.195 146.924 478.509 147.764 478.509 148.8V153ZM492.17 153.168C490.182 153.168 488.852 151.74 488.852 149.612C488.852 147.498 490.168 146.042 492.1 146.042C493.934 146.042 495.18 147.344 495.18 149.262V149.738H489.79C489.86 151.39 490.728 152.342 492.184 152.342C493.29 152.342 494.004 151.866 494.256 150.97H495.18C494.816 152.398 493.766 153.168 492.17 153.168ZM492.1 146.868C490.826 146.868 489.986 147.708 489.818 149.038H494.214C494.214 147.736 493.374 146.868 492.1 146.868ZM497.691 153H496.725V146.224H497.565L497.705 147.4C498.153 146.532 499.049 146.042 500.029 146.042C501.891 146.042 502.661 147.148 502.661 148.856V153H501.695V149.066C501.695 147.484 500.981 146.924 499.861 146.924C498.475 146.924 497.691 147.932 497.691 149.458V153ZM506.14 153H505.188V147.036H503.83V146.224H505.188V144.082H506.14V146.224H507.498V147.036H506.14V153Z" fill="#212121"/>
<rect x="538.5" y="209" width="112" height="42" rx="8" fill="#EBE4FF"/>
<path d="M560.346 235H559.394V229.036H558.036V228.224H559.394V226.082H560.346V228.224H561.704V229.036H560.346V235ZM566.504 228.14V229.008H565.972C564.726 229.008 563.928 229.848 563.928 231.136V235H562.962V228.224H563.872L563.942 229.274C564.208 228.546 564.922 228.07 565.874 228.07C566.084 228.07 566.266 228.084 566.504 228.14ZM569.461 235.168C568.019 235.168 567.165 234.356 567.165 233.166C567.165 231.92 568.117 231.136 569.699 231.01L571.939 230.828V230.604C571.939 229.274 571.141 228.854 570.147 228.854C568.971 228.854 568.271 229.386 568.271 230.296H567.389C567.389 228.924 568.509 228.042 570.175 228.042C571.743 228.042 572.891 228.826 572.891 230.618V235H572.079L571.953 233.81C571.533 234.664 570.609 235.168 569.461 235.168ZM569.685 234.384C571.113 234.384 571.939 233.39 571.939 231.92V231.556L569.937 231.71C568.663 231.822 568.145 232.382 568.145 233.138C568.145 233.964 568.761 234.384 569.685 234.384ZM575.795 235H574.829V228.224H575.669L575.809 229.4C576.257 228.532 577.153 228.042 578.133 228.042C579.995 228.042 580.765 229.148 580.765 230.856V235H579.799V231.066C579.799 229.484 579.085 228.924 577.965 228.924C576.579 228.924 575.795 229.932 575.795 231.458V235ZM582.035 233.096H582.959C582.959 233.88 583.547 234.37 584.499 234.37C585.549 234.37 586.165 233.922 586.165 233.194C586.165 232.634 585.885 232.312 585.087 232.116L583.925 231.822C582.749 231.528 582.175 230.912 582.175 229.988C582.175 228.798 583.169 228.042 584.625 228.042C586.053 228.042 586.977 228.826 587.019 230.086H586.081C586.053 229.302 585.507 228.84 584.597 228.84C583.645 228.84 583.113 229.246 583.113 229.974C583.113 230.492 583.477 230.856 584.219 231.038L585.381 231.332C586.557 231.626 587.089 232.172 587.089 233.152C587.089 234.37 586.053 235.168 584.513 235.168C582.987 235.168 582.035 234.356 582.035 233.096ZM590.625 235.168C589.183 235.168 588.329 234.356 588.329 233.166C588.329 231.92 589.281 231.136 590.863 231.01L593.103 230.828V230.604C593.103 229.274 592.305 228.854 591.311 228.854C590.135 228.854 589.435 229.386 589.435 230.296H588.553C588.553 228.924 589.673 228.042 591.339 228.042C592.907 228.042 594.055 228.826 594.055 230.618V235H593.243L593.117 233.81C592.697 234.664 591.773 235.168 590.625 235.168ZM590.849 234.384C592.277 234.384 593.103 233.39 593.103 231.92V231.556L591.101 231.71C589.827 231.822 589.309 232.382 589.309 233.138C589.309 233.964 589.925 234.384 590.849 234.384ZM595.517 231.626C595.517 229.498 596.819 228.042 598.793 228.042C600.361 228.042 601.509 228.952 601.775 230.352H600.809C600.557 229.414 599.745 228.896 598.807 228.896C597.435 228.896 596.469 229.946 596.469 231.612C596.469 233.222 597.365 234.3 598.737 234.3C599.745 234.3 600.557 233.74 600.823 232.872H601.803C601.481 234.258 600.277 235.168 598.737 235.168C596.819 235.168 595.517 233.754 595.517 231.626ZM604.821 235H603.869V229.036H602.511V228.224H603.869V226.082H604.821V228.224H606.179V229.036H604.821V235ZM607.913 226.362C607.521 226.362 607.199 226.04 607.199 225.648C607.199 225.256 607.521 224.92 607.913 224.92C608.305 224.92 608.641 225.256 608.641 225.648C608.641 226.04 608.305 226.362 607.913 226.362ZM607.437 235V228.224H608.403V235H607.437ZM609.941 231.612C609.941 229.54 611.397 228.042 613.385 228.042C615.373 228.042 616.829 229.54 616.829 231.612C616.829 233.67 615.373 235.168 613.385 235.168C611.397 235.168 609.941 233.67 609.941 231.612ZM610.921 231.598C610.921 233.194 611.929 234.3 613.385 234.3C614.827 234.3 615.849 233.194 615.849 231.598C615.849 230.03 614.827 228.91 613.385 228.91C611.929 228.91 610.921 230.03 610.921 231.598ZM619.34 235H618.374V228.224H619.214L619.354 229.4C619.802 228.532 620.698 228.042 621.678 228.042C623.54 228.042 624.31 229.148 624.31 230.856V235H623.344V231.066C623.344 229.484 622.63 228.924 621.51 228.924C620.124 228.924 619.34 229.932 619.34 231.458V235ZM625.58 233.096H626.504C626.504 233.88 627.092 234.37 628.044 234.37C629.094 234.37 629.71 233.922 629.71 233.194C629.71 232.634 629.43 232.312 628.632 232.116L627.47 231.822C626.294 231.528 625.72 230.912 625.72 229.988C625.72 228.798 626.714 228.042 628.17 228.042C629.598 228.042 630.522 228.826 630.564 230.086H629.626C629.598 229.302 629.052 228.84 628.142 228.84C627.19 228.84 626.658 229.246 626.658 229.974C626.658 230.492 627.022 230.856 627.764 231.038L628.926 231.332C630.102 231.626 630.634 232.172 630.634 233.152C630.634 234.37 629.598 235.168 628.058 235.168C626.532 235.168 625.58 234.356 625.58 233.096Z" fill="#212121"/>
<rect x="282.5" y="209" width="112" height="42" rx="8" fill="#EBE4FF"/>
<path d="M333.809 235H327.201V234.202L330.407 231.402C332.255 229.792 332.731 229.092 332.731 227.902C332.731 226.544 331.919 225.718 330.589 225.718C329.203 225.718 328.293 226.726 328.251 228.28H327.243C327.299 226.18 328.629 224.794 330.603 224.794C332.493 224.794 333.753 226.012 333.753 227.846C333.753 229.302 333.095 230.268 331.093 232.018L328.755 234.062H333.809V235ZM340.761 230.59H336.659V235H335.651V224.976H341.559V225.9H336.659V229.68H340.761V230.59ZM342.623 235H341.601L345.283 224.976H346.529L350.253 235H349.203L348.223 232.34H343.603L342.623 235ZM345.773 226.39L343.911 231.458H347.901L346.025 226.39C345.983 226.25 345.913 226.082 345.899 225.984C345.885 226.068 345.829 226.25 345.773 226.39Z" fill="#212121"/>
<rect x="154.5" y="209" width="112" height="42" rx="8" fill="#EBE4FF"/>
<path d="M195.458 228.14V229.008H194.926C193.68 229.008 192.882 229.848 192.882 231.136V235H191.916V228.224H192.826L192.896 229.274C193.162 228.546 193.876 228.07 194.828 228.07C195.038 228.07 195.22 228.084 195.458 228.14ZM199.325 235.168C197.337 235.168 196.007 233.74 196.007 231.612C196.007 229.498 197.323 228.042 199.255 228.042C201.089 228.042 202.335 229.344 202.335 231.262V231.738H196.945C197.015 233.39 197.883 234.342 199.339 234.342C200.445 234.342 201.159 233.866 201.411 232.97H202.335C201.971 234.398 200.921 235.168 199.325 235.168ZM199.255 228.868C197.981 228.868 197.141 229.708 196.973 231.038H201.369C201.369 229.736 200.529 228.868 199.255 228.868ZM205.591 235L202.819 228.224H203.855L205.605 232.592C205.787 233.082 205.969 233.544 206.095 233.992C206.221 233.53 206.403 233.082 206.599 232.592L208.377 228.224H209.371L206.557 235H205.591ZM210.986 226.362C210.594 226.362 210.272 226.04 210.272 225.648C210.272 225.256 210.594 224.92 210.986 224.92C211.378 224.92 211.714 225.256 211.714 225.648C211.714 226.04 211.378 226.362 210.986 226.362ZM210.51 235V228.224H211.476V235H210.51ZM216.332 235.168C214.344 235.168 213.014 233.74 213.014 231.612C213.014 229.498 214.33 228.042 216.262 228.042C218.096 228.042 219.342 229.344 219.342 231.262V231.738H213.952C214.022 233.39 214.89 234.342 216.346 234.342C217.452 234.342 218.166 233.866 218.418 232.97H219.342C218.978 234.398 217.928 235.168 216.332 235.168ZM216.262 228.868C214.988 228.868 214.148 229.708 213.98 231.038H218.376C218.376 229.736 217.536 228.868 216.262 228.868ZM222.137 235L219.897 228.224H220.891L222.221 232.312C222.375 232.76 222.501 233.222 222.641 233.768C222.753 233.222 222.977 232.536 223.047 232.312L224.391 228.224H225.385L226.715 232.312C226.841 232.676 227.009 233.264 227.135 233.768C227.275 233.208 227.303 233.04 227.541 232.312L228.885 228.224H229.893L227.597 235H226.659L225.259 230.744C225.091 230.24 224.979 229.82 224.895 229.414C224.797 229.778 224.685 230.184 224.503 230.744L223.103 235H222.137Z" fill="#212121"/>
<rect x="154.5" y="348" width="112" height="42" rx="8" fill="#EBE4FF"/>
<path d="M202.989 374.168C201.001 374.168 199.671 372.74 199.671 370.612C199.671 368.498 200.987 367.042 202.919 367.042C204.753 367.042 205.999 368.344 205.999 370.262V370.738H200.609C200.679 372.39 201.547 373.342 203.003 373.342C204.109 373.342 204.823 372.866 205.075 371.97H205.999C205.635 373.398 204.585 374.168 202.989 374.168ZM202.919 367.868C201.645 367.868 200.805 368.708 200.637 370.038H205.033C205.033 368.736 204.193 367.868 202.919 367.868ZM210.203 374.168C208.229 374.168 207.067 372.656 207.067 370.626C207.067 368.582 208.229 367.042 210.245 367.042C211.365 367.042 212.261 367.532 212.737 368.512V363.794H213.703V374H212.863L212.765 372.614C212.289 373.664 211.337 374.168 210.203 374.168ZM210.371 373.286C211.855 373.286 212.723 372.166 212.723 370.598C212.723 369.044 211.855 367.91 210.371 367.91C208.901 367.91 208.047 369.044 208.047 370.598C208.047 372.166 208.901 373.286 210.371 373.286ZM216.195 365.362C215.803 365.362 215.481 365.04 215.481 364.648C215.481 364.256 215.803 363.92 216.195 363.92C216.587 363.92 216.923 364.256 216.923 364.648C216.923 365.04 216.587 365.362 216.195 365.362ZM215.719 374V367.224H216.685V374H215.719ZM220.253 374H219.301V368.036H217.943V367.224H219.301V365.082H220.253V367.224H221.611V368.036H220.253V374Z" fill="#212121"/>
<rect x="26.5" y="209" width="112" height="42" rx="8" fill="#EBE4FF"/>
<path d="M62.1229 235.168C60.6809 235.168 59.8269 234.356 59.8269 233.166C59.8269 231.92 60.7789 231.136 62.3609 231.01L64.6009 230.828V230.604C64.6009 229.274 63.8029 228.854 62.8089 228.854C61.6329 228.854 60.9329 229.386 60.9329 230.296H60.0509C60.0509 228.924 61.1709 228.042 62.8369 228.042C64.4049 228.042 65.5529 228.826 65.5529 230.618V235H64.7409L64.6149 233.81C64.1949 234.664 63.2709 235.168 62.1229 235.168ZM62.3469 234.384C63.7749 234.384 64.6009 233.39 64.6009 231.92V231.556L62.5989 231.71C61.3249 231.822 60.8069 232.382 60.8069 233.138C60.8069 233.964 61.4229 234.384 62.3469 234.384ZM68.4574 235H67.4914V228.224H68.3314L68.4434 229.19C68.7794 228.476 69.5354 228.042 70.4874 228.042C71.5514 228.042 72.3494 228.602 72.6714 229.484C72.9794 228.602 73.8054 228.042 74.8974 228.042C76.3674 228.042 77.3334 228.994 77.3334 230.562V235H76.3954V230.758C76.3954 229.596 75.7514 228.91 74.7154 228.91C73.5814 228.91 72.9094 229.764 72.9094 230.814V235H71.9574V230.744C71.9574 229.596 71.2994 228.924 70.2774 228.924C69.1434 228.924 68.4574 229.764 68.4574 230.8V235ZM78.8006 231.612C78.8006 229.54 80.2566 228.042 82.2446 228.042C84.2326 228.042 85.6886 229.54 85.6886 231.612C85.6886 233.67 84.2326 235.168 82.2446 235.168C80.2566 235.168 78.8006 233.67 78.8006 231.612ZM79.7806 231.598C79.7806 233.194 80.7886 234.3 82.2446 234.3C83.6866 234.3 84.7086 233.194 84.7086 231.598C84.7086 230.03 83.6866 228.91 82.2446 228.91C80.7886 228.91 79.7806 230.03 79.7806 231.598ZM91.8295 228.224H92.7955V235H91.9555L91.8295 233.852C91.4515 234.636 90.5135 235.168 89.4495 235.168C87.8535 235.168 86.9855 234.076 86.9855 232.424V228.21H87.9655V232.116C87.9655 233.726 88.6795 234.3 89.7575 234.3C91.0595 234.3 91.8295 233.432 91.8295 231.822V228.224ZM95.7738 235H94.8078V228.224H95.6478L95.7878 229.4C96.2358 228.532 97.1318 228.042 98.1118 228.042C99.9738 228.042 100.744 229.148 100.744 230.856V235H99.7778V231.066C99.7778 229.484 99.0638 228.924 97.9438 228.924C96.5578 228.924 95.7738 229.932 95.7738 231.458V235ZM104.223 235H103.271V229.036H101.913V228.224H103.271V226.082H104.223V228.224H105.581V229.036H104.223V235Z" fill="#212121"/>
<rect x="26.5" y="127" width="112" height="42" rx="8" fill="#EBE4FF"/>
<path d="M39.2121 146.14V147.008H38.6801C37.4341 147.008 36.6361 147.848 36.6361 149.136V153H35.6701V146.224H36.5801L36.6501 147.274C36.9161 146.546 37.6301 146.07 38.5821 146.07C38.7921 146.07 38.9741 146.084 39.2121 146.14ZM43.0785 153.168C41.0905 153.168 39.7605 151.74 39.7605 149.612C39.7605 147.498 41.0765 146.042 43.0085 146.042C44.8425 146.042 46.0885 147.344 46.0885 149.262V149.738H40.6985C40.7685 151.39 41.6365 152.342 43.0925 152.342C44.1985 152.342 44.9125 151.866 45.1645 150.97H46.0885C45.7245 152.398 44.6745 153.168 43.0785 153.168ZM43.0085 146.868C41.7345 146.868 40.8945 147.708 40.7265 149.038H45.1225C45.1225 147.736 44.2825 146.868 43.0085 146.868ZM47.157 149.626C47.157 147.498 48.459 146.042 50.433 146.042C52.001 146.042 53.149 146.952 53.415 148.352H52.449C52.197 147.414 51.385 146.896 50.447 146.896C49.075 146.896 48.109 147.946 48.109 149.612C48.109 151.222 49.005 152.3 50.377 152.3C51.385 152.3 52.197 151.74 52.463 150.872H53.443C53.121 152.258 51.917 153.168 50.377 153.168C48.459 153.168 47.157 151.754 47.157 149.626ZM55.3824 144.362C54.9904 144.362 54.6684 144.04 54.6684 143.648C54.6684 143.256 54.9904 142.92 55.3824 142.92C55.7744 142.92 56.1104 143.256 56.1104 143.648C56.1104 144.04 55.7744 144.362 55.3824 144.362ZM54.9064 153V146.224H55.8724V153H54.9064ZM57.8869 155.954V146.224H58.7269L58.8249 147.596C59.3009 146.546 60.2529 146.042 61.3869 146.042C63.3469 146.042 64.5229 147.54 64.5229 149.584C64.5229 151.628 63.3889 153.168 61.3869 153.168C60.2389 153.168 59.3289 152.678 58.8529 151.698V155.954H57.8869ZM58.8669 149.612C58.8669 151.166 59.7349 152.3 61.2189 152.3C62.6889 152.3 63.5429 151.166 63.5429 149.612C63.5429 148.044 62.6889 146.924 61.2189 146.924C59.7349 146.924 58.8669 148.044 58.8669 149.612ZM66.5387 144.362C66.1467 144.362 65.8247 144.04 65.8247 143.648C65.8247 143.256 66.1467 142.92 66.5387 142.92C66.9307 142.92 67.2667 143.256 67.2667 143.648C67.2667 144.04 66.9307 144.362 66.5387 144.362ZM66.0627 153V146.224H67.0287V153H66.0627ZM71.8852 153.168C69.8972 153.168 68.5672 151.74 68.5672 149.612C68.5672 147.498 69.8832 146.042 71.8152 146.042C73.6492 146.042 74.8952 147.344 74.8952 149.262V149.738H69.5052C69.5752 151.39 70.4432 152.342 71.8992 152.342C73.0052 152.342 73.7192 151.866 73.9712 150.97H74.8952C74.5312 152.398 73.4812 153.168 71.8852 153.168ZM71.8152 146.868C70.5412 146.868 69.7012 147.708 69.5332 149.038H73.9292C73.9292 147.736 73.0892 146.868 71.8152 146.868ZM77.4056 153H76.4396V146.224H77.2796L77.4196 147.4C77.8676 146.532 78.7636 146.042 79.7436 146.042C81.6056 146.042 82.3756 147.148 82.3756 148.856V153H81.4096V149.066C81.4096 147.484 80.6956 146.924 79.5756 146.924C78.1896 146.924 77.4056 147.932 77.4056 149.458V153ZM85.855 153H84.903V147.036H83.545V146.224H84.903V144.082H85.855V146.224H87.213V147.036H85.855V153ZM95.0137 153.168C93.0397 153.168 91.8777 151.656 91.8777 149.626C91.8777 147.582 93.0397 146.042 95.0557 146.042C96.1757 146.042 97.0717 146.532 97.5477 147.512V142.794H98.5137V153H97.6737L97.5757 151.614C97.0997 152.664 96.1477 153.168 95.0137 153.168ZM95.1817 152.286C96.6657 152.286 97.5337 151.166 97.5337 149.598C97.5337 148.044 96.6657 146.91 95.1817 146.91C93.7117 146.91 92.8577 148.044 92.8577 149.598C92.8577 151.166 93.7117 152.286 95.1817 152.286ZM103.371 153.168C101.383 153.168 100.053 151.74 100.053 149.612C100.053 147.498 101.369 146.042 103.301 146.042C105.135 146.042 106.381 147.344 106.381 149.262V149.738H100.991C101.061 151.39 101.929 152.342 103.385 152.342C104.491 152.342 105.205 151.866 105.457 150.97H106.381C106.017 152.398 104.967 153.168 103.371 153.168ZM103.301 146.868C102.027 146.868 101.187 147.708 101.019 149.038H105.415C105.415 147.736 104.575 146.868 103.301 146.868ZM109.412 153H108.46V147.036H107.102V146.224H108.46V144.082H109.412V146.224H110.77V147.036H109.412V153ZM113.864 153.168C112.422 153.168 111.568 152.356 111.568 151.166C111.568 149.92 112.52 149.136 114.102 149.01L116.342 148.828V148.604C116.342 147.274 115.544 146.854 114.55 146.854C113.374 146.854 112.674 147.386 112.674 148.296H111.792C111.792 146.924 112.912 146.042 114.578 146.042C116.146 146.042 117.294 146.826 117.294 148.618V153H116.482L116.356 151.81C115.936 152.664 115.012 153.168 113.864 153.168ZM114.088 152.384C115.516 152.384 116.342 151.39 116.342 149.92V149.556L114.34 149.71C113.066 149.822 112.548 150.382 112.548 151.138C112.548 151.964 113.164 152.384 114.088 152.384ZM119.709 144.362C119.317 144.362 118.995 144.04 118.995 143.648C118.995 143.256 119.317 142.92 119.709 142.92C120.101 142.92 120.437 143.256 120.437 143.648C120.437 144.04 120.101 144.362 119.709 144.362ZM119.233 153V146.224H120.199V153H119.233ZM123.221 153H122.255V142.794H123.221V153ZM124.702 151.096H125.626C125.626 151.88 126.214 152.37 127.166 152.37C128.216 152.37 128.832 151.922 128.832 151.194C128.832 150.634 128.552 150.312 127.754 150.116L126.592 149.822C125.416 149.528 124.842 148.912 124.842 147.988C124.842 146.798 125.836 146.042 127.292 146.042C128.72 146.042 129.644 146.826 129.686 148.086H128.748C128.72 147.302 128.174 146.84 127.264 146.84C126.312 146.84 125.78 147.246 125.78 147.974C125.78 148.492 126.144 148.856 126.886 149.038L128.048 149.332C129.224 149.626 129.756 150.172 129.756 151.152C129.756 152.37 128.72 153.168 127.18 153.168C125.654 153.168 124.702 152.356 124.702 151.096Z" fill="#212121"/>
<rect x="26.5" y="45" width="112" height="42" rx="8" fill="#EBE4FF"/>
<path d="M33.9819 69.096H34.9059C34.9059 69.88 35.4939 70.37 36.4459 70.37C37.4959 70.37 38.1119 69.922 38.1119 69.194C38.1119 68.634 37.8319 68.312 37.0339 68.116L35.8719 67.822C34.6959 67.528 34.1219 66.912 34.1219 65.988C34.1219 64.798 35.1159 64.042 36.5719 64.042C37.9999 64.042 38.9239 64.826 38.9659 66.086H38.0279C37.9999 65.302 37.4539 64.84 36.5439 64.84C35.5919 64.84 35.0599 65.246 35.0599 65.974C35.0599 66.492 35.4239 66.856 36.1659 67.038L37.3279 67.332C38.5039 67.626 39.0359 68.172 39.0359 69.152C39.0359 70.37 37.9999 71.168 36.4599 71.168C34.9339 71.168 33.9819 70.356 33.9819 69.096ZM41.9038 71L39.6638 64.224H40.6578L41.9878 68.312C42.1418 68.76 42.2678 69.222 42.4078 69.768C42.5198 69.222 42.7438 68.536 42.8138 68.312L44.1578 64.224H45.1518L46.4818 68.312C46.6078 68.676 46.7758 69.264 46.9018 69.768C47.0418 69.208 47.0698 69.04 47.3078 68.312L48.6518 64.224H49.6598L47.3638 71H46.4258L45.0258 66.744C44.8578 66.24 44.7458 65.82 44.6618 65.414C44.5638 65.778 44.4518 66.184 44.2698 66.744L42.8698 71H41.9038ZM51.3424 62.362C50.9504 62.362 50.6284 62.04 50.6284 61.648C50.6284 61.256 50.9504 60.92 51.3424 60.92C51.7344 60.92 52.0704 61.256 52.0704 61.648C52.0704 62.04 51.7344 62.362 51.3424 62.362ZM50.8664 71V64.224H51.8324V71H50.8664ZM55.4009 71H54.4489V65.036H53.0909V64.224H54.4489V62.082H55.4009V64.224H56.7589V65.036H55.4009V71ZM57.4724 67.626C57.4724 65.498 58.7744 64.042 60.7484 64.042C62.3164 64.042 63.4644 64.952 63.7304 66.352H62.7644C62.5124 65.414 61.7004 64.896 60.7624 64.896C59.3904 64.896 58.4244 65.946 58.4244 67.612C58.4244 69.222 59.3204 70.3 60.6924 70.3C61.7004 70.3 62.5124 69.74 62.7784 68.872H63.7584C63.4364 70.258 62.2324 71.168 60.6924 71.168C58.7744 71.168 57.4724 69.754 57.4724 67.626ZM66.1879 70.986H65.2219V60.794H66.1879V65.4C66.6219 64.588 67.4479 64.042 68.5819 64.042C70.3599 64.042 71.1579 65.148 71.1579 66.856V71H70.1919V67.066C70.1919 65.484 69.4499 64.924 68.3999 64.924C66.9439 64.924 66.1879 66.002 66.1879 67.304V70.986ZM78.912 71.168C77.47 71.168 76.616 70.356 76.616 69.166C76.616 67.92 77.568 67.136 79.15 67.01L81.39 66.828V66.604C81.39 65.274 80.592 64.854 79.598 64.854C78.422 64.854 77.722 65.386 77.722 66.296H76.84C76.84 64.924 77.96 64.042 79.626 64.042C81.194 64.042 82.342 64.826 82.342 66.618V71H81.53L81.404 69.81C80.984 70.664 80.06 71.168 78.912 71.168ZM79.136 70.384C80.564 70.384 81.39 69.39 81.39 67.92V67.556L79.388 67.71C78.114 67.822 77.596 68.382 77.596 69.138C77.596 69.964 78.212 70.384 79.136 70.384ZM83.8045 67.626C83.8045 65.498 85.1065 64.042 87.0805 64.042C88.6485 64.042 89.7965 64.952 90.0625 66.352H89.0965C88.8445 65.414 88.0325 64.896 87.0945 64.896C85.7225 64.896 84.7565 65.946 84.7565 67.612C84.7565 69.222 85.6525 70.3 87.0245 70.3C88.0325 70.3 88.8445 69.74 89.1105 68.872H90.0905C89.7685 70.258 88.5645 71.168 87.0245 71.168C85.1065 71.168 83.8045 69.754 83.8045 67.626ZM91.0779 67.626C91.0779 65.498 92.3799 64.042 94.3539 64.042C95.9219 64.042 97.0699 64.952 97.3359 66.352H96.3699C96.1179 65.414 95.3059 64.896 94.3679 64.896C92.9959 64.896 92.0299 65.946 92.0299 67.612C92.0299 69.222 92.9259 70.3 94.2979 70.3C95.3059 70.3 96.1179 69.74 96.3839 68.872H97.3639C97.0419 70.258 95.8379 71.168 94.2979 71.168C92.3799 71.168 91.0779 69.754 91.0779 67.626ZM98.3513 67.612C98.3513 65.54 99.8073 64.042 101.795 64.042C103.783 64.042 105.239 65.54 105.239 67.612C105.239 69.67 103.783 71.168 101.795 71.168C99.8073 71.168 98.3513 69.67 98.3513 67.612ZM99.3313 67.598C99.3313 69.194 100.339 70.3 101.795 70.3C103.237 70.3 104.259 69.194 104.259 67.598C104.259 66.03 103.237 64.91 101.795 64.91C100.339 64.91 99.3313 66.03 99.3313 67.598ZM111.38 64.224H112.346V71H111.506L111.38 69.852C111.002 70.636 110.064 71.168 109 71.168C107.404 71.168 106.536 70.076 106.536 68.424V64.21H107.516V68.116C107.516 69.726 108.23 70.3 109.308 70.3C110.61 70.3 111.38 69.432 111.38 67.822V64.224ZM115.325 71H114.359V64.224H115.199L115.339 65.4C115.787 64.532 116.683 64.042 117.663 64.042C119.525 64.042 120.295 65.148 120.295 66.856V71H119.329V67.066C119.329 65.484 118.615 64.924 117.495 64.924C116.109 64.924 115.325 65.932 115.325 67.458V71ZM123.774 71H122.822V65.036H121.464V64.224H122.822V62.082H123.774V64.224H125.132V65.036H123.774V71ZM125.816 69.096H126.74C126.74 69.88 127.328 70.37 128.28 70.37C129.33 70.37 129.946 69.922 129.946 69.194C129.946 68.634 129.666 68.312 128.868 68.116L127.706 67.822C126.53 67.528 125.956 66.912 125.956 65.988C125.956 64.798 126.95 64.042 128.406 64.042C129.834 64.042 130.758 64.826 130.8 66.086H129.862C129.834 65.302 129.288 64.84 128.378 64.84C127.426 64.84 126.894 65.246 126.894 65.974C126.894 66.492 127.258 66.856 128 67.038L129.162 67.332C130.338 67.626 130.87 68.172 130.87 69.152C130.87 70.37 129.834 71.168 128.294 71.168C126.768 71.168 125.816 70.356 125.816 69.096Z" fill="#212121"/>
<path d="M141.5 229.3C141.113 229.3 140.8 229.613 140.8 230C140.8 230.387 141.113 230.7 141.5 230.7L141.5 229.3ZM150.995 230.495C151.268 230.222 151.268 229.778 150.995 229.505L146.54 225.05C146.267 224.777 145.824 224.777 145.55 225.05C145.277 225.324 145.277 225.767 145.55 226.04L149.51 230L145.55 233.96C145.277 234.233 145.277 234.676 145.55 234.95C145.824 235.223 146.267 235.223 146.54 234.95L150.995 230.495ZM141.5 230.7L150.5 230.7L150.5 229.3L141.5 229.3L141.5 230.7Z" fill="#7D76FF"/>
<path d="M-42.5 229.3C-42.8866 229.3 -43.2 229.613 -43.2 230C-43.2 230.387 -42.8866 230.7 -42.5 230.7L-42.5 229.3ZM22.995 230.495C23.2683 230.222 23.2683 229.778 22.995 229.505L18.5402 225.05C18.2668 224.777 17.8236 224.777 17.5503 225.05C17.2769 225.324 17.2769 225.767 17.5503 226.04L21.5101 230L17.5503 233.96C17.2769 234.233 17.2769 234.676 17.5503 234.95C17.8236 235.223 18.2668 235.223 18.5402 234.95L22.995 230.495ZM-42.5 230.7L22.5 230.7L22.5 229.3L-42.5 229.3L-42.5 230.7Z" fill="#7D76FF"/>
<path d="M269.5 229.3C269.113 229.3 268.8 229.613 268.8 230C268.8 230.387 269.113 230.7 269.5 230.7L269.5 229.3ZM278.995 230.495C279.268 230.222 279.268 229.778 278.995 229.505L274.54 225.05C274.267 224.777 273.824 224.777 273.55 225.05C273.277 225.324 273.277 225.767 273.55 226.04L277.51 230L273.55 233.96C273.277 234.233 273.277 234.676 273.55 234.95C273.824 235.223 274.267 235.223 274.54 234.95L278.995 230.495ZM269.5 230.7L278.5 230.7L278.5 229.3L269.5 229.3L269.5 230.7Z" fill="#7D76FF"/>
<path d="M211.2 255C211.2 254.613 210.887 254.3 210.5 254.3C210.113 254.3 209.8 254.613 209.8 255H211.2ZM210.005 344.495C210.278 344.768 210.722 344.768 210.995 344.495L215.45 340.04C215.723 339.767 215.723 339.324 215.45 339.05C215.176 338.777 214.733 338.777 214.46 339.05L210.5 343.01L206.54 339.05C206.267 338.777 205.824 338.777 205.55 339.05C205.277 339.324 205.277 339.767 205.55 340.04L210.005 344.495ZM209.8 255V344H211.2V255H209.8Z" fill="#7D76FF"/>
<path d="M397.5 229.3C397.113 229.3 396.8 229.613 396.8 230C396.8 230.387 397.113 230.7 397.5 230.7L397.5 229.3ZM406.995 230.495C407.268 230.222 407.268 229.778 406.995 229.505L402.54 225.05C402.267 224.777 401.824 224.777 401.55 225.05C401.277 225.324 401.277 225.767 401.55 226.04L405.51 230L401.55 233.96C401.277 234.233 401.277 234.676 401.55 234.95C401.824 235.223 402.267 235.223 402.54 234.95L406.995 230.495ZM397.5 230.7L406.5 230.7L406.5 229.3L397.5 229.3L397.5 230.7Z" fill="#7D76FF"/>
<path d="M465.8 205C465.8 205.387 466.113 205.7 466.5 205.7C466.887 205.7 467.2 205.387 467.2 205H465.8ZM466.995 172.505C466.722 172.232 466.278 172.232 466.005 172.505L461.55 176.96C461.277 177.233 461.277 177.676 461.55 177.95C461.824 178.223 462.267 178.223 462.54 177.95L466.5 173.99L470.46 177.95C470.733 178.223 471.176 178.223 471.45 177.95C471.723 177.676 471.723 177.233 471.45 176.96L466.995 172.505ZM467.2 205V173H465.8V205H467.2Z" fill="#7D76FF"/>
<path d="M82.005 205.495C82.2784 205.768 82.7216 205.768 82.995 205.495L87.4497 201.04C87.7231 200.767 87.7231 200.324 87.4497 200.05C87.1764 199.777 86.7332 199.777 86.4598 200.05L82.5 204.01L78.5402 200.05C78.2668 199.777 77.8236 199.777 77.5503 200.05C77.2769 200.324 77.2769 200.767 77.5503 201.04L82.005 205.495ZM82.995 172.505C82.7216 172.232 82.2784 172.232 82.005 172.505L77.5503 176.96C77.2769 177.233 77.2769 177.676 77.5503 177.95C77.8236 178.223 78.2668 178.223 78.5402 177.95L82.5 173.99L86.4598 177.95C86.7332 178.223 87.1764 178.223 87.4497 177.95C87.7231 177.676 87.7231 177.233 87.4497 176.96L82.995 172.505ZM83.2 205V173H81.8V205H83.2Z" fill="#7D76FF"/>
<path d="M82.995 254.505C82.7216 254.232 82.2784 254.232 82.005 254.505L77.5503 258.96C77.2769 259.233 77.2769 259.676 77.5503 259.95C77.8236 260.223 78.2668 260.223 78.5402 259.95L82.5 255.99L86.4598 259.95C86.7332 260.223 87.1764 260.223 87.4497 259.95C87.7231 259.676 87.7231 259.233 87.4497 258.96L82.995 254.505ZM83.2 296L83.2 255H81.8L81.8 296H83.2ZM78.5 299.3H-43.5V300.7H78.5V299.3ZM81.8 296C81.8 297.823 80.3225 299.3 78.5 299.3V300.7C81.0957 300.7 83.2 298.596 83.2 296H81.8Z" fill="#7D76FF"/>
<path d="M-42 37L462.5 37C464.709 37 466.5 38.7908 466.5 41L466.5 123" stroke="#7D76FF" stroke-width="1.4"/>
<path d="M81.8 123C81.8 123.387 82.1134 123.7 82.5 123.7C82.8866 123.7 83.2 123.387 83.2 123H81.8ZM82.995 90.505C82.7216 90.2317 82.2784 90.2317 82.005 90.505L77.5503 94.9598C77.2769 95.2332 77.2769 95.6764 77.5503 95.9497C77.8236 96.2231 78.2668 96.2231 78.5402 95.9497L82.5 91.9899L86.4598 95.9497C86.7332 96.2231 87.1764 96.2231 87.4497 95.9497C87.7231 95.6764 87.7231 95.2332 87.4497 94.9598L82.995 90.505ZM83.2 123V91H81.8V123H83.2Z" fill="#7D76FF"/>
<path d="M525.5 229.3C525.113 229.3 524.8 229.613 524.8 230C524.8 230.387 525.113 230.7 525.5 230.7L525.5 229.3ZM534.995 230.495C535.268 230.222 535.268 229.778 534.995 229.505L530.54 225.05C530.267 224.777 529.824 224.777 529.55 225.05C529.277 225.324 529.277 225.767 529.55 226.04L533.51 230L529.55 233.96C529.277 234.233 529.277 234.676 529.55 234.95C529.824 235.223 530.267 235.223 530.54 234.95L534.995 230.495ZM525.5 230.7L534.5 230.7L534.5 229.3L525.5 229.3L525.5 230.7Z" fill="#7D76FF"/>
<path d="M211 394V426C211 428.209 209.209 430 207 430H-43.5" stroke="#7D76FF" stroke-width="1.4" stroke-linecap="round" stroke-dasharray="4 4"/>
</g>
<defs>
<clipPath id="clip0_246_20363">
<rect width="692" height="468" fill="white"/>
</clipPath>
</defs>
</svg>
