<svg xmlns="http://www.w3.org/2000/svg" width="153" height="109" fill="none"><path fill="#7D76FF" fill-opacity=".1" d="M64.466 71.087c0 20.68-15.901 37.913-36.1 37.913C11.173 109 0 96.075 0 77.119 0 39.206 31.374 4.309 68.764 0l-3.438 20.249c-18.48 3.447-33.093 15.079-35.242 29.727 3.439-1.723 7.306-2.585 11.604-2.585 13.323 0 22.778 9.048 22.778 23.696Zm84.236 0c0 20.68-15.901 37.913-36.101 37.913-17.19 0-28.365-12.925-28.365-31.881C84.236 39.206 115.61 4.309 153 0l-3.438 20.249c-18.481 3.447-33.093 15.079-35.242 29.727 3.438-1.723 7.306-2.585 11.604-2.585 13.323 0 22.778 9.048 22.778 23.696Z"/></svg>
